<?xml version="1.0" encoding="UTF-8" standalone="no"?>
<!DOCTYPE svg PUBLIC "-//W3C//DTD SVG 1.1//EN"
 "http://www.w3.org/Graphics/SVG/1.1/DTD/svg11.dtd">
<!-- Generated by graphviz version 2.44.0 (0)
 -->
<!-- Title: snakemake_dag Pages: 1 -->
<svg width="3414pt" height="1556pt"
 viewBox="0.00 0.00 3414.00 1556.00" xmlns="http://www.w3.org/2000/svg" xmlns:xlink="http://www.w3.org/1999/xlink">
<g id="graph0" class="graph" transform="scale(1 1) rotate(0) translate(4 1552)">
<title>snakemake_dag</title>
<polygon fill="white" stroke="transparent" points="-4,4 -4,-1552 3410,-1552 3410,4 -4,4"/>
<!-- 0 -->
<g id="node1" class="node">
<title>0</title>
<path fill="none" stroke="#d86e56" stroke-width="2" d="M1664,-36C1664,-36 1634,-36 1634,-36 1628,-36 1622,-30 1622,-24 1622,-24 1622,-12 1622,-12 1622,-6 1628,0 1634,0 1634,0 1664,0 1664,0 1670,0 1676,-6 1676,-12 1676,-12 1676,-24 1676,-24 1676,-30 1670,-36 1664,-36"/>
<text text-anchor="middle" x="1649" y="-15.5" font-family="sans" font-size="10.00">all</text>
</g>
<!-- 1 -->
<g id="node2" class="node">
<title>1</title>
<path fill="none" stroke="#d87556" stroke-width="2" d="M1809.5,-828C1809.5,-828 1726.5,-828 1726.5,-828 1720.5,-828 1714.5,-822 1714.5,-816 1714.5,-816 1714.5,-804 1714.5,-804 1714.5,-798 1720.5,-792 1726.5,-792 1726.5,-792 1809.5,-792 1809.5,-792 1815.5,-792 1821.5,-798 1821.5,-804 1821.5,-804 1821.5,-816 1821.5,-816 1821.5,-822 1815.5,-828 1809.5,-828"/>
<text text-anchor="middle" x="1768" y="-807.5" font-family="sans" font-size="10.00">clean_up_subRun1</text>
</g>
<!-- 1&#45;&gt;0 -->
<g id="edge1" class="edge">
<title>1&#45;&gt;0</title>
<path fill="none" stroke="grey" stroke-width="2" d="M1754.85,-791.69C1736.65,-765.95 1706,-715.42 1706,-667 1706,-667 1706,-667 1706,-449 1706,-377.21 1675.64,-345.21 1719,-288 1760.79,-232.86 1971.46,-236.78 2011,-180 2020.14,-166.87 2020.29,-157.03 2011,-144 1935.17,-37.6 1762.46,-20.89 1686.28,-18.88"/>
<polygon fill="grey" stroke="grey" stroke-width="2" points="1686.26,-15.37 1676.19,-18.68 1686.12,-22.37 1686.26,-15.37"/>
</g>
<!-- 35 -->
<g id="node36" class="node">
<title>35</title>
<path fill="none" stroke="#d86656" stroke-width="2" d="M2058,-756C2058,-756 1986,-756 1986,-756 1980,-756 1974,-750 1974,-744 1974,-744 1974,-732 1974,-732 1974,-726 1980,-720 1986,-720 1986,-720 2058,-720 2058,-720 2064,-720 2070,-726 2070,-732 2070,-732 2070,-744 2070,-744 2070,-750 2064,-756 2058,-756"/>
<text text-anchor="middle" x="2022" y="-735.5" font-family="sans" font-size="10.00">_setup_subRun3</text>
</g>
<!-- 1&#45;&gt;35 -->
<g id="edge72" class="edge">
<title>1&#45;&gt;35</title>
<path fill="none" stroke="grey" stroke-width="2" d="M1821.56,-794.24C1863.28,-782.74 1921.12,-766.8 1963.95,-755"/>
<polygon fill="grey" stroke="grey" stroke-width="2" points="1964.96,-758.35 1973.67,-752.32 1963.1,-751.6 1964.96,-758.35"/>
</g>
<!-- 2 -->
<g id="node3" class="node">
<title>2</title>
<path fill="none" stroke="#d89556" stroke-width="2" stroke-dasharray="5,2" d="M1005,-900C1005,-900 859,-900 859,-900 853,-900 847,-894 847,-888 847,-888 847,-876 847,-876 847,-870 853,-864 859,-864 859,-864 1005,-864 1005,-864 1011,-864 1017,-870 1017,-876 1017,-876 1017,-888 1017,-888 1017,-894 1011,-900 1005,-900"/>
<text text-anchor="middle" x="932" y="-879.5" font-family="sans" font-size="10.00">modify_ini_conditions_subRun2</text>
</g>
<!-- 2&#45;&gt;1 -->
<g id="edge5" class="edge">
<title>2&#45;&gt;1</title>
<path fill="none" stroke="grey" stroke-width="2" d="M1017.24,-865.17C1020.2,-864.75 1023.12,-864.36 1026,-864 1275.83,-832.58 1575.51,-818.28 1704.19,-813.24"/>
<polygon fill="grey" stroke="grey" stroke-width="2" points="1704.41,-816.74 1714.27,-812.85 1704.14,-809.74 1704.41,-816.74"/>
</g>
<!-- 39 -->
<g id="node40" class="node">
<title>39</title>
<path fill="none" stroke="#56d87b" stroke-width="2" d="M1546,-684C1546,-684 1404,-684 1404,-684 1398,-684 1392,-678 1392,-672 1392,-672 1392,-660 1392,-660 1392,-654 1398,-648 1404,-648 1404,-648 1546,-648 1546,-648 1552,-648 1558,-654 1558,-660 1558,-660 1558,-672 1558,-672 1558,-678 1552,-684 1546,-684"/>
<text text-anchor="middle" x="1475" y="-663.5" font-family="sans" font-size="10.00">run_model_solution1_subRun2</text>
</g>
<!-- 2&#45;&gt;39 -->
<g id="edge76" class="edge">
<title>2&#45;&gt;39</title>
<path fill="none" stroke="grey" stroke-width="2" d="M975.52,-863.85C1074.33,-824.91 1315.35,-729.92 1422.34,-687.75"/>
<polygon fill="grey" stroke="grey" stroke-width="2" points="1423.63,-691.01 1431.65,-684.08 1421.07,-684.49 1423.63,-691.01"/>
</g>
<!-- 40 -->
<g id="node41" class="node">
<title>40</title>
<path fill="none" stroke="#56d892" stroke-width="2" d="M550,-684C550,-684 408,-684 408,-684 402,-684 396,-678 396,-672 396,-672 396,-660 396,-660 396,-654 402,-648 408,-648 408,-648 550,-648 550,-648 556,-648 562,-654 562,-660 562,-660 562,-672 562,-672 562,-678 556,-684 550,-684"/>
<text text-anchor="middle" x="479" y="-663.5" font-family="sans" font-size="10.00">run_model_solution2_subRun2</text>
</g>
<!-- 2&#45;&gt;40 -->
<g id="edge77" class="edge">
<title>2&#45;&gt;40</title>
<path fill="none" stroke="grey" stroke-width="2" d="M895.69,-863.85C813.67,-825.1 614.21,-730.88 524.29,-688.39"/>
<polygon fill="grey" stroke="grey" stroke-width="2" points="525.7,-685.19 515.16,-684.08 522.71,-691.52 525.7,-685.19"/>
</g>
<!-- 41 -->
<g id="node42" class="node">
<title>41</title>
<path fill="none" stroke="#56d8a9" stroke-width="2" d="M854,-684C854,-684 712,-684 712,-684 706,-684 700,-678 700,-672 700,-672 700,-660 700,-660 700,-654 706,-648 712,-648 712,-648 854,-648 854,-648 860,-648 866,-654 866,-660 866,-660 866,-672 866,-672 866,-678 860,-684 854,-684"/>
<text text-anchor="middle" x="783" y="-663.5" font-family="sans" font-size="10.00">run_model_solution3_subRun2</text>
</g>
<!-- 2&#45;&gt;41 -->
<g id="edge78" class="edge">
<title>2&#45;&gt;41</title>
<path fill="none" stroke="grey" stroke-width="2" d="M920.06,-863.85C893.96,-826.36 831.7,-736.95 800.9,-692.7"/>
<polygon fill="grey" stroke="grey" stroke-width="2" points="803.58,-690.44 795,-684.23 797.84,-694.44 803.58,-690.44"/>
</g>
<!-- 42 -->
<g id="node43" class="node">
<title>42</title>
<path fill="none" stroke="#56d8c1" stroke-width="2" d="M1178,-684C1178,-684 1036,-684 1036,-684 1030,-684 1024,-678 1024,-672 1024,-672 1024,-660 1024,-660 1024,-654 1030,-648 1036,-648 1036,-648 1178,-648 1178,-648 1184,-648 1190,-654 1190,-660 1190,-660 1190,-672 1190,-672 1190,-678 1184,-684 1178,-684"/>
<text text-anchor="middle" x="1107" y="-663.5" font-family="sans" font-size="10.00">run_model_solution4_subRun2</text>
</g>
<!-- 2&#45;&gt;42 -->
<g id="edge79" class="edge">
<title>2&#45;&gt;42</title>
<path fill="none" stroke="grey" stroke-width="2" d="M946.03,-863.85C976.81,-826.21 1050.41,-736.2 1086.43,-692.15"/>
<polygon fill="grey" stroke="grey" stroke-width="2" points="1089.29,-694.19 1092.91,-684.23 1083.87,-689.76 1089.29,-694.19"/>
</g>
<!-- 3 -->
<g id="node4" class="node">
<title>3</title>
<path fill="none" stroke="#56b1d8" stroke-width="2" stroke-dasharray="5,2" d="M1033,-972C1033,-972 877,-972 877,-972 871,-972 865,-966 865,-960 865,-960 865,-948 865,-948 865,-942 871,-936 877,-936 877,-936 1033,-936 1033,-936 1039,-936 1045,-942 1045,-948 1045,-948 1045,-960 1045,-960 1045,-966 1039,-972 1033,-972"/>
<text text-anchor="middle" x="955" y="-951.5" font-family="sans" font-size="10.00">write_models_solution1_subRun2</text>
</g>
<!-- 3&#45;&gt;2 -->
<g id="edge14" class="edge">
<title>3&#45;&gt;2</title>
<path fill="none" stroke="grey" stroke-width="2" d="M949.31,-935.7C946.75,-927.9 943.67,-918.51 940.82,-909.83"/>
<polygon fill="grey" stroke="grey" stroke-width="2" points="944.07,-908.51 937.62,-900.1 937.42,-910.7 944.07,-908.51"/>
</g>
<!-- 4 -->
<g id="node5" class="node">
<title>4</title>
<path fill="none" stroke="#d85e56" stroke-width="2" stroke-dasharray="5,2" d="M991,-1044C991,-1044 919,-1044 919,-1044 913,-1044 907,-1038 907,-1032 907,-1032 907,-1020 907,-1020 907,-1014 913,-1008 919,-1008 919,-1008 991,-1008 991,-1008 997,-1008 1003,-1014 1003,-1020 1003,-1020 1003,-1032 1003,-1032 1003,-1038 997,-1044 991,-1044"/>
<text text-anchor="middle" x="955" y="-1023.5" font-family="sans" font-size="10.00">_setup_subRun2</text>
</g>
<!-- 4&#45;&gt;3 -->
<g id="edge22" class="edge">
<title>4&#45;&gt;3</title>
<path fill="none" stroke="grey" stroke-width="2" d="M955,-1007.7C955,-999.98 955,-990.71 955,-982.11"/>
<polygon fill="grey" stroke="grey" stroke-width="2" points="958.5,-982.1 955,-972.1 951.5,-982.1 958.5,-982.1"/>
</g>
<!-- 11 -->
<g id="node12" class="node">
<title>11</title>
<path fill="none" stroke="#569ad8" stroke-width="2" stroke-dasharray="5,2" d="M1231,-972C1231,-972 1075,-972 1075,-972 1069,-972 1063,-966 1063,-960 1063,-960 1063,-948 1063,-948 1063,-942 1069,-936 1075,-936 1075,-936 1231,-936 1231,-936 1237,-936 1243,-942 1243,-948 1243,-948 1243,-960 1243,-960 1243,-966 1237,-972 1231,-972"/>
<text text-anchor="middle" x="1153" y="-951.5" font-family="sans" font-size="10.00">write_models_solution2_subRun2</text>
</g>
<!-- 4&#45;&gt;11 -->
<g id="edge30" class="edge">
<title>4&#45;&gt;11</title>
<path fill="none" stroke="grey" stroke-width="2" d="M1003.18,-1007.97C1030.85,-998.19 1065.78,-985.84 1094.95,-975.52"/>
<polygon fill="grey" stroke="grey" stroke-width="2" points="1096.34,-978.74 1104.6,-972.11 1094.01,-972.14 1096.34,-978.74"/>
</g>
<!-- 12 -->
<g id="node13" class="node">
<title>12</title>
<path fill="none" stroke="#5682d8" stroke-width="2" stroke-dasharray="5,2" d="M637,-972C637,-972 481,-972 481,-972 475,-972 469,-966 469,-960 469,-960 469,-948 469,-948 469,-942 475,-936 481,-936 481,-936 637,-936 637,-936 643,-936 649,-942 649,-948 649,-948 649,-960 649,-960 649,-966 643,-972 637,-972"/>
<text text-anchor="middle" x="559" y="-951.5" font-family="sans" font-size="10.00">write_models_solution3_subRun2</text>
</g>
<!-- 4&#45;&gt;12 -->
<g id="edge31" class="edge">
<title>4&#45;&gt;12</title>
<path fill="none" stroke="grey" stroke-width="2" d="M906.84,-1016.49C845.66,-1005.67 738.52,-986.73 659.27,-972.72"/>
<polygon fill="grey" stroke="grey" stroke-width="2" points="659.71,-969.25 649.26,-970.95 658.49,-976.14 659.71,-969.25"/>
</g>
<!-- 13 -->
<g id="node14" class="node">
<title>13</title>
<path fill="none" stroke="#566bd8" stroke-width="2" stroke-dasharray="5,2" d="M835,-972C835,-972 679,-972 679,-972 673,-972 667,-966 667,-960 667,-960 667,-948 667,-948 667,-942 673,-936 679,-936 679,-936 835,-936 835,-936 841,-936 847,-942 847,-948 847,-948 847,-960 847,-960 847,-966 841,-972 835,-972"/>
<text text-anchor="middle" x="757" y="-951.5" font-family="sans" font-size="10.00">write_models_solution4_subRun2</text>
</g>
<!-- 4&#45;&gt;13 -->
<g id="edge32" class="edge">
<title>4&#45;&gt;13</title>
<path fill="none" stroke="grey" stroke-width="2" d="M906.82,-1007.97C879.15,-998.19 844.22,-985.84 815.05,-975.52"/>
<polygon fill="grey" stroke="grey" stroke-width="2" points="815.99,-972.14 805.4,-972.11 813.66,-978.74 815.99,-972.14"/>
</g>
<!-- 5 -->
<g id="node6" class="node">
<title>5</title>
<path fill="none" stroke="#56d8d8" stroke-width="2" stroke-dasharray="5,2" d="M1227,-1260C1227,-1260 1171,-1260 1171,-1260 1165,-1260 1159,-1254 1159,-1248 1159,-1248 1159,-1236 1159,-1236 1159,-1230 1165,-1224 1171,-1224 1171,-1224 1227,-1224 1227,-1224 1233,-1224 1239,-1230 1239,-1236 1239,-1236 1239,-1248 1239,-1248 1239,-1254 1233,-1260 1227,-1260"/>
<text text-anchor="middle" x="1199" y="-1239.5" font-family="sans" font-size="10.00">setup_output</text>
</g>
<!-- 5&#45;&gt;4 -->
<g id="edge23" class="edge">
<title>5&#45;&gt;4</title>
<path fill="none" stroke="grey" stroke-width="2" d="M1179.44,-1223.85C1136.17,-1185.89 1032.19,-1094.7 982.43,-1051.06"/>
<polygon fill="grey" stroke="grey" stroke-width="2" points="984.47,-1048.19 974.65,-1044.23 979.86,-1053.46 984.47,-1048.19"/>
</g>
<!-- 17 -->
<g id="node18" class="node">
<title>17</title>
<path fill="none" stroke="#d85656" stroke-width="2" stroke-dasharray="5,2" d="M1394,-1188C1394,-1188 1322,-1188 1322,-1188 1316,-1188 1310,-1182 1310,-1176 1310,-1176 1310,-1164 1310,-1164 1310,-1158 1316,-1152 1322,-1152 1322,-1152 1394,-1152 1394,-1152 1400,-1152 1406,-1158 1406,-1164 1406,-1164 1406,-1176 1406,-1176 1406,-1182 1400,-1188 1394,-1188"/>
<text text-anchor="middle" x="1358" y="-1167.5" font-family="sans" font-size="10.00">_setup_subRun1</text>
</g>
<!-- 5&#45;&gt;17 -->
<g id="edge39" class="edge">
<title>5&#45;&gt;17</title>
<path fill="none" stroke="grey" stroke-width="2" d="M1237.9,-1223.88C1259.63,-1214.31 1286.9,-1202.3 1309.96,-1192.15"/>
<polygon fill="grey" stroke="grey" stroke-width="2" points="1311.49,-1195.3 1319.23,-1188.07 1308.67,-1188.89 1311.49,-1195.3"/>
</g>
<!-- 6 -->
<g id="node7" class="node">
<title>6</title>
<path fill="none" stroke="#56c9d8" stroke-width="2" stroke-dasharray="5,2" d="M1178.5,-1332C1178.5,-1332 1057.5,-1332 1057.5,-1332 1051.5,-1332 1045.5,-1326 1045.5,-1320 1045.5,-1320 1045.5,-1308 1045.5,-1308 1045.5,-1302 1051.5,-1296 1057.5,-1296 1057.5,-1296 1178.5,-1296 1178.5,-1296 1184.5,-1296 1190.5,-1302 1190.5,-1308 1190.5,-1308 1190.5,-1320 1190.5,-1320 1190.5,-1326 1184.5,-1332 1178.5,-1332"/>
<text text-anchor="middle" x="1118" y="-1311.5" font-family="sans" font-size="10.00">write_model_forcing_sub1</text>
</g>
<!-- 6&#45;&gt;5 -->
<g id="edge24" class="edge">
<title>6&#45;&gt;5</title>
<path fill="none" stroke="grey" stroke-width="2" d="M1138.02,-1295.7C1148.13,-1286.97 1160.54,-1276.24 1171.52,-1266.75"/>
<polygon fill="grey" stroke="grey" stroke-width="2" points="1173.93,-1269.29 1179.21,-1260.1 1169.35,-1263.99 1173.93,-1269.29"/>
</g>
<!-- 7 -->
<g id="node8" class="node">
<title>7</title>
<path fill="none" stroke="#56d0d8" stroke-width="2" stroke-dasharray="5,2" d="M1261.5,-1404C1261.5,-1404 1136.5,-1404 1136.5,-1404 1130.5,-1404 1124.5,-1398 1124.5,-1392 1124.5,-1392 1124.5,-1380 1124.5,-1380 1124.5,-1374 1130.5,-1368 1136.5,-1368 1136.5,-1368 1261.5,-1368 1261.5,-1368 1267.5,-1368 1273.5,-1374 1273.5,-1380 1273.5,-1380 1273.5,-1392 1273.5,-1392 1273.5,-1398 1267.5,-1404 1261.5,-1404"/>
<text text-anchor="middle" x="1199" y="-1383.5" font-family="sans" font-size="10.00">write_model_forcing_setup</text>
</g>
<!-- 7&#45;&gt;6 -->
<g id="edge26" class="edge">
<title>7&#45;&gt;6</title>
<path fill="none" stroke="grey" stroke-width="2" d="M1178.98,-1367.7C1168.87,-1358.97 1156.46,-1348.24 1145.48,-1338.75"/>
<polygon fill="grey" stroke="grey" stroke-width="2" points="1147.65,-1335.99 1137.79,-1332.1 1143.07,-1341.29 1147.65,-1335.99"/>
</g>
<!-- 10 -->
<g id="node11" class="node">
<title>10</title>
<path fill="none" stroke="#56c1d8" stroke-width="2" stroke-dasharray="5,2" d="M1341.5,-1332C1341.5,-1332 1220.5,-1332 1220.5,-1332 1214.5,-1332 1208.5,-1326 1208.5,-1320 1208.5,-1320 1208.5,-1308 1208.5,-1308 1208.5,-1302 1214.5,-1296 1220.5,-1296 1220.5,-1296 1341.5,-1296 1341.5,-1296 1347.5,-1296 1353.5,-1302 1353.5,-1308 1353.5,-1308 1353.5,-1320 1353.5,-1320 1353.5,-1326 1347.5,-1332 1341.5,-1332"/>
<text text-anchor="middle" x="1281" y="-1311.5" font-family="sans" font-size="10.00">write_model_forcing_sub2</text>
</g>
<!-- 7&#45;&gt;10 -->
<g id="edge29" class="edge">
<title>7&#45;&gt;10</title>
<path fill="none" stroke="grey" stroke-width="2" d="M1219.27,-1367.7C1229.5,-1358.97 1242.06,-1348.24 1253.18,-1338.75"/>
<polygon fill="grey" stroke="grey" stroke-width="2" points="1255.63,-1341.26 1260.96,-1332.1 1251.09,-1335.94 1255.63,-1341.26"/>
</g>
<!-- 8 -->
<g id="node9" class="node">
<title>8</title>
<path fill="none" stroke="#56d86b" stroke-width="2" stroke-dasharray="5,2" d="M1263,-1476C1263,-1476 1135,-1476 1135,-1476 1129,-1476 1123,-1470 1123,-1464 1123,-1464 1123,-1452 1123,-1452 1123,-1446 1129,-1440 1135,-1440 1135,-1440 1263,-1440 1263,-1440 1269,-1440 1275,-1446 1275,-1452 1275,-1452 1275,-1464 1275,-1464 1275,-1470 1269,-1476 1263,-1476"/>
<text text-anchor="middle" x="1199" y="-1455.5" font-family="sans" font-size="10.00">prepare_model_partitioning</text>
</g>
<!-- 8&#45;&gt;7 -->
<g id="edge27" class="edge">
<title>8&#45;&gt;7</title>
<path fill="none" stroke="grey" stroke-width="2" d="M1199,-1439.7C1199,-1431.98 1199,-1422.71 1199,-1414.11"/>
<polygon fill="grey" stroke="grey" stroke-width="2" points="1202.5,-1414.1 1199,-1404.1 1195.5,-1414.1 1202.5,-1414.1"/>
</g>
<!-- 9 -->
<g id="node10" class="node">
<title>9</title>
<path fill="none" stroke="#56d0d8" stroke-width="2" stroke-dasharray="5,2" d="M1237.5,-1548C1237.5,-1548 1160.5,-1548 1160.5,-1548 1154.5,-1548 1148.5,-1542 1148.5,-1536 1148.5,-1536 1148.5,-1524 1148.5,-1524 1148.5,-1518 1154.5,-1512 1160.5,-1512 1160.5,-1512 1237.5,-1512 1237.5,-1512 1243.5,-1512 1249.5,-1518 1249.5,-1524 1249.5,-1524 1249.5,-1536 1249.5,-1536 1249.5,-1542 1243.5,-1548 1237.5,-1548"/>
<text text-anchor="middle" x="1199" y="-1527.5" font-family="sans" font-size="10.00">setup_simulation</text>
</g>
<!-- 9&#45;&gt;8 -->
<g id="edge28" class="edge">
<title>9&#45;&gt;8</title>
<path fill="none" stroke="grey" stroke-width="2" d="M1199,-1511.7C1199,-1503.98 1199,-1494.71 1199,-1486.11"/>
<polygon fill="grey" stroke="grey" stroke-width="2" points="1202.5,-1486.1 1199,-1476.1 1195.5,-1486.1 1202.5,-1486.1"/>
</g>
<!-- 10&#45;&gt;5 -->
<g id="edge25" class="edge">
<title>10&#45;&gt;5</title>
<path fill="none" stroke="grey" stroke-width="2" d="M1260.73,-1295.7C1250.5,-1286.97 1237.94,-1276.24 1226.82,-1266.75"/>
<polygon fill="grey" stroke="grey" stroke-width="2" points="1228.91,-1263.94 1219.04,-1260.1 1224.37,-1269.26 1228.91,-1263.94"/>
</g>
<!-- 11&#45;&gt;2 -->
<g id="edge15" class="edge">
<title>11&#45;&gt;2</title>
<path fill="none" stroke="grey" stroke-width="2" d="M1099.22,-935.97C1068.07,-926.1 1028.68,-913.62 995.95,-903.25"/>
<polygon fill="grey" stroke="grey" stroke-width="2" points="996.61,-899.79 986.02,-900.11 994.5,-906.47 996.61,-899.79"/>
</g>
<!-- 12&#45;&gt;2 -->
<g id="edge16" class="edge">
<title>12&#45;&gt;2</title>
<path fill="none" stroke="grey" stroke-width="2" d="M649.29,-936.05C706.06,-925.4 779.19,-911.68 836.85,-900.86"/>
<polygon fill="grey" stroke="grey" stroke-width="2" points="837.52,-904.29 846.7,-899.01 836.23,-897.41 837.52,-904.29"/>
</g>
<!-- 13&#45;&gt;2 -->
<g id="edge17" class="edge">
<title>13&#45;&gt;2</title>
<path fill="none" stroke="grey" stroke-width="2" d="M799.81,-935.88C823.95,-926.22 854.28,-914.09 879.81,-903.88"/>
<polygon fill="grey" stroke="grey" stroke-width="2" points="881.34,-907.03 889.33,-900.07 878.74,-900.53 881.34,-907.03"/>
</g>
<!-- 14 -->
<g id="node15" class="node">
<title>14</title>
<path fill="none" stroke="#56d873" stroke-width="2" stroke-dasharray="5,2" d="M1415,-972C1415,-972 1273,-972 1273,-972 1267,-972 1261,-966 1261,-960 1261,-960 1261,-948 1261,-948 1261,-942 1267,-936 1273,-936 1273,-936 1415,-936 1415,-936 1421,-936 1427,-942 1427,-948 1427,-948 1427,-960 1427,-960 1427,-966 1421,-972 1415,-972"/>
<text text-anchor="middle" x="1344" y="-951.5" font-family="sans" font-size="10.00">run_model_solution1_subRun1</text>
</g>
<!-- 14&#45;&gt;2 -->
<g id="edge18" class="edge">
<title>14&#45;&gt;2</title>
<path fill="none" stroke="grey" stroke-width="2" d="M1260.77,-937.53C1257.81,-937.01 1254.88,-936.5 1252,-936 1154.89,-919.3 1127.94,-917.17 1027.04,-900.16"/>
<polygon fill="grey" stroke="grey" stroke-width="2" points="1027.48,-896.68 1017.04,-898.46 1026.32,-903.58 1027.48,-896.68"/>
</g>
<!-- 24 -->
<g id="node25" class="node">
<title>24</title>
<path fill="none" stroke="#d8c356" stroke-width="2" stroke-dasharray="5,2" d="M1217,-900C1217,-900 1047,-900 1047,-900 1041,-900 1035,-894 1035,-888 1035,-888 1035,-876 1035,-876 1035,-870 1041,-864 1047,-864 1047,-864 1217,-864 1217,-864 1223,-864 1229,-870 1229,-876 1229,-876 1229,-888 1229,-888 1229,-894 1223,-900 1217,-900"/>
<text text-anchor="middle" x="1132" y="-879.5" font-family="sans" font-size="10.00">post_model_solution1_wtd_subRun1</text>
</g>
<!-- 14&#45;&gt;24 -->
<g id="edge46" class="edge">
<title>14&#45;&gt;24</title>
<path fill="none" stroke="grey" stroke-width="2" d="M1292.41,-935.97C1262.53,-926.1 1224.74,-913.62 1193.34,-903.25"/>
<polygon fill="grey" stroke="grey" stroke-width="2" points="1194.41,-899.92 1183.82,-900.11 1192.22,-906.57 1194.41,-899.92"/>
</g>
<!-- 25 -->
<g id="node26" class="node">
<title>25</title>
<path fill="none" stroke="#d8a456" stroke-width="2" stroke-dasharray="5,2" d="M1429,-900C1429,-900 1259,-900 1259,-900 1253,-900 1247,-894 1247,-888 1247,-888 1247,-876 1247,-876 1247,-870 1253,-864 1259,-864 1259,-864 1429,-864 1429,-864 1435,-864 1441,-870 1441,-876 1441,-876 1441,-888 1441,-888 1441,-894 1435,-900 1429,-900"/>
<text text-anchor="middle" x="1344" y="-879.5" font-family="sans" font-size="10.00">post_model_solution1_hds_subRun1</text>
</g>
<!-- 14&#45;&gt;25 -->
<g id="edge47" class="edge">
<title>14&#45;&gt;25</title>
<path fill="none" stroke="grey" stroke-width="2" d="M1344,-935.7C1344,-927.98 1344,-918.71 1344,-910.11"/>
<polygon fill="grey" stroke="grey" stroke-width="2" points="1347.5,-910.1 1344,-900.1 1340.5,-910.1 1347.5,-910.1"/>
</g>
<!-- 15 -->
<g id="node16" class="node">
<title>15</title>
<path fill="none" stroke="#d88d56" stroke-width="2" stroke-dasharray="5,2" d="M1629,-1044C1629,-1044 1483,-1044 1483,-1044 1477,-1044 1471,-1038 1471,-1032 1471,-1032 1471,-1020 1471,-1020 1471,-1014 1477,-1008 1483,-1008 1483,-1008 1629,-1008 1629,-1008 1635,-1008 1641,-1014 1641,-1020 1641,-1020 1641,-1032 1641,-1032 1641,-1038 1635,-1044 1629,-1044"/>
<text text-anchor="middle" x="1556" y="-1023.5" font-family="sans" font-size="10.00">modify_ini_conditions_subRun1</text>
</g>
<!-- 15&#45;&gt;14 -->
<g id="edge33" class="edge">
<title>15&#45;&gt;14</title>
<path fill="none" stroke="grey" stroke-width="2" d="M1504.41,-1007.97C1474.53,-998.1 1436.74,-985.62 1405.34,-975.25"/>
<polygon fill="grey" stroke="grey" stroke-width="2" points="1406.41,-971.92 1395.82,-972.11 1404.22,-978.57 1406.41,-971.92"/>
</g>
<!-- 21 -->
<g id="node22" class="node">
<title>21</title>
<path fill="none" stroke="#56d88a" stroke-width="2" stroke-dasharray="5,2" d="M1627,-972C1627,-972 1485,-972 1485,-972 1479,-972 1473,-966 1473,-960 1473,-960 1473,-948 1473,-948 1473,-942 1479,-936 1485,-936 1485,-936 1627,-936 1627,-936 1633,-936 1639,-942 1639,-948 1639,-948 1639,-960 1639,-960 1639,-966 1633,-972 1627,-972"/>
<text text-anchor="middle" x="1556" y="-951.5" font-family="sans" font-size="10.00">run_model_solution2_subRun1</text>
</g>
<!-- 15&#45;&gt;21 -->
<g id="edge43" class="edge">
<title>15&#45;&gt;21</title>
<path fill="none" stroke="grey" stroke-width="2" d="M1556,-1007.7C1556,-999.98 1556,-990.71 1556,-982.11"/>
<polygon fill="grey" stroke="grey" stroke-width="2" points="1559.5,-982.1 1556,-972.1 1552.5,-982.1 1559.5,-982.1"/>
</g>
<!-- 22 -->
<g id="node23" class="node">
<title>22</title>
<path fill="none" stroke="#56d8a2" stroke-width="2" stroke-dasharray="5,2" d="M1931,-972C1931,-972 1789,-972 1789,-972 1783,-972 1777,-966 1777,-960 1777,-960 1777,-948 1777,-948 1777,-942 1783,-936 1789,-936 1789,-936 1931,-936 1931,-936 1937,-936 1943,-942 1943,-948 1943,-948 1943,-960 1943,-960 1943,-966 1937,-972 1931,-972"/>
<text text-anchor="middle" x="1860" y="-951.5" font-family="sans" font-size="10.00">run_model_solution3_subRun1</text>
</g>
<!-- 15&#45;&gt;22 -->
<g id="edge44" class="edge">
<title>15&#45;&gt;22</title>
<path fill="none" stroke="grey" stroke-width="2" d="M1629.98,-1007.97C1674.11,-997.8 1730.27,-984.87 1776.05,-974.33"/>
<polygon fill="grey" stroke="grey" stroke-width="2" points="1776.99,-977.7 1785.95,-972.05 1775.42,-970.88 1776.99,-977.7"/>
</g>
<!-- 23 -->
<g id="node24" class="node">
<title>23</title>
<path fill="none" stroke="#56d8c1" stroke-width="2" stroke-dasharray="5,2" d="M2235,-972C2235,-972 2093,-972 2093,-972 2087,-972 2081,-966 2081,-960 2081,-960 2081,-948 2081,-948 2081,-942 2087,-936 2093,-936 2093,-936 2235,-936 2235,-936 2241,-936 2247,-942 2247,-948 2247,-948 2247,-960 2247,-960 2247,-966 2241,-972 2235,-972"/>
<text text-anchor="middle" x="2164" y="-951.5" font-family="sans" font-size="10.00">run_model_solution4_subRun1</text>
</g>
<!-- 15&#45;&gt;23 -->
<g id="edge45" class="edge">
<title>15&#45;&gt;23</title>
<path fill="none" stroke="grey" stroke-width="2" d="M1641.18,-1015.19C1754.39,-1002.16 1953.73,-979.21 2070.83,-965.73"/>
<polygon fill="grey" stroke="grey" stroke-width="2" points="2071.32,-969.19 2080.86,-964.57 2070.52,-962.24 2071.32,-969.19"/>
</g>
<!-- 16 -->
<g id="node17" class="node">
<title>16</title>
<path fill="none" stroke="#56b9d8" stroke-width="2" stroke-dasharray="5,2" d="M1634,-1116C1634,-1116 1478,-1116 1478,-1116 1472,-1116 1466,-1110 1466,-1104 1466,-1104 1466,-1092 1466,-1092 1466,-1086 1472,-1080 1478,-1080 1478,-1080 1634,-1080 1634,-1080 1640,-1080 1646,-1086 1646,-1092 1646,-1092 1646,-1104 1646,-1104 1646,-1110 1640,-1116 1634,-1116"/>
<text text-anchor="middle" x="1556" y="-1095.5" font-family="sans" font-size="10.00">write_models_solution1_subRun1</text>
</g>
<!-- 16&#45;&gt;15 -->
<g id="edge34" class="edge">
<title>16&#45;&gt;15</title>
<path fill="none" stroke="grey" stroke-width="2" d="M1556,-1079.7C1556,-1071.98 1556,-1062.71 1556,-1054.11"/>
<polygon fill="grey" stroke="grey" stroke-width="2" points="1559.5,-1054.1 1556,-1044.1 1552.5,-1054.1 1559.5,-1054.1"/>
</g>
<!-- 17&#45;&gt;16 -->
<g id="edge38" class="edge">
<title>17&#45;&gt;16</title>
<path fill="none" stroke="grey" stroke-width="2" d="M1406.18,-1151.97C1433.85,-1142.19 1468.78,-1129.84 1497.95,-1119.52"/>
<polygon fill="grey" stroke="grey" stroke-width="2" points="1499.34,-1122.74 1507.6,-1116.11 1497.01,-1116.14 1499.34,-1122.74"/>
</g>
<!-- 18 -->
<g id="node19" class="node">
<title>18</title>
<path fill="none" stroke="#56a2d8" stroke-width="2" stroke-dasharray="5,2" d="M1832,-1116C1832,-1116 1676,-1116 1676,-1116 1670,-1116 1664,-1110 1664,-1104 1664,-1104 1664,-1092 1664,-1092 1664,-1086 1670,-1080 1676,-1080 1676,-1080 1832,-1080 1832,-1080 1838,-1080 1844,-1086 1844,-1092 1844,-1092 1844,-1104 1844,-1104 1844,-1110 1838,-1116 1832,-1116"/>
<text text-anchor="middle" x="1754" y="-1095.5" font-family="sans" font-size="10.00">write_models_solution2_subRun1</text>
</g>
<!-- 17&#45;&gt;18 -->
<g id="edge40" class="edge">
<title>17&#45;&gt;18</title>
<path fill="none" stroke="grey" stroke-width="2" d="M1406.16,-1160.49C1467.34,-1149.67 1574.48,-1130.73 1653.73,-1116.72"/>
<polygon fill="grey" stroke="grey" stroke-width="2" points="1654.51,-1120.14 1663.74,-1114.95 1653.29,-1113.25 1654.51,-1120.14"/>
</g>
<!-- 19 -->
<g id="node20" class="node">
<title>19</title>
<path fill="none" stroke="#568ad8" stroke-width="2" stroke-dasharray="5,2" d="M1238,-1116C1238,-1116 1082,-1116 1082,-1116 1076,-1116 1070,-1110 1070,-1104 1070,-1104 1070,-1092 1070,-1092 1070,-1086 1076,-1080 1082,-1080 1082,-1080 1238,-1080 1238,-1080 1244,-1080 1250,-1086 1250,-1092 1250,-1092 1250,-1104 1250,-1104 1250,-1110 1244,-1116 1238,-1116"/>
<text text-anchor="middle" x="1160" y="-1095.5" font-family="sans" font-size="10.00">write_models_solution3_subRun1</text>
</g>
<!-- 17&#45;&gt;19 -->
<g id="edge41" class="edge">
<title>17&#45;&gt;19</title>
<path fill="none" stroke="grey" stroke-width="2" d="M1309.82,-1151.97C1282.15,-1142.19 1247.22,-1129.84 1218.05,-1119.52"/>
<polygon fill="grey" stroke="grey" stroke-width="2" points="1218.99,-1116.14 1208.4,-1116.11 1216.66,-1122.74 1218.99,-1116.14"/>
</g>
<!-- 20 -->
<g id="node21" class="node">
<title>20</title>
<path fill="none" stroke="#5673d8" stroke-width="2" stroke-dasharray="5,2" d="M1436,-1116C1436,-1116 1280,-1116 1280,-1116 1274,-1116 1268,-1110 1268,-1104 1268,-1104 1268,-1092 1268,-1092 1268,-1086 1274,-1080 1280,-1080 1280,-1080 1436,-1080 1436,-1080 1442,-1080 1448,-1086 1448,-1092 1448,-1092 1448,-1104 1448,-1104 1448,-1110 1442,-1116 1436,-1116"/>
<text text-anchor="middle" x="1358" y="-1095.5" font-family="sans" font-size="10.00">write_models_solution4_subRun1</text>
</g>
<!-- 17&#45;&gt;20 -->
<g id="edge42" class="edge">
<title>17&#45;&gt;20</title>
<path fill="none" stroke="grey" stroke-width="2" d="M1358,-1151.7C1358,-1143.98 1358,-1134.71 1358,-1126.11"/>
<polygon fill="grey" stroke="grey" stroke-width="2" points="1361.5,-1126.1 1358,-1116.1 1354.5,-1126.1 1361.5,-1126.1"/>
</g>
<!-- 18&#45;&gt;15 -->
<g id="edge35" class="edge">
<title>18&#45;&gt;15</title>
<path fill="none" stroke="grey" stroke-width="2" d="M1705.82,-1079.97C1678.15,-1070.19 1643.22,-1057.84 1614.05,-1047.52"/>
<polygon fill="grey" stroke="grey" stroke-width="2" points="1614.99,-1044.14 1604.4,-1044.11 1612.66,-1050.74 1614.99,-1044.14"/>
</g>
<!-- 19&#45;&gt;15 -->
<g id="edge36" class="edge">
<title>19&#45;&gt;15</title>
<path fill="none" stroke="grey" stroke-width="2" d="M1250.35,-1081.03C1313.19,-1069.92 1396.81,-1055.14 1460.7,-1043.85"/>
<polygon fill="grey" stroke="grey" stroke-width="2" points="1461.54,-1047.25 1470.78,-1042.06 1460.32,-1040.36 1461.54,-1047.25"/>
</g>
<!-- 20&#45;&gt;15 -->
<g id="edge37" class="edge">
<title>20&#45;&gt;15</title>
<path fill="none" stroke="grey" stroke-width="2" d="M1406.18,-1079.97C1433.85,-1070.19 1468.78,-1057.84 1497.95,-1047.52"/>
<polygon fill="grey" stroke="grey" stroke-width="2" points="1499.34,-1050.74 1507.6,-1044.11 1497.01,-1044.14 1499.34,-1050.74"/>
</g>
<!-- 21&#45;&gt;2 -->
<g id="edge19" class="edge">
<title>21&#45;&gt;2</title>
<path fill="none" stroke="grey" stroke-width="2" d="M1472.8,-940.63C1460.47,-938.97 1447.92,-937.37 1436,-936 1257.55,-915.54 1209.04,-923.98 1027.41,-900.12"/>
<polygon fill="grey" stroke="grey" stroke-width="2" points="1027.63,-896.62 1017.25,-898.77 1026.7,-903.56 1027.63,-896.62"/>
</g>
<!-- 26 -->
<g id="node27" class="node">
<title>26</title>
<path fill="none" stroke="#bed856" stroke-width="2" stroke-dasharray="5,2" d="M1853,-900C1853,-900 1683,-900 1683,-900 1677,-900 1671,-894 1671,-888 1671,-888 1671,-876 1671,-876 1671,-870 1677,-864 1683,-864 1683,-864 1853,-864 1853,-864 1859,-864 1865,-870 1865,-876 1865,-876 1865,-888 1865,-888 1865,-894 1859,-900 1853,-900"/>
<text text-anchor="middle" x="1768" y="-879.5" font-family="sans" font-size="10.00">post_model_solution2_wtd_subRun1</text>
</g>
<!-- 21&#45;&gt;26 -->
<g id="edge48" class="edge">
<title>21&#45;&gt;26</title>
<path fill="none" stroke="grey" stroke-width="2" d="M1607.59,-935.97C1637.47,-926.1 1675.26,-913.62 1706.66,-903.25"/>
<polygon fill="grey" stroke="grey" stroke-width="2" points="1707.78,-906.57 1716.18,-900.11 1705.59,-899.92 1707.78,-906.57"/>
</g>
<!-- 27 -->
<g id="node28" class="node">
<title>27</title>
<path fill="none" stroke="#d6d856" stroke-width="2" stroke-dasharray="5,2" d="M1641,-900C1641,-900 1471,-900 1471,-900 1465,-900 1459,-894 1459,-888 1459,-888 1459,-876 1459,-876 1459,-870 1465,-864 1471,-864 1471,-864 1641,-864 1641,-864 1647,-864 1653,-870 1653,-876 1653,-876 1653,-888 1653,-888 1653,-894 1647,-900 1641,-900"/>
<text text-anchor="middle" x="1556" y="-879.5" font-family="sans" font-size="10.00">post_model_solution2_hds_subRun1</text>
</g>
<!-- 21&#45;&gt;27 -->
<g id="edge49" class="edge">
<title>21&#45;&gt;27</title>
<path fill="none" stroke="grey" stroke-width="2" d="M1556,-935.7C1556,-927.98 1556,-918.71 1556,-910.11"/>
<polygon fill="grey" stroke="grey" stroke-width="2" points="1559.5,-910.1 1556,-900.1 1552.5,-910.1 1559.5,-910.1"/>
</g>
<!-- 22&#45;&gt;2 -->
<g id="edge20" class="edge">
<title>22&#45;&gt;2</title>
<path fill="none" stroke="grey" stroke-width="2" d="M1776.97,-945.91C1737.85,-942.68 1690.55,-938.94 1648,-936 1375.12,-917.16 1302.73,-932.32 1027.53,-900.1"/>
<polygon fill="grey" stroke="grey" stroke-width="2" points="1027.58,-896.58 1017.24,-898.88 1026.76,-903.53 1027.58,-896.58"/>
</g>
<!-- 28 -->
<g id="node29" class="node">
<title>28</title>
<path fill="none" stroke="#88d856" stroke-width="2" stroke-dasharray="5,2" d="M2277,-900C2277,-900 2107,-900 2107,-900 2101,-900 2095,-894 2095,-888 2095,-888 2095,-876 2095,-876 2095,-870 2101,-864 2107,-864 2107,-864 2277,-864 2277,-864 2283,-864 2289,-870 2289,-876 2289,-876 2289,-888 2289,-888 2289,-894 2283,-900 2277,-900"/>
<text text-anchor="middle" x="2192" y="-879.5" font-family="sans" font-size="10.00">post_model_solution3_wtd_subRun1</text>
</g>
<!-- 22&#45;&gt;28 -->
<g id="edge50" class="edge">
<title>22&#45;&gt;28</title>
<path fill="none" stroke="grey" stroke-width="2" d="M1940.79,-935.97C1989.29,-925.74 2051.09,-912.71 2101.26,-902.13"/>
<polygon fill="grey" stroke="grey" stroke-width="2" points="2102.07,-905.54 2111.13,-900.05 2100.63,-898.69 2102.07,-905.54"/>
</g>
<!-- 29 -->
<g id="node30" class="node">
<title>29</title>
<path fill="none" stroke="#a7d856" stroke-width="2" stroke-dasharray="5,2" d="M2065,-900C2065,-900 1895,-900 1895,-900 1889,-900 1883,-894 1883,-888 1883,-888 1883,-876 1883,-876 1883,-870 1889,-864 1895,-864 1895,-864 2065,-864 2065,-864 2071,-864 2077,-870 2077,-876 2077,-876 2077,-888 2077,-888 2077,-894 2071,-900 2065,-900"/>
<text text-anchor="middle" x="1980" y="-879.5" font-family="sans" font-size="10.00">post_model_solution3_hds_subRun1</text>
</g>
<!-- 22&#45;&gt;29 -->
<g id="edge51" class="edge">
<title>22&#45;&gt;29</title>
<path fill="none" stroke="grey" stroke-width="2" d="M1889.36,-935.88C1905.05,-926.72 1924.56,-915.34 1941.45,-905.48"/>
<polygon fill="grey" stroke="grey" stroke-width="2" points="1943.66,-908.25 1950.53,-900.19 1940.13,-902.21 1943.66,-908.25"/>
</g>
<!-- 23&#45;&gt;2 -->
<g id="edge21" class="edge">
<title>23&#45;&gt;2</title>
<path fill="none" stroke="grey" stroke-width="2" d="M2080.99,-945.55C2041.88,-942.24 1994.57,-938.53 1952,-936 1544.17,-911.73 1437.15,-944.23 1027.28,-900.04"/>
<polygon fill="grey" stroke="grey" stroke-width="2" points="1027.55,-896.55 1017.23,-898.95 1026.79,-903.51 1027.55,-896.55"/>
</g>
<!-- 30 -->
<g id="node31" class="node">
<title>30</title>
<path fill="none" stroke="#59d856" stroke-width="2" stroke-dasharray="5,2" d="M2701,-900C2701,-900 2531,-900 2531,-900 2525,-900 2519,-894 2519,-888 2519,-888 2519,-876 2519,-876 2519,-870 2525,-864 2531,-864 2531,-864 2701,-864 2701,-864 2707,-864 2713,-870 2713,-876 2713,-876 2713,-888 2713,-888 2713,-894 2707,-900 2701,-900"/>
<text text-anchor="middle" x="2616" y="-879.5" font-family="sans" font-size="10.00">post_model_solution4_wtd_subRun1</text>
</g>
<!-- 23&#45;&gt;30 -->
<g id="edge52" class="edge">
<title>23&#45;&gt;30</title>
<path fill="none" stroke="grey" stroke-width="2" d="M2247.22,-940.42C2314.93,-930.15 2413.25,-915.14 2508.82,-900.18"/>
<polygon fill="grey" stroke="grey" stroke-width="2" points="2509.62,-903.6 2518.96,-898.59 2508.54,-896.68 2509.62,-903.6"/>
</g>
<!-- 31 -->
<g id="node32" class="node">
<title>31</title>
<path fill="none" stroke="#70d856" stroke-width="2" stroke-dasharray="5,2" d="M2489,-900C2489,-900 2319,-900 2319,-900 2313,-900 2307,-894 2307,-888 2307,-888 2307,-876 2307,-876 2307,-870 2313,-864 2319,-864 2319,-864 2489,-864 2489,-864 2495,-864 2501,-870 2501,-876 2501,-876 2501,-888 2501,-888 2501,-894 2495,-900 2489,-900"/>
<text text-anchor="middle" x="2404" y="-879.5" font-family="sans" font-size="10.00">post_model_solution4_hds_subRun1</text>
</g>
<!-- 23&#45;&gt;31 -->
<g id="edge53" class="edge">
<title>23&#45;&gt;31</title>
<path fill="none" stroke="grey" stroke-width="2" d="M2222.4,-935.97C2256.52,-926.01 2299.75,-913.41 2335.47,-902.99"/>
<polygon fill="grey" stroke="grey" stroke-width="2" points="2336.71,-906.27 2345.33,-900.11 2334.75,-899.55 2336.71,-906.27"/>
</g>
<!-- 24&#45;&gt;1 -->
<g id="edge6" class="edge">
<title>24&#45;&gt;1</title>
<path fill="none" stroke="grey" stroke-width="2" d="M1229.01,-865.21C1232.04,-864.79 1235.04,-864.38 1238,-864 1405.83,-842.17 1604.59,-824.46 1704.26,-816.14"/>
<polygon fill="grey" stroke="grey" stroke-width="2" points="1704.79,-819.61 1714.47,-815.3 1704.21,-812.64 1704.79,-819.61"/>
</g>
<!-- 25&#45;&gt;1 -->
<g id="edge7" class="edge">
<title>25&#45;&gt;1</title>
<path fill="none" stroke="grey" stroke-width="2" d="M1441.01,-864.98C1521.86,-851.64 1634.7,-833.01 1704.47,-821.49"/>
<polygon fill="grey" stroke="grey" stroke-width="2" points="1705.14,-824.93 1714.44,-819.84 1704,-818.02 1705.14,-824.93"/>
</g>
<!-- 26&#45;&gt;1 -->
<g id="edge8" class="edge">
<title>26&#45;&gt;1</title>
<path fill="none" stroke="grey" stroke-width="2" d="M1768,-863.7C1768,-855.98 1768,-846.71 1768,-838.11"/>
<polygon fill="grey" stroke="grey" stroke-width="2" points="1771.5,-838.1 1768,-828.1 1764.5,-838.1 1771.5,-838.1"/>
</g>
<!-- 27&#45;&gt;1 -->
<g id="edge9" class="edge">
<title>27&#45;&gt;1</title>
<path fill="none" stroke="grey" stroke-width="2" d="M1607.59,-863.97C1637.47,-854.1 1675.26,-841.62 1706.66,-831.25"/>
<polygon fill="grey" stroke="grey" stroke-width="2" points="1707.78,-834.57 1716.18,-828.11 1705.59,-827.92 1707.78,-834.57"/>
</g>
<!-- 28&#45;&gt;1 -->
<g id="edge10" class="edge">
<title>28&#45;&gt;1</title>
<path fill="none" stroke="grey" stroke-width="2" d="M2094.99,-864.98C2014.14,-851.64 1901.3,-833.01 1831.53,-821.49"/>
<polygon fill="grey" stroke="grey" stroke-width="2" points="1832,-818.02 1821.56,-819.84 1830.86,-824.93 1832,-818.02"/>
</g>
<!-- 29&#45;&gt;1 -->
<g id="edge11" class="edge">
<title>29&#45;&gt;1</title>
<path fill="none" stroke="grey" stroke-width="2" d="M1928.41,-863.97C1898.53,-854.1 1860.74,-841.62 1829.34,-831.25"/>
<polygon fill="grey" stroke="grey" stroke-width="2" points="1830.41,-827.92 1819.82,-828.11 1828.22,-834.57 1830.41,-827.92"/>
</g>
<!-- 30&#45;&gt;1 -->
<g id="edge12" class="edge">
<title>30&#45;&gt;1</title>
<path fill="none" stroke="grey" stroke-width="2" d="M2518.72,-865.06C2515.78,-864.69 2512.87,-864.33 2510,-864 2259.87,-835.07 1960.35,-819.46 1831.76,-813.67"/>
<polygon fill="grey" stroke="grey" stroke-width="2" points="1831.84,-810.17 1821.69,-813.22 1831.52,-817.16 1831.84,-810.17"/>
</g>
<!-- 31&#45;&gt;1 -->
<g id="edge13" class="edge">
<title>31&#45;&gt;1</title>
<path fill="none" stroke="grey" stroke-width="2" d="M2306.99,-865.21C2303.96,-864.79 2300.96,-864.38 2298,-864 2130.17,-842.17 1931.41,-824.46 1831.74,-816.14"/>
<polygon fill="grey" stroke="grey" stroke-width="2" points="1831.79,-812.64 1821.53,-815.3 1831.21,-819.61 1831.79,-812.64"/>
</g>
<!-- 32 -->
<g id="node33" class="node">
<title>32</title>
<path fill="none" stroke="#d87d56" stroke-width="2" d="M986.5,-540C986.5,-540 903.5,-540 903.5,-540 897.5,-540 891.5,-534 891.5,-528 891.5,-528 891.5,-516 891.5,-516 891.5,-510 897.5,-504 903.5,-504 903.5,-504 986.5,-504 986.5,-504 992.5,-504 998.5,-510 998.5,-516 998.5,-516 998.5,-528 998.5,-528 998.5,-534 992.5,-540 986.5,-540"/>
<text text-anchor="middle" x="945" y="-519.5" font-family="sans" font-size="10.00">clean_up_subRun2</text>
</g>
<!-- 32&#45;&gt;0 -->
<g id="edge2" class="edge">
<title>32&#45;&gt;0</title>
<path fill="none" stroke="grey" stroke-width="2" d="M891.34,-520.65C735.85,-518.2 296,-500.54 296,-379 296,-379 296,-379 296,-161 296,-24.83 1393.9,-18.76 1611.7,-18.9"/>
<polygon fill="grey" stroke="grey" stroke-width="2" points="1611.97,-22.4 1621.97,-18.91 1611.98,-15.4 1611.97,-22.4"/>
</g>
<!-- 54 -->
<g id="node55" class="node">
<title>54</title>
<path fill="none" stroke="#d86656" stroke-width="2" d="M1228,-468C1228,-468 1156,-468 1156,-468 1150,-468 1144,-462 1144,-456 1144,-456 1144,-444 1144,-444 1144,-438 1150,-432 1156,-432 1156,-432 1228,-432 1228,-432 1234,-432 1240,-438 1240,-444 1240,-444 1240,-456 1240,-456 1240,-462 1234,-468 1228,-468"/>
<text text-anchor="middle" x="1192" y="-447.5" font-family="sans" font-size="10.00">_setup_subRun4</text>
</g>
<!-- 32&#45;&gt;54 -->
<g id="edge106" class="edge">
<title>32&#45;&gt;54</title>
<path fill="none" stroke="grey" stroke-width="2" d="M998.6,-505.81C1038.57,-494.48 1093.12,-479.02 1134.1,-467.41"/>
<polygon fill="grey" stroke="grey" stroke-width="2" points="1135.28,-470.71 1143.94,-464.62 1133.37,-463.98 1135.28,-470.71"/>
</g>
<!-- 33 -->
<g id="node34" class="node">
<title>33</title>
<path fill="none" stroke="#d89c56" stroke-width="2" d="M1898,-612C1898,-612 1752,-612 1752,-612 1746,-612 1740,-606 1740,-600 1740,-600 1740,-588 1740,-588 1740,-582 1746,-576 1752,-576 1752,-576 1898,-576 1898,-576 1904,-576 1910,-582 1910,-588 1910,-588 1910,-600 1910,-600 1910,-606 1904,-612 1898,-612"/>
<text text-anchor="middle" x="1825" y="-591.5" font-family="sans" font-size="10.00">modify_ini_conditions_subRun3</text>
</g>
<!-- 33&#45;&gt;32 -->
<g id="edge54" class="edge">
<title>33&#45;&gt;32</title>
<path fill="none" stroke="grey" stroke-width="2" d="M1739.68,-581.8C1722.27,-579.71 1704.06,-577.66 1687,-576 1436.38,-551.63 1137.12,-533.64 1008.67,-526.45"/>
<polygon fill="grey" stroke="grey" stroke-width="2" points="1008.8,-522.95 998.62,-525.88 1008.41,-529.94 1008.8,-522.95"/>
</g>
<!-- 58 -->
<g id="node59" class="node">
<title>58</title>
<path fill="none" stroke="#56d882" stroke-width="2" d="M2892,-396C2892,-396 2750,-396 2750,-396 2744,-396 2738,-390 2738,-384 2738,-384 2738,-372 2738,-372 2738,-366 2744,-360 2750,-360 2750,-360 2892,-360 2892,-360 2898,-360 2904,-366 2904,-372 2904,-372 2904,-384 2904,-384 2904,-390 2898,-396 2892,-396"/>
<text text-anchor="middle" x="2821" y="-375.5" font-family="sans" font-size="10.00">run_model_solution1_subRun3</text>
</g>
<!-- 33&#45;&gt;58 -->
<g id="edge110" class="edge">
<title>33&#45;&gt;58</title>
<path fill="none" stroke="grey" stroke-width="2" d="M1904.4,-575.94C2087.75,-536.55 2539.57,-439.47 2731.95,-398.13"/>
<polygon fill="grey" stroke="grey" stroke-width="2" points="2732.71,-401.55 2741.75,-396.03 2731.23,-394.71 2732.71,-401.55"/>
</g>
<!-- 59 -->
<g id="node60" class="node">
<title>59</title>
<path fill="none" stroke="#56d89a" stroke-width="2" d="M1896,-396C1896,-396 1754,-396 1754,-396 1748,-396 1742,-390 1742,-384 1742,-384 1742,-372 1742,-372 1742,-366 1748,-360 1754,-360 1754,-360 1896,-360 1896,-360 1902,-360 1908,-366 1908,-372 1908,-372 1908,-384 1908,-384 1908,-390 1902,-396 1896,-396"/>
<text text-anchor="middle" x="1825" y="-375.5" font-family="sans" font-size="10.00">run_model_solution2_subRun3</text>
</g>
<!-- 33&#45;&gt;59 -->
<g id="edge111" class="edge">
<title>33&#45;&gt;59</title>
<path fill="none" stroke="grey" stroke-width="2" d="M1825,-575.85C1825,-538.83 1825,-451.18 1825,-406.39"/>
<polygon fill="grey" stroke="grey" stroke-width="2" points="1828.5,-406.23 1825,-396.23 1821.5,-406.23 1828.5,-406.23"/>
</g>
<!-- 60 -->
<g id="node61" class="node">
<title>60</title>
<path fill="none" stroke="#56d8b1" stroke-width="2" d="M2224,-396C2224,-396 2082,-396 2082,-396 2076,-396 2070,-390 2070,-384 2070,-384 2070,-372 2070,-372 2070,-366 2076,-360 2082,-360 2082,-360 2224,-360 2224,-360 2230,-360 2236,-366 2236,-372 2236,-372 2236,-384 2236,-384 2236,-390 2230,-396 2224,-396"/>
<text text-anchor="middle" x="2153" y="-375.5" font-family="sans" font-size="10.00">run_model_solution3_subRun3</text>
</g>
<!-- 33&#45;&gt;60 -->
<g id="edge112" class="edge">
<title>33&#45;&gt;60</title>
<path fill="none" stroke="grey" stroke-width="2" d="M1851.29,-575.85C1910.06,-537.5 2052.12,-444.82 2118.17,-401.73"/>
<polygon fill="grey" stroke="grey" stroke-width="2" points="2120.13,-404.63 2126.59,-396.23 2116.3,-398.77 2120.13,-404.63"/>
</g>
<!-- 61 -->
<g id="node62" class="node">
<title>61</title>
<path fill="none" stroke="#56d8c9" stroke-width="2" d="M2528,-396C2528,-396 2386,-396 2386,-396 2380,-396 2374,-390 2374,-384 2374,-384 2374,-372 2374,-372 2374,-366 2380,-360 2386,-360 2386,-360 2528,-360 2528,-360 2534,-360 2540,-366 2540,-372 2540,-372 2540,-384 2540,-384 2540,-390 2534,-396 2528,-396"/>
<text text-anchor="middle" x="2457" y="-375.5" font-family="sans" font-size="10.00">run_model_solution4_subRun3</text>
</g>
<!-- 33&#45;&gt;61 -->
<g id="edge113" class="edge">
<title>33&#45;&gt;61</title>
<path fill="none" stroke="grey" stroke-width="2" d="M1875.39,-575.94C1990.56,-536.94 2272.68,-441.41 2396.76,-399.4"/>
<polygon fill="grey" stroke="grey" stroke-width="2" points="2398.14,-402.62 2406.49,-396.1 2395.9,-395.99 2398.14,-402.62"/>
</g>
<!-- 34 -->
<g id="node35" class="node">
<title>34</title>
<path fill="none" stroke="#56b1d8" stroke-width="2" d="M2298,-684C2298,-684 2142,-684 2142,-684 2136,-684 2130,-678 2130,-672 2130,-672 2130,-660 2130,-660 2130,-654 2136,-648 2142,-648 2142,-648 2298,-648 2298,-648 2304,-648 2310,-654 2310,-660 2310,-660 2310,-672 2310,-672 2310,-678 2304,-684 2298,-684"/>
<text text-anchor="middle" x="2220" y="-663.5" font-family="sans" font-size="10.00">write_models_solution1_subRun3</text>
</g>
<!-- 34&#45;&gt;33 -->
<g id="edge63" class="edge">
<title>34&#45;&gt;33</title>
<path fill="none" stroke="grey" stroke-width="2" d="M2129.87,-649.03C2067.2,-637.92 1983.79,-623.14 1920.06,-611.85"/>
<polygon fill="grey" stroke="grey" stroke-width="2" points="1920.46,-608.36 1910,-610.06 1919.24,-615.26 1920.46,-608.36"/>
</g>
<!-- 35&#45;&gt;34 -->
<g id="edge71" class="edge">
<title>35&#45;&gt;34</title>
<path fill="none" stroke="grey" stroke-width="2" d="M2070.18,-719.97C2097.85,-710.19 2132.78,-697.84 2161.95,-687.52"/>
<polygon fill="grey" stroke="grey" stroke-width="2" points="2163.34,-690.74 2171.6,-684.11 2161.01,-684.14 2163.34,-690.74"/>
</g>
<!-- 36 -->
<g id="node37" class="node">
<title>36</title>
<path fill="none" stroke="#5692d8" stroke-width="2" d="M2496,-684C2496,-684 2340,-684 2340,-684 2334,-684 2328,-678 2328,-672 2328,-672 2328,-660 2328,-660 2328,-654 2334,-648 2340,-648 2340,-648 2496,-648 2496,-648 2502,-648 2508,-654 2508,-660 2508,-660 2508,-672 2508,-672 2508,-678 2502,-684 2496,-684"/>
<text text-anchor="middle" x="2418" y="-663.5" font-family="sans" font-size="10.00">write_models_solution2_subRun3</text>
</g>
<!-- 35&#45;&gt;36 -->
<g id="edge73" class="edge">
<title>35&#45;&gt;36</title>
<path fill="none" stroke="grey" stroke-width="2" d="M2070.16,-728.49C2131.34,-717.67 2238.48,-698.73 2317.73,-684.72"/>
<polygon fill="grey" stroke="grey" stroke-width="2" points="2318.51,-688.14 2327.74,-682.95 2317.29,-681.25 2318.51,-688.14"/>
</g>
<!-- 37 -->
<g id="node38" class="node">
<title>37</title>
<path fill="none" stroke="#567bd8" stroke-width="2" d="M1902,-684C1902,-684 1746,-684 1746,-684 1740,-684 1734,-678 1734,-672 1734,-672 1734,-660 1734,-660 1734,-654 1740,-648 1746,-648 1746,-648 1902,-648 1902,-648 1908,-648 1914,-654 1914,-660 1914,-660 1914,-672 1914,-672 1914,-678 1908,-684 1902,-684"/>
<text text-anchor="middle" x="1824" y="-663.5" font-family="sans" font-size="10.00">write_models_solution3_subRun3</text>
</g>
<!-- 35&#45;&gt;37 -->
<g id="edge74" class="edge">
<title>35&#45;&gt;37</title>
<path fill="none" stroke="grey" stroke-width="2" d="M1973.82,-719.97C1946.15,-710.19 1911.22,-697.84 1882.05,-687.52"/>
<polygon fill="grey" stroke="grey" stroke-width="2" points="1882.99,-684.14 1872.4,-684.11 1880.66,-690.74 1882.99,-684.14"/>
</g>
<!-- 38 -->
<g id="node39" class="node">
<title>38</title>
<path fill="none" stroke="#5663d8" stroke-width="2" d="M2100,-684C2100,-684 1944,-684 1944,-684 1938,-684 1932,-678 1932,-672 1932,-672 1932,-660 1932,-660 1932,-654 1938,-648 1944,-648 1944,-648 2100,-648 2100,-648 2106,-648 2112,-654 2112,-660 2112,-660 2112,-672 2112,-672 2112,-678 2106,-684 2100,-684"/>
<text text-anchor="middle" x="2022" y="-663.5" font-family="sans" font-size="10.00">write_models_solution4_subRun3</text>
</g>
<!-- 35&#45;&gt;38 -->
<g id="edge75" class="edge">
<title>35&#45;&gt;38</title>
<path fill="none" stroke="grey" stroke-width="2" d="M2022,-719.7C2022,-711.98 2022,-702.71 2022,-694.11"/>
<polygon fill="grey" stroke="grey" stroke-width="2" points="2025.5,-694.1 2022,-684.1 2018.5,-694.1 2025.5,-694.1"/>
</g>
<!-- 36&#45;&gt;33 -->
<g id="edge64" class="edge">
<title>36&#45;&gt;33</title>
<path fill="none" stroke="grey" stroke-width="2" d="M2327.93,-649.28C2324.92,-648.84 2321.94,-648.41 2319,-648 2180.86,-628.75 2020.14,-612.67 1920.48,-603.44"/>
<polygon fill="grey" stroke="grey" stroke-width="2" points="1920.71,-599.95 1910.43,-602.51 1920.07,-606.92 1920.71,-599.95"/>
</g>
<!-- 37&#45;&gt;33 -->
<g id="edge65" class="edge">
<title>37&#45;&gt;33</title>
<path fill="none" stroke="grey" stroke-width="2" d="M1824.25,-647.7C1824.36,-639.98 1824.49,-630.71 1824.61,-622.11"/>
<polygon fill="grey" stroke="grey" stroke-width="2" points="1828.11,-622.15 1824.76,-612.1 1821.11,-622.05 1828.11,-622.15"/>
</g>
<!-- 38&#45;&gt;33 -->
<g id="edge66" class="edge">
<title>38&#45;&gt;33</title>
<path fill="none" stroke="grey" stroke-width="2" d="M1974.06,-647.97C1946.53,-638.19 1911.78,-625.84 1882.76,-615.52"/>
<polygon fill="grey" stroke="grey" stroke-width="2" points="1883.75,-612.16 1873.15,-612.11 1881.41,-618.76 1883.75,-612.16"/>
</g>
<!-- 39&#45;&gt;33 -->
<g id="edge67" class="edge">
<title>39&#45;&gt;33</title>
<path fill="none" stroke="grey" stroke-width="2" d="M1558.39,-648.32C1609.97,-638.01 1676.35,-624.73 1729.96,-614.01"/>
<polygon fill="grey" stroke="grey" stroke-width="2" points="1730.7,-617.43 1739.82,-612.04 1729.33,-610.57 1730.7,-617.43"/>
</g>
<!-- 43 -->
<g id="node44" class="node">
<title>43</title>
<path fill="none" stroke="#d8c356" stroke-width="2" d="M1666,-612C1666,-612 1496,-612 1496,-612 1490,-612 1484,-606 1484,-600 1484,-600 1484,-588 1484,-588 1484,-582 1490,-576 1496,-576 1496,-576 1666,-576 1666,-576 1672,-576 1678,-582 1678,-588 1678,-588 1678,-600 1678,-600 1678,-606 1672,-612 1666,-612"/>
<text text-anchor="middle" x="1581" y="-591.5" font-family="sans" font-size="10.00">post_model_solution1_wtd_subRun2</text>
</g>
<!-- 39&#45;&gt;43 -->
<g id="edge80" class="edge">
<title>39&#45;&gt;43</title>
<path fill="none" stroke="grey" stroke-width="2" d="M1500.93,-647.88C1514.66,-638.81 1531.71,-627.55 1546.54,-617.76"/>
<polygon fill="grey" stroke="grey" stroke-width="2" points="1548.55,-620.62 1554.97,-612.19 1544.7,-614.78 1548.55,-620.62"/>
</g>
<!-- 44 -->
<g id="node45" class="node">
<title>44</title>
<path fill="none" stroke="#d8ac56" stroke-width="2" d="M1454,-612C1454,-612 1284,-612 1284,-612 1278,-612 1272,-606 1272,-600 1272,-600 1272,-588 1272,-588 1272,-582 1278,-576 1284,-576 1284,-576 1454,-576 1454,-576 1460,-576 1466,-582 1466,-588 1466,-588 1466,-600 1466,-600 1466,-606 1460,-612 1454,-612"/>
<text text-anchor="middle" x="1369" y="-591.5" font-family="sans" font-size="10.00">post_model_solution1_hds_subRun2</text>
</g>
<!-- 39&#45;&gt;44 -->
<g id="edge81" class="edge">
<title>39&#45;&gt;44</title>
<path fill="none" stroke="grey" stroke-width="2" d="M1449.07,-647.88C1435.34,-638.81 1418.29,-627.55 1403.46,-617.76"/>
<polygon fill="grey" stroke="grey" stroke-width="2" points="1405.3,-614.78 1395.03,-612.19 1401.45,-620.62 1405.3,-614.78"/>
</g>
<!-- 40&#45;&gt;33 -->
<g id="edge68" class="edge">
<title>40&#45;&gt;33</title>
<path fill="none" stroke="grey" stroke-width="2" d="M562.01,-657.5C601.11,-654.18 648.43,-650.48 691,-648 1133.21,-622.29 1245.44,-647.11 1687,-612 1700.75,-610.91 1715.23,-609.45 1729.44,-607.86"/>
<polygon fill="grey" stroke="grey" stroke-width="2" points="1730.19,-611.3 1739.72,-606.67 1729.39,-604.34 1730.19,-611.3"/>
</g>
<!-- 45 -->
<g id="node46" class="node">
<title>45</title>
<path fill="none" stroke="#b6d856" stroke-width="2" d="M394,-612C394,-612 224,-612 224,-612 218,-612 212,-606 212,-600 212,-600 212,-588 212,-588 212,-582 218,-576 224,-576 224,-576 394,-576 394,-576 400,-576 406,-582 406,-588 406,-588 406,-600 406,-600 406,-606 400,-612 394,-612"/>
<text text-anchor="middle" x="309" y="-591.5" font-family="sans" font-size="10.00">post_model_solution2_wtd_subRun2</text>
</g>
<!-- 40&#45;&gt;45 -->
<g id="edge82" class="edge">
<title>40&#45;&gt;45</title>
<path fill="none" stroke="grey" stroke-width="2" d="M437.41,-647.88C413.97,-638.22 384.5,-626.09 359.7,-615.88"/>
<polygon fill="grey" stroke="grey" stroke-width="2" points="361.03,-612.64 350.45,-612.07 358.37,-619.11 361.03,-612.64"/>
</g>
<!-- 46 -->
<g id="node47" class="node">
<title>46</title>
<path fill="none" stroke="#ced856" stroke-width="2" d="M182,-612C182,-612 12,-612 12,-612 6,-612 0,-606 0,-600 0,-600 0,-588 0,-588 0,-582 6,-576 12,-576 12,-576 182,-576 182,-576 188,-576 194,-582 194,-588 194,-588 194,-600 194,-600 194,-606 188,-612 182,-612"/>
<text text-anchor="middle" x="97" y="-591.5" font-family="sans" font-size="10.00">post_model_solution2_hds_subRun2</text>
</g>
<!-- 40&#45;&gt;46 -->
<g id="edge83" class="edge">
<title>40&#45;&gt;46</title>
<path fill="none" stroke="grey" stroke-width="2" d="M395.64,-649.72C338.14,-639.19 261.32,-625.11 199.99,-613.87"/>
<polygon fill="grey" stroke="grey" stroke-width="2" points="200.36,-610.38 189.9,-612.02 199.1,-617.27 200.36,-610.38"/>
</g>
<!-- 41&#45;&gt;33 -->
<g id="edge69" class="edge">
<title>41&#45;&gt;33</title>
<path fill="none" stroke="grey" stroke-width="2" d="M866.19,-658.51C910.38,-655.16 965.63,-651.13 1015,-648 1313.5,-629.07 1389.06,-638.3 1687,-612 1700.74,-610.79 1715.22,-609.27 1729.42,-607.64"/>
<polygon fill="grey" stroke="grey" stroke-width="2" points="1730.18,-611.08 1739.7,-606.44 1729.37,-604.13 1730.18,-611.08"/>
</g>
<!-- 47 -->
<g id="node48" class="node">
<title>47</title>
<path fill="none" stroke="#88d856" stroke-width="2" d="M606,-612C606,-612 436,-612 436,-612 430,-612 424,-606 424,-600 424,-600 424,-588 424,-588 424,-582 430,-576 436,-576 436,-576 606,-576 606,-576 612,-576 618,-582 618,-588 618,-588 618,-600 618,-600 618,-606 612,-612 606,-612"/>
<text text-anchor="middle" x="521" y="-591.5" font-family="sans" font-size="10.00">post_model_solution3_wtd_subRun2</text>
</g>
<!-- 41&#45;&gt;47 -->
<g id="edge84" class="edge">
<title>41&#45;&gt;47</title>
<path fill="none" stroke="grey" stroke-width="2" d="M719.24,-647.97C681.68,-637.93 634,-625.19 594.81,-614.72"/>
<polygon fill="grey" stroke="grey" stroke-width="2" points="595.61,-611.31 585.04,-612.11 593.8,-618.07 595.61,-611.31"/>
</g>
<!-- 48 -->
<g id="node49" class="node">
<title>48</title>
<path fill="none" stroke="#9fd856" stroke-width="2" d="M818,-612C818,-612 648,-612 648,-612 642,-612 636,-606 636,-600 636,-600 636,-588 636,-588 636,-582 642,-576 648,-576 648,-576 818,-576 818,-576 824,-576 830,-582 830,-588 830,-588 830,-600 830,-600 830,-606 824,-612 818,-612"/>
<text text-anchor="middle" x="733" y="-591.5" font-family="sans" font-size="10.00">post_model_solution3_hds_subRun2</text>
</g>
<!-- 41&#45;&gt;48 -->
<g id="edge85" class="edge">
<title>41&#45;&gt;48</title>
<path fill="none" stroke="grey" stroke-width="2" d="M770.64,-647.7C764.77,-639.47 757.63,-629.48 751.16,-620.42"/>
<polygon fill="grey" stroke="grey" stroke-width="2" points="753.88,-618.21 745.22,-612.1 748.18,-622.28 753.88,-618.21"/>
</g>
<!-- 42&#45;&gt;33 -->
<g id="edge70" class="edge">
<title>42&#45;&gt;33</title>
<path fill="none" stroke="grey" stroke-width="2" d="M1190.16,-658.23C1302.86,-648.86 1510.31,-630.95 1687,-612 1700.71,-610.53 1715.18,-608.87 1729.38,-607.18"/>
<polygon fill="grey" stroke="grey" stroke-width="2" points="1730.14,-610.61 1739.66,-605.94 1729.31,-603.66 1730.14,-610.61"/>
</g>
<!-- 49 -->
<g id="node50" class="node">
<title>49</title>
<path fill="none" stroke="#56d85b" stroke-width="2" d="M1030,-612C1030,-612 860,-612 860,-612 854,-612 848,-606 848,-600 848,-600 848,-588 848,-588 848,-582 854,-576 860,-576 860,-576 1030,-576 1030,-576 1036,-576 1042,-582 1042,-588 1042,-588 1042,-600 1042,-600 1042,-606 1036,-612 1030,-612"/>
<text text-anchor="middle" x="945" y="-591.5" font-family="sans" font-size="10.00">post_model_solution4_wtd_subRun2</text>
</g>
<!-- 42&#45;&gt;49 -->
<g id="edge86" class="edge">
<title>42&#45;&gt;49</title>
<path fill="none" stroke="grey" stroke-width="2" d="M1067.37,-647.88C1045.22,-638.31 1017.44,-626.3 993.94,-616.15"/>
<polygon fill="grey" stroke="grey" stroke-width="2" points="995.07,-612.82 984.5,-612.07 992.29,-619.25 995.07,-612.82"/>
</g>
<!-- 50 -->
<g id="node51" class="node">
<title>50</title>
<path fill="none" stroke="#68d856" stroke-width="2" d="M1242,-612C1242,-612 1072,-612 1072,-612 1066,-612 1060,-606 1060,-600 1060,-600 1060,-588 1060,-588 1060,-582 1066,-576 1072,-576 1072,-576 1242,-576 1242,-576 1248,-576 1254,-582 1254,-588 1254,-588 1254,-600 1254,-600 1254,-606 1248,-612 1242,-612"/>
<text text-anchor="middle" x="1157" y="-591.5" font-family="sans" font-size="10.00">post_model_solution4_hds_subRun2</text>
</g>
<!-- 42&#45;&gt;50 -->
<g id="edge87" class="edge">
<title>42&#45;&gt;50</title>
<path fill="none" stroke="grey" stroke-width="2" d="M1119.36,-647.7C1125.23,-639.47 1132.37,-629.48 1138.84,-620.42"/>
<polygon fill="grey" stroke="grey" stroke-width="2" points="1141.82,-622.28 1144.78,-612.1 1136.12,-618.21 1141.82,-622.28"/>
</g>
<!-- 43&#45;&gt;32 -->
<g id="edge55" class="edge">
<title>43&#45;&gt;32</title>
<path fill="none" stroke="grey" stroke-width="2" d="M1483.99,-577.21C1480.96,-576.79 1477.96,-576.38 1475,-576 1307.17,-554.17 1108.41,-536.46 1008.74,-528.14"/>
<polygon fill="grey" stroke="grey" stroke-width="2" points="1008.79,-524.64 998.53,-527.3 1008.21,-531.61 1008.79,-524.64"/>
</g>
<!-- 44&#45;&gt;32 -->
<g id="edge56" class="edge">
<title>44&#45;&gt;32</title>
<path fill="none" stroke="grey" stroke-width="2" d="M1271.99,-576.98C1191.14,-563.64 1078.3,-545.01 1008.53,-533.49"/>
<polygon fill="grey" stroke="grey" stroke-width="2" points="1009,-530.02 998.56,-531.84 1007.86,-536.93 1009,-530.02"/>
</g>
<!-- 45&#45;&gt;32 -->
<g id="edge57" class="edge">
<title>45&#45;&gt;32</title>
<path fill="none" stroke="grey" stroke-width="2" d="M406.01,-577.21C409.04,-576.79 412.04,-576.38 415,-576 582.83,-554.17 781.59,-536.46 881.26,-528.14"/>
<polygon fill="grey" stroke="grey" stroke-width="2" points="881.79,-531.61 891.47,-527.3 881.21,-524.64 881.79,-531.61"/>
</g>
<!-- 46&#45;&gt;32 -->
<g id="edge58" class="edge">
<title>46&#45;&gt;32</title>
<path fill="none" stroke="grey" stroke-width="2" d="M194.28,-577.06C197.22,-576.69 200.13,-576.33 203,-576 453.13,-547.07 752.65,-531.46 881.24,-525.67"/>
<polygon fill="grey" stroke="grey" stroke-width="2" points="881.48,-529.16 891.31,-525.22 881.16,-522.17 881.48,-529.16"/>
</g>
<!-- 47&#45;&gt;32 -->
<g id="edge59" class="edge">
<title>47&#45;&gt;32</title>
<path fill="none" stroke="grey" stroke-width="2" d="M618.01,-576.98C698.86,-563.64 811.7,-545.01 881.47,-533.49"/>
<polygon fill="grey" stroke="grey" stroke-width="2" points="882.14,-536.93 891.44,-531.84 881,-530.02 882.14,-536.93"/>
</g>
<!-- 48&#45;&gt;32 -->
<g id="edge60" class="edge">
<title>48&#45;&gt;32</title>
<path fill="none" stroke="grey" stroke-width="2" d="M784.59,-575.97C814.47,-566.1 852.26,-553.62 883.66,-543.25"/>
<polygon fill="grey" stroke="grey" stroke-width="2" points="884.78,-546.57 893.18,-540.11 882.59,-539.92 884.78,-546.57"/>
</g>
<!-- 49&#45;&gt;32 -->
<g id="edge61" class="edge">
<title>49&#45;&gt;32</title>
<path fill="none" stroke="grey" stroke-width="2" d="M945,-575.7C945,-567.98 945,-558.71 945,-550.11"/>
<polygon fill="grey" stroke="grey" stroke-width="2" points="948.5,-550.1 945,-540.1 941.5,-550.1 948.5,-550.1"/>
</g>
<!-- 50&#45;&gt;32 -->
<g id="edge62" class="edge">
<title>50&#45;&gt;32</title>
<path fill="none" stroke="grey" stroke-width="2" d="M1105.41,-575.97C1075.53,-566.1 1037.74,-553.62 1006.34,-543.25"/>
<polygon fill="grey" stroke="grey" stroke-width="2" points="1007.41,-539.92 996.82,-540.11 1005.22,-546.57 1007.41,-539.92"/>
</g>
<!-- 51 -->
<g id="node52" class="node">
<title>51</title>
<path fill="none" stroke="#d88556" stroke-width="2" d="M2396.5,-252C2396.5,-252 2313.5,-252 2313.5,-252 2307.5,-252 2301.5,-246 2301.5,-240 2301.5,-240 2301.5,-228 2301.5,-228 2301.5,-222 2307.5,-216 2313.5,-216 2313.5,-216 2396.5,-216 2396.5,-216 2402.5,-216 2408.5,-222 2408.5,-228 2408.5,-228 2408.5,-240 2408.5,-240 2408.5,-246 2402.5,-252 2396.5,-252"/>
<text text-anchor="middle" x="2355" y="-231.5" font-family="sans" font-size="10.00">clean_up_subRun3</text>
</g>
<!-- 51&#45;&gt;0 -->
<g id="edge3" class="edge">
<title>51&#45;&gt;0</title>
<path fill="none" stroke="grey" stroke-width="2" d="M2329.3,-215.75C2277.71,-182.03 2156.78,-107.57 2044,-72 1916.9,-31.91 1757.45,-22.14 1686.28,-19.77"/>
<polygon fill="grey" stroke="grey" stroke-width="2" points="1686.14,-16.26 1676.04,-19.45 1685.93,-23.26 1686.14,-16.26"/>
</g>
<!-- 52 -->
<g id="node53" class="node">
<title>52</title>
<path fill="none" stroke="#d8a456" stroke-width="2" d="M1660,-324C1660,-324 1514,-324 1514,-324 1508,-324 1502,-318 1502,-312 1502,-312 1502,-300 1502,-300 1502,-294 1508,-288 1514,-288 1514,-288 1660,-288 1660,-288 1666,-288 1672,-294 1672,-300 1672,-300 1672,-312 1672,-312 1672,-318 1666,-324 1660,-324"/>
<text text-anchor="middle" x="1587" y="-303.5" font-family="sans" font-size="10.00">modify_ini_conditions_subRun4</text>
</g>
<!-- 52&#45;&gt;51 -->
<g id="edge88" class="edge">
<title>52&#45;&gt;51</title>
<path fill="none" stroke="grey" stroke-width="2" d="M1672.14,-293.46C1687.72,-291.52 1703.84,-289.61 1719,-288 1928.1,-265.83 2176.68,-247.41 2291.31,-239.36"/>
<polygon fill="grey" stroke="grey" stroke-width="2" points="2291.59,-242.84 2301.32,-238.66 2291.1,-235.86 2291.59,-242.84"/>
</g>
<!-- 72 -->
<g id="node73" class="node">
<title>72</title>
<path fill="none" stroke="#56d882" stroke-width="2" d="M1552,-252C1552,-252 1410,-252 1410,-252 1404,-252 1398,-246 1398,-240 1398,-240 1398,-228 1398,-228 1398,-222 1404,-216 1410,-216 1410,-216 1552,-216 1552,-216 1558,-216 1564,-222 1564,-228 1564,-228 1564,-240 1564,-240 1564,-246 1558,-252 1552,-252"/>
<text text-anchor="middle" x="1481" y="-231.5" font-family="sans" font-size="10.00">run_model_solution1_subRun4</text>
</g>
<!-- 52&#45;&gt;72 -->
<g id="edge131" class="edge">
<title>52&#45;&gt;72</title>
<path fill="none" stroke="grey" stroke-width="2" d="M1561.07,-287.88C1547.34,-278.81 1530.29,-267.55 1515.46,-257.76"/>
<polygon fill="grey" stroke="grey" stroke-width="2" points="1517.3,-254.78 1507.03,-252.19 1513.45,-260.62 1517.3,-254.78"/>
</g>
<!-- 75 -->
<g id="node76" class="node">
<title>75</title>
<path fill="none" stroke="#56d8a2" stroke-width="2" d="M1764,-252C1764,-252 1622,-252 1622,-252 1616,-252 1610,-246 1610,-240 1610,-240 1610,-228 1610,-228 1610,-222 1616,-216 1622,-216 1622,-216 1764,-216 1764,-216 1770,-216 1776,-222 1776,-228 1776,-228 1776,-240 1776,-240 1776,-246 1770,-252 1764,-252"/>
<text text-anchor="middle" x="1693" y="-231.5" font-family="sans" font-size="10.00">run_model_solution2_subRun4</text>
</g>
<!-- 52&#45;&gt;75 -->
<g id="edge134" class="edge">
<title>52&#45;&gt;75</title>
<path fill="none" stroke="grey" stroke-width="2" d="M1612.93,-287.88C1626.66,-278.81 1643.71,-267.55 1658.54,-257.76"/>
<polygon fill="grey" stroke="grey" stroke-width="2" points="1660.55,-260.62 1666.97,-252.19 1656.7,-254.78 1660.55,-260.62"/>
</g>
<!-- 78 -->
<g id="node79" class="node">
<title>78</title>
<path fill="none" stroke="#56d8b9" stroke-width="2" d="M1128,-252C1128,-252 986,-252 986,-252 980,-252 974,-246 974,-240 974,-240 974,-228 974,-228 974,-222 980,-216 986,-216 986,-216 1128,-216 1128,-216 1134,-216 1140,-222 1140,-228 1140,-228 1140,-240 1140,-240 1140,-246 1134,-252 1128,-252"/>
<text text-anchor="middle" x="1057" y="-231.5" font-family="sans" font-size="10.00">run_model_solution3_subRun4</text>
</g>
<!-- 52&#45;&gt;78 -->
<g id="edge137" class="edge">
<title>52&#45;&gt;78</title>
<path fill="none" stroke="grey" stroke-width="2" d="M1501.85,-293.75C1405.66,-281.05 1249.62,-260.44 1150.23,-247.31"/>
<polygon fill="grey" stroke="grey" stroke-width="2" points="1150.57,-243.83 1140.19,-245.99 1149.65,-250.77 1150.57,-243.83"/>
</g>
<!-- 81 -->
<g id="node82" class="node">
<title>81</title>
<path fill="none" stroke="#56d8d0" stroke-width="2" d="M704,-252C704,-252 562,-252 562,-252 556,-252 550,-246 550,-240 550,-240 550,-228 550,-228 550,-222 556,-216 562,-216 562,-216 704,-216 704,-216 710,-216 716,-222 716,-228 716,-228 716,-240 716,-240 716,-246 710,-252 704,-252"/>
<text text-anchor="middle" x="633" y="-231.5" font-family="sans" font-size="10.00">run_model_solution4_subRun4</text>
</g>
<!-- 52&#45;&gt;81 -->
<g id="edge140" class="edge">
<title>52&#45;&gt;81</title>
<path fill="none" stroke="grey" stroke-width="2" d="M1501.92,-298.76C1323.44,-285.66 911.17,-255.41 726,-241.82"/>
<polygon fill="grey" stroke="grey" stroke-width="2" points="726.25,-238.33 716.02,-241.09 725.73,-245.31 726.25,-238.33"/>
</g>
<!-- 53 -->
<g id="node54" class="node">
<title>53</title>
<path fill="none" stroke="#56a9d8" stroke-width="2" d="M1270,-396C1270,-396 1114,-396 1114,-396 1108,-396 1102,-390 1102,-384 1102,-384 1102,-372 1102,-372 1102,-366 1108,-360 1114,-360 1114,-360 1270,-360 1270,-360 1276,-360 1282,-366 1282,-372 1282,-372 1282,-384 1282,-384 1282,-390 1276,-396 1270,-396"/>
<text text-anchor="middle" x="1192" y="-375.5" font-family="sans" font-size="10.00">write_models_solution1_subRun4</text>
</g>
<!-- 53&#45;&gt;52 -->
<g id="edge97" class="edge">
<title>53&#45;&gt;52</title>
<path fill="none" stroke="grey" stroke-width="2" d="M1282.13,-361.03C1344.8,-349.92 1428.21,-335.14 1491.94,-323.85"/>
<polygon fill="grey" stroke="grey" stroke-width="2" points="1492.76,-327.26 1502,-322.06 1491.54,-320.36 1492.76,-327.26"/>
</g>
<!-- 54&#45;&gt;53 -->
<g id="edge105" class="edge">
<title>54&#45;&gt;53</title>
<path fill="none" stroke="grey" stroke-width="2" d="M1192,-431.7C1192,-423.98 1192,-414.71 1192,-406.11"/>
<polygon fill="grey" stroke="grey" stroke-width="2" points="1195.5,-406.1 1192,-396.1 1188.5,-406.1 1195.5,-406.1"/>
</g>
<!-- 55 -->
<g id="node56" class="node">
<title>55</title>
<path fill="none" stroke="#5692d8" stroke-width="2" d="M1468,-396C1468,-396 1312,-396 1312,-396 1306,-396 1300,-390 1300,-384 1300,-384 1300,-372 1300,-372 1300,-366 1306,-360 1312,-360 1312,-360 1468,-360 1468,-360 1474,-360 1480,-366 1480,-372 1480,-372 1480,-384 1480,-384 1480,-390 1474,-396 1468,-396"/>
<text text-anchor="middle" x="1390" y="-375.5" font-family="sans" font-size="10.00">write_models_solution2_subRun4</text>
</g>
<!-- 54&#45;&gt;55 -->
<g id="edge107" class="edge">
<title>54&#45;&gt;55</title>
<path fill="none" stroke="grey" stroke-width="2" d="M1240.18,-431.97C1267.85,-422.19 1302.78,-409.84 1331.95,-399.52"/>
<polygon fill="grey" stroke="grey" stroke-width="2" points="1333.34,-402.74 1341.6,-396.11 1331.01,-396.14 1333.34,-402.74"/>
</g>
<!-- 56 -->
<g id="node57" class="node">
<title>56</title>
<path fill="none" stroke="#5673d8" stroke-width="2" d="M1666,-396C1666,-396 1510,-396 1510,-396 1504,-396 1498,-390 1498,-384 1498,-384 1498,-372 1498,-372 1498,-366 1504,-360 1510,-360 1510,-360 1666,-360 1666,-360 1672,-360 1678,-366 1678,-372 1678,-372 1678,-384 1678,-384 1678,-390 1672,-396 1666,-396"/>
<text text-anchor="middle" x="1588" y="-375.5" font-family="sans" font-size="10.00">write_models_solution3_subRun4</text>
</g>
<!-- 54&#45;&gt;56 -->
<g id="edge108" class="edge">
<title>54&#45;&gt;56</title>
<path fill="none" stroke="grey" stroke-width="2" d="M1240.16,-440.49C1301.34,-429.67 1408.48,-410.73 1487.73,-396.72"/>
<polygon fill="grey" stroke="grey" stroke-width="2" points="1488.51,-400.14 1497.74,-394.95 1487.29,-393.25 1488.51,-400.14"/>
</g>
<!-- 57 -->
<g id="node58" class="node">
<title>57</title>
<path fill="none" stroke="#565bd8" stroke-width="2" d="M1072,-396C1072,-396 916,-396 916,-396 910,-396 904,-390 904,-384 904,-384 904,-372 904,-372 904,-366 910,-360 916,-360 916,-360 1072,-360 1072,-360 1078,-360 1084,-366 1084,-372 1084,-372 1084,-384 1084,-384 1084,-390 1078,-396 1072,-396"/>
<text text-anchor="middle" x="994" y="-375.5" font-family="sans" font-size="10.00">write_models_solution4_subRun4</text>
</g>
<!-- 54&#45;&gt;57 -->
<g id="edge109" class="edge">
<title>54&#45;&gt;57</title>
<path fill="none" stroke="grey" stroke-width="2" d="M1143.82,-431.97C1116.15,-422.19 1081.22,-409.84 1052.05,-399.52"/>
<polygon fill="grey" stroke="grey" stroke-width="2" points="1052.99,-396.14 1042.4,-396.11 1050.66,-402.74 1052.99,-396.14"/>
</g>
<!-- 55&#45;&gt;52 -->
<g id="edge98" class="edge">
<title>55&#45;&gt;52</title>
<path fill="none" stroke="grey" stroke-width="2" d="M1437.94,-359.97C1465.47,-350.19 1500.22,-337.84 1529.24,-327.52"/>
<polygon fill="grey" stroke="grey" stroke-width="2" points="1530.59,-330.76 1538.85,-324.11 1528.25,-324.16 1530.59,-330.76"/>
</g>
<!-- 56&#45;&gt;52 -->
<g id="edge99" class="edge">
<title>56&#45;&gt;52</title>
<path fill="none" stroke="grey" stroke-width="2" d="M1587.75,-359.7C1587.64,-351.98 1587.51,-342.71 1587.39,-334.11"/>
<polygon fill="grey" stroke="grey" stroke-width="2" points="1590.89,-334.05 1587.24,-324.1 1583.89,-334.15 1590.89,-334.05"/>
</g>
<!-- 57&#45;&gt;52 -->
<g id="edge100" class="edge">
<title>57&#45;&gt;52</title>
<path fill="none" stroke="grey" stroke-width="2" d="M1084.07,-361.28C1087.08,-360.84 1090.06,-360.41 1093,-360 1231.14,-340.75 1391.86,-324.67 1491.52,-315.44"/>
<polygon fill="grey" stroke="grey" stroke-width="2" points="1491.93,-318.92 1501.57,-314.51 1491.29,-311.95 1491.93,-318.92"/>
</g>
<!-- 58&#45;&gt;52 -->
<g id="edge101" class="edge">
<title>58&#45;&gt;52</title>
<path fill="none" stroke="grey" stroke-width="2" d="M2737.99,-371.4C2684.14,-367.87 2612.43,-363.36 2549,-360 2180.28,-340.48 2086.88,-355.61 1719,-324 1707.13,-322.98 1694.69,-321.68 1682.38,-320.26"/>
<polygon fill="grey" stroke="grey" stroke-width="2" points="1682.44,-316.74 1672.09,-319.04 1681.61,-323.69 1682.44,-316.74"/>
</g>
<!-- 62 -->
<g id="node63" class="node">
<title>62</title>
<path fill="none" stroke="#d8cb56" stroke-width="2" d="M3394,-324C3394,-324 3224,-324 3224,-324 3218,-324 3212,-318 3212,-312 3212,-312 3212,-300 3212,-300 3212,-294 3218,-288 3224,-288 3224,-288 3394,-288 3394,-288 3400,-288 3406,-294 3406,-300 3406,-300 3406,-312 3406,-312 3406,-318 3400,-324 3394,-324"/>
<text text-anchor="middle" x="3309" y="-303.5" font-family="sans" font-size="10.00">post_model_solution1_wtd_subRun3</text>
</g>
<!-- 58&#45;&gt;62 -->
<g id="edge114" class="edge">
<title>58&#45;&gt;62</title>
<path fill="none" stroke="grey" stroke-width="2" d="M2904.16,-365.98C2979.25,-355.91 3093.05,-340.35 3201.8,-324.16"/>
<polygon fill="grey" stroke="grey" stroke-width="2" points="3202.59,-327.58 3211.97,-322.65 3201.56,-320.66 3202.59,-327.58"/>
</g>
<!-- 63 -->
<g id="node64" class="node">
<title>63</title>
<path fill="none" stroke="#d8b456" stroke-width="2" d="M3182,-324C3182,-324 3012,-324 3012,-324 3006,-324 3000,-318 3000,-312 3000,-312 3000,-300 3000,-300 3000,-294 3006,-288 3012,-288 3012,-288 3182,-288 3182,-288 3188,-288 3194,-294 3194,-300 3194,-300 3194,-312 3194,-312 3194,-318 3188,-324 3182,-324"/>
<text text-anchor="middle" x="3097" y="-303.5" font-family="sans" font-size="10.00">post_model_solution1_hds_subRun3</text>
</g>
<!-- 58&#45;&gt;63 -->
<g id="edge115" class="edge">
<title>58&#45;&gt;63</title>
<path fill="none" stroke="grey" stroke-width="2" d="M2888.16,-359.97C2927.9,-349.89 2978.39,-337.08 3019.77,-326.59"/>
<polygon fill="grey" stroke="grey" stroke-width="2" points="3020.7,-329.96 3029.53,-324.11 3018.98,-323.18 3020.7,-329.96"/>
</g>
<!-- 59&#45;&gt;52 -->
<g id="edge102" class="edge">
<title>59&#45;&gt;52</title>
<path fill="none" stroke="grey" stroke-width="2" d="M1767.08,-359.97C1733.25,-350.01 1690.38,-337.41 1654.96,-326.99"/>
<polygon fill="grey" stroke="grey" stroke-width="2" points="1655.76,-323.57 1645.18,-324.11 1653.78,-330.29 1655.76,-323.57"/>
</g>
<!-- 64 -->
<g id="node65" class="node">
<title>64</title>
<path fill="none" stroke="#afd856" stroke-width="2" d="M1910,-324C1910,-324 1740,-324 1740,-324 1734,-324 1728,-318 1728,-312 1728,-312 1728,-300 1728,-300 1728,-294 1734,-288 1740,-288 1740,-288 1910,-288 1910,-288 1916,-288 1922,-294 1922,-300 1922,-300 1922,-312 1922,-312 1922,-318 1916,-324 1910,-324"/>
<text text-anchor="middle" x="1825" y="-303.5" font-family="sans" font-size="10.00">post_model_solution2_wtd_subRun3</text>
</g>
<!-- 59&#45;&gt;64 -->
<g id="edge116" class="edge">
<title>59&#45;&gt;64</title>
<path fill="none" stroke="grey" stroke-width="2" d="M1825,-359.7C1825,-351.98 1825,-342.71 1825,-334.11"/>
<polygon fill="grey" stroke="grey" stroke-width="2" points="1828.5,-334.1 1825,-324.1 1821.5,-334.1 1828.5,-334.1"/>
</g>
<!-- 65 -->
<g id="node66" class="node">
<title>65</title>
<path fill="none" stroke="#ced856" stroke-width="2" d="M2122,-324C2122,-324 1952,-324 1952,-324 1946,-324 1940,-318 1940,-312 1940,-312 1940,-300 1940,-300 1940,-294 1946,-288 1952,-288 1952,-288 2122,-288 2122,-288 2128,-288 2134,-294 2134,-300 2134,-300 2134,-312 2134,-312 2134,-318 2128,-324 2122,-324"/>
<text text-anchor="middle" x="2037" y="-303.5" font-family="sans" font-size="10.00">post_model_solution2_hds_subRun3</text>
</g>
<!-- 59&#45;&gt;65 -->
<g id="edge117" class="edge">
<title>59&#45;&gt;65</title>
<path fill="none" stroke="grey" stroke-width="2" d="M1876.59,-359.97C1906.47,-350.1 1944.26,-337.62 1975.66,-327.25"/>
<polygon fill="grey" stroke="grey" stroke-width="2" points="1976.78,-330.57 1985.18,-324.11 1974.59,-323.92 1976.78,-330.57"/>
</g>
<!-- 60&#45;&gt;52 -->
<g id="edge103" class="edge">
<title>60&#45;&gt;52</title>
<path fill="none" stroke="grey" stroke-width="2" d="M2069.78,-367C1982.4,-356.46 1841.01,-339.31 1719,-324 1707.18,-322.52 1694.76,-320.94 1682.48,-319.37"/>
<polygon fill="grey" stroke="grey" stroke-width="2" points="1682.56,-315.85 1672.2,-318.06 1681.67,-322.8 1682.56,-315.85"/>
</g>
<!-- 66 -->
<g id="node67" class="node">
<title>66</title>
<path fill="none" stroke="#80d856" stroke-width="2" d="M2334,-324C2334,-324 2164,-324 2164,-324 2158,-324 2152,-318 2152,-312 2152,-312 2152,-300 2152,-300 2152,-294 2158,-288 2164,-288 2164,-288 2334,-288 2334,-288 2340,-288 2346,-294 2346,-300 2346,-300 2346,-312 2346,-312 2346,-318 2340,-324 2334,-324"/>
<text text-anchor="middle" x="2249" y="-303.5" font-family="sans" font-size="10.00">post_model_solution3_wtd_subRun3</text>
</g>
<!-- 60&#45;&gt;66 -->
<g id="edge118" class="edge">
<title>60&#45;&gt;66</title>
<path fill="none" stroke="grey" stroke-width="2" d="M2176.73,-359.7C2188.94,-350.8 2203.99,-339.82 2217.18,-330.2"/>
<polygon fill="grey" stroke="grey" stroke-width="2" points="2219.52,-332.82 2225.54,-324.1 2215.4,-327.17 2219.52,-332.82"/>
</g>
<!-- 67 -->
<g id="node68" class="node">
<title>67</title>
<path fill="none" stroke="#97d856" stroke-width="2" d="M2546,-324C2546,-324 2376,-324 2376,-324 2370,-324 2364,-318 2364,-312 2364,-312 2364,-300 2364,-300 2364,-294 2370,-288 2376,-288 2376,-288 2546,-288 2546,-288 2552,-288 2558,-294 2558,-300 2558,-300 2558,-312 2558,-312 2558,-318 2552,-324 2546,-324"/>
<text text-anchor="middle" x="2461" y="-303.5" font-family="sans" font-size="10.00">post_model_solution3_hds_subRun3</text>
</g>
<!-- 60&#45;&gt;67 -->
<g id="edge119" class="edge">
<title>60&#45;&gt;67</title>
<path fill="none" stroke="grey" stroke-width="2" d="M2227.95,-359.97C2272.66,-349.8 2329.56,-336.87 2375.95,-326.33"/>
<polygon fill="grey" stroke="grey" stroke-width="2" points="2377,-329.68 2385.98,-324.05 2375.45,-322.85 2377,-329.68"/>
</g>
<!-- 61&#45;&gt;52 -->
<g id="edge104" class="edge">
<title>61&#45;&gt;52</title>
<path fill="none" stroke="grey" stroke-width="2" d="M2373.95,-370.11C2334.84,-366.93 2287.53,-363.16 2245,-360 2011.32,-342.63 1952.2,-346.98 1719,-324 1707.14,-322.83 1694.71,-321.44 1682.41,-319.97"/>
<polygon fill="grey" stroke="grey" stroke-width="2" points="1682.47,-316.46 1672.12,-318.72 1681.63,-323.4 1682.47,-316.46"/>
</g>
<!-- 68 -->
<g id="node69" class="node">
<title>68</title>
<path fill="none" stroke="#56d863" stroke-width="2" d="M2758,-324C2758,-324 2588,-324 2588,-324 2582,-324 2576,-318 2576,-312 2576,-312 2576,-300 2576,-300 2576,-294 2582,-288 2588,-288 2588,-288 2758,-288 2758,-288 2764,-288 2770,-294 2770,-300 2770,-300 2770,-312 2770,-312 2770,-318 2764,-324 2758,-324"/>
<text text-anchor="middle" x="2673" y="-303.5" font-family="sans" font-size="10.00">post_model_solution4_wtd_subRun3</text>
</g>
<!-- 61&#45;&gt;68 -->
<g id="edge120" class="edge">
<title>61&#45;&gt;68</title>
<path fill="none" stroke="grey" stroke-width="2" d="M2509.56,-359.97C2540.01,-350.1 2578.51,-337.62 2610.5,-327.25"/>
<polygon fill="grey" stroke="grey" stroke-width="2" points="2611.77,-330.52 2620.2,-324.11 2609.61,-323.86 2611.77,-330.52"/>
</g>
<!-- 69 -->
<g id="node70" class="node">
<title>69</title>
<path fill="none" stroke="#68d856" stroke-width="2" d="M2970,-324C2970,-324 2800,-324 2800,-324 2794,-324 2788,-318 2788,-312 2788,-312 2788,-300 2788,-300 2788,-294 2794,-288 2800,-288 2800,-288 2970,-288 2970,-288 2976,-288 2982,-294 2982,-300 2982,-300 2982,-312 2982,-312 2982,-318 2976,-324 2970,-324"/>
<text text-anchor="middle" x="2885" y="-303.5" font-family="sans" font-size="10.00">post_model_solution4_hds_subRun3</text>
</g>
<!-- 61&#45;&gt;69 -->
<g id="edge121" class="edge">
<title>61&#45;&gt;69</title>
<path fill="none" stroke="grey" stroke-width="2" d="M2540.03,-363.42C2607.83,-352.33 2704.11,-336.58 2777.74,-324.54"/>
<polygon fill="grey" stroke="grey" stroke-width="2" points="2778.67,-327.94 2787.98,-322.87 2777.54,-321.03 2778.67,-327.94"/>
</g>
<!-- 62&#45;&gt;51 -->
<g id="edge89" class="edge">
<title>62&#45;&gt;51</title>
<path fill="none" stroke="grey" stroke-width="2" d="M3211.72,-289.02C3208.78,-288.66 3205.87,-288.32 3203,-288 2911.22,-255.56 2560.6,-241.53 2418.97,-236.89"/>
<polygon fill="grey" stroke="grey" stroke-width="2" points="2418.84,-233.38 2408.73,-236.56 2418.61,-240.38 2418.84,-233.38"/>
</g>
<!-- 63&#45;&gt;51 -->
<g id="edge90" class="edge">
<title>63&#45;&gt;51</title>
<path fill="none" stroke="grey" stroke-width="2" d="M3000,-289.14C2996.96,-288.74 2993.96,-288.36 2991,-288 2782.27,-262.6 2533.51,-245.73 2418.76,-238.71"/>
<polygon fill="grey" stroke="grey" stroke-width="2" points="2418.94,-235.21 2408.75,-238.1 2418.51,-242.2 2418.94,-235.21"/>
</g>
<!-- 64&#45;&gt;51 -->
<g id="edge91" class="edge">
<title>64&#45;&gt;51</title>
<path fill="none" stroke="grey" stroke-width="2" d="M1922.03,-289.3C1925.05,-288.86 1928.05,-288.42 1931,-288 2058.61,-269.8 2208.31,-251.89 2291.34,-242.26"/>
<polygon fill="grey" stroke="grey" stroke-width="2" points="2291.84,-245.73 2301.37,-241.1 2291.04,-238.77 2291.84,-245.73"/>
</g>
<!-- 65&#45;&gt;51 -->
<g id="edge92" class="edge">
<title>65&#45;&gt;51</title>
<path fill="none" stroke="grey" stroke-width="2" d="M2114.38,-287.97C2168.68,-276.01 2240.39,-260.23 2291.36,-249.01"/>
<polygon fill="grey" stroke="grey" stroke-width="2" points="2292.25,-252.4 2301.27,-246.83 2290.75,-245.56 2292.25,-252.4"/>
</g>
<!-- 66&#45;&gt;51 -->
<g id="edge93" class="edge">
<title>66&#45;&gt;51</title>
<path fill="none" stroke="grey" stroke-width="2" d="M2274.93,-287.88C2288.66,-278.81 2305.71,-267.55 2320.54,-257.76"/>
<polygon fill="grey" stroke="grey" stroke-width="2" points="2322.55,-260.62 2328.97,-252.19 2318.7,-254.78 2322.55,-260.62"/>
</g>
<!-- 67&#45;&gt;51 -->
<g id="edge94" class="edge">
<title>67&#45;&gt;51</title>
<path fill="none" stroke="grey" stroke-width="2" d="M2435.07,-287.88C2421.34,-278.81 2404.29,-267.55 2389.46,-257.76"/>
<polygon fill="grey" stroke="grey" stroke-width="2" points="2391.3,-254.78 2381.03,-252.19 2387.45,-260.62 2391.3,-254.78"/>
</g>
<!-- 68&#45;&gt;51 -->
<g id="edge95" class="edge">
<title>68&#45;&gt;51</title>
<path fill="none" stroke="grey" stroke-width="2" d="M2595.62,-287.97C2541.32,-276.01 2469.61,-260.23 2418.64,-249.01"/>
<polygon fill="grey" stroke="grey" stroke-width="2" points="2419.25,-245.56 2408.73,-246.83 2417.75,-252.4 2419.25,-245.56"/>
</g>
<!-- 69&#45;&gt;51 -->
<g id="edge96" class="edge">
<title>69&#45;&gt;51</title>
<path fill="none" stroke="grey" stroke-width="2" d="M2787.97,-289.3C2784.95,-288.86 2781.95,-288.42 2779,-288 2651.39,-269.8 2501.69,-251.89 2418.66,-242.26"/>
<polygon fill="grey" stroke="grey" stroke-width="2" points="2418.96,-238.77 2408.63,-241.1 2418.16,-245.73 2418.96,-238.77"/>
</g>
<!-- 70 -->
<g id="node71" class="node">
<title>70</title>
<path fill="none" stroke="#d88556" stroke-width="2" d="M1310.5,-108C1310.5,-108 1227.5,-108 1227.5,-108 1221.5,-108 1215.5,-102 1215.5,-96 1215.5,-96 1215.5,-84 1215.5,-84 1215.5,-78 1221.5,-72 1227.5,-72 1227.5,-72 1310.5,-72 1310.5,-72 1316.5,-72 1322.5,-78 1322.5,-84 1322.5,-84 1322.5,-96 1322.5,-96 1322.5,-102 1316.5,-108 1310.5,-108"/>
<text text-anchor="middle" x="1269" y="-87.5" font-family="sans" font-size="10.00">clean_up_subRun4</text>
</g>
<!-- 70&#45;&gt;0 -->
<g id="edge4" class="edge">
<title>70&#45;&gt;0</title>
<path fill="none" stroke="grey" stroke-width="2" d="M1322.64,-79.12C1400.71,-64.74 1543.69,-38.4 1611.46,-25.92"/>
<polygon fill="grey" stroke="grey" stroke-width="2" points="1612.47,-29.29 1621.67,-24.03 1611.2,-22.4 1612.47,-29.29"/>
</g>
<!-- 71 -->
<g id="node72" class="node">
<title>71</title>
<path fill="none" stroke="#d8d356" stroke-width="2" d="M1566,-180C1566,-180 1396,-180 1396,-180 1390,-180 1384,-174 1384,-168 1384,-168 1384,-156 1384,-156 1384,-150 1390,-144 1396,-144 1396,-144 1566,-144 1566,-144 1572,-144 1578,-150 1578,-156 1578,-156 1578,-168 1578,-168 1578,-174 1572,-180 1566,-180"/>
<text text-anchor="middle" x="1481" y="-159.5" font-family="sans" font-size="10.00">post_model_solution1_wtd_subRun4</text>
</g>
<!-- 71&#45;&gt;70 -->
<g id="edge122" class="edge">
<title>71&#45;&gt;70</title>
<path fill="none" stroke="grey" stroke-width="2" d="M1429.41,-143.97C1399.53,-134.1 1361.74,-121.62 1330.34,-111.25"/>
<polygon fill="grey" stroke="grey" stroke-width="2" points="1331.41,-107.92 1320.82,-108.11 1329.22,-114.57 1331.41,-107.92"/>
</g>
<!-- 72&#45;&gt;71 -->
<g id="edge130" class="edge">
<title>72&#45;&gt;71</title>
<path fill="none" stroke="grey" stroke-width="2" d="M1481,-215.7C1481,-207.98 1481,-198.71 1481,-190.11"/>
<polygon fill="grey" stroke="grey" stroke-width="2" points="1484.5,-190.1 1481,-180.1 1477.5,-190.1 1484.5,-190.1"/>
</g>
<!-- 73 -->
<g id="node74" class="node">
<title>73</title>
<path fill="none" stroke="#d8bc56" stroke-width="2" d="M1354,-180C1354,-180 1184,-180 1184,-180 1178,-180 1172,-174 1172,-168 1172,-168 1172,-156 1172,-156 1172,-150 1178,-144 1184,-144 1184,-144 1354,-144 1354,-144 1360,-144 1366,-150 1366,-156 1366,-156 1366,-168 1366,-168 1366,-174 1360,-180 1354,-180"/>
<text text-anchor="middle" x="1269" y="-159.5" font-family="sans" font-size="10.00">post_model_solution1_hds_subRun4</text>
</g>
<!-- 72&#45;&gt;73 -->
<g id="edge132" class="edge">
<title>72&#45;&gt;73</title>
<path fill="none" stroke="grey" stroke-width="2" d="M1429.41,-215.97C1399.53,-206.1 1361.74,-193.62 1330.34,-183.25"/>
<polygon fill="grey" stroke="grey" stroke-width="2" points="1331.41,-179.92 1320.82,-180.11 1329.22,-186.57 1331.41,-179.92"/>
</g>
<!-- 73&#45;&gt;70 -->
<g id="edge123" class="edge">
<title>73&#45;&gt;70</title>
<path fill="none" stroke="grey" stroke-width="2" d="M1269,-143.7C1269,-135.98 1269,-126.71 1269,-118.11"/>
<polygon fill="grey" stroke="grey" stroke-width="2" points="1272.5,-118.1 1269,-108.1 1265.5,-118.1 1272.5,-118.1"/>
</g>
<!-- 74 -->
<g id="node75" class="node">
<title>74</title>
<path fill="none" stroke="#afd856" stroke-width="2" d="M1990,-180C1990,-180 1820,-180 1820,-180 1814,-180 1808,-174 1808,-168 1808,-168 1808,-156 1808,-156 1808,-150 1814,-144 1820,-144 1820,-144 1990,-144 1990,-144 1996,-144 2002,-150 2002,-156 2002,-156 2002,-168 2002,-168 2002,-174 1996,-180 1990,-180"/>
<text text-anchor="middle" x="1905" y="-159.5" font-family="sans" font-size="10.00">post_model_solution2_wtd_subRun4</text>
</g>
<!-- 74&#45;&gt;70 -->
<g id="edge124" class="edge">
<title>74&#45;&gt;70</title>
<path fill="none" stroke="grey" stroke-width="2" d="M1807.99,-145.21C1804.96,-144.79 1801.96,-144.38 1799,-144 1631.17,-122.17 1432.41,-104.46 1332.74,-96.14"/>
<polygon fill="grey" stroke="grey" stroke-width="2" points="1332.79,-92.64 1322.53,-95.3 1332.21,-99.61 1332.79,-92.64"/>
</g>
<!-- 75&#45;&gt;74 -->
<g id="edge133" class="edge">
<title>75&#45;&gt;74</title>
<path fill="none" stroke="grey" stroke-width="2" d="M1744.59,-215.97C1774.47,-206.1 1812.26,-193.62 1843.66,-183.25"/>
<polygon fill="grey" stroke="grey" stroke-width="2" points="1844.78,-186.57 1853.18,-180.11 1842.59,-179.92 1844.78,-186.57"/>
</g>
<!-- 76 -->
<g id="node77" class="node">
<title>76</title>
<path fill="none" stroke="#c6d856" stroke-width="2" d="M1778,-180C1778,-180 1608,-180 1608,-180 1602,-180 1596,-174 1596,-168 1596,-168 1596,-156 1596,-156 1596,-150 1602,-144 1608,-144 1608,-144 1778,-144 1778,-144 1784,-144 1790,-150 1790,-156 1790,-156 1790,-168 1790,-168 1790,-174 1784,-180 1778,-180"/>
<text text-anchor="middle" x="1693" y="-159.5" font-family="sans" font-size="10.00">post_model_solution2_hds_subRun4</text>
</g>
<!-- 75&#45;&gt;76 -->
<g id="edge135" class="edge">
<title>75&#45;&gt;76</title>
<path fill="none" stroke="grey" stroke-width="2" d="M1693,-215.7C1693,-207.98 1693,-198.71 1693,-190.11"/>
<polygon fill="grey" stroke="grey" stroke-width="2" points="1696.5,-190.1 1693,-180.1 1689.5,-190.1 1696.5,-190.1"/>
</g>
<!-- 76&#45;&gt;70 -->
<g id="edge125" class="edge">
<title>76&#45;&gt;70</title>
<path fill="none" stroke="grey" stroke-width="2" d="M1595.99,-144.98C1515.14,-131.64 1402.3,-113.01 1332.53,-101.49"/>
<polygon fill="grey" stroke="grey" stroke-width="2" points="1333,-98.02 1322.56,-99.84 1331.86,-104.93 1333,-98.02"/>
</g>
<!-- 77 -->
<g id="node78" class="node">
<title>77</title>
<path fill="none" stroke="#78d856" stroke-width="2" d="M1142,-180C1142,-180 972,-180 972,-180 966,-180 960,-174 960,-168 960,-168 960,-156 960,-156 960,-150 966,-144 972,-144 972,-144 1142,-144 1142,-144 1148,-144 1154,-150 1154,-156 1154,-156 1154,-168 1154,-168 1154,-174 1148,-180 1142,-180"/>
<text text-anchor="middle" x="1057" y="-159.5" font-family="sans" font-size="10.00">post_model_solution3_wtd_subRun4</text>
</g>
<!-- 77&#45;&gt;70 -->
<g id="edge126" class="edge">
<title>77&#45;&gt;70</title>
<path fill="none" stroke="grey" stroke-width="2" d="M1108.59,-143.97C1138.47,-134.1 1176.26,-121.62 1207.66,-111.25"/>
<polygon fill="grey" stroke="grey" stroke-width="2" points="1208.78,-114.57 1217.18,-108.11 1206.59,-107.92 1208.78,-114.57"/>
</g>
<!-- 78&#45;&gt;77 -->
<g id="edge136" class="edge">
<title>78&#45;&gt;77</title>
<path fill="none" stroke="grey" stroke-width="2" d="M1057,-215.7C1057,-207.98 1057,-198.71 1057,-190.11"/>
<polygon fill="grey" stroke="grey" stroke-width="2" points="1060.5,-190.1 1057,-180.1 1053.5,-190.1 1060.5,-190.1"/>
</g>
<!-- 79 -->
<g id="node80" class="node">
<title>79</title>
<path fill="none" stroke="#8fd856" stroke-width="2" d="M930,-180C930,-180 760,-180 760,-180 754,-180 748,-174 748,-168 748,-168 748,-156 748,-156 748,-150 754,-144 760,-144 760,-144 930,-144 930,-144 936,-144 942,-150 942,-156 942,-156 942,-168 942,-168 942,-174 936,-180 930,-180"/>
<text text-anchor="middle" x="845" y="-159.5" font-family="sans" font-size="10.00">post_model_solution3_hds_subRun4</text>
</g>
<!-- 78&#45;&gt;79 -->
<g id="edge138" class="edge">
<title>78&#45;&gt;79</title>
<path fill="none" stroke="grey" stroke-width="2" d="M1005.41,-215.97C975.53,-206.1 937.74,-193.62 906.34,-183.25"/>
<polygon fill="grey" stroke="grey" stroke-width="2" points="907.41,-179.92 896.82,-180.11 905.22,-186.57 907.41,-179.92"/>
</g>
<!-- 79&#45;&gt;70 -->
<g id="edge127" class="edge">
<title>79&#45;&gt;70</title>
<path fill="none" stroke="grey" stroke-width="2" d="M942.01,-144.98C1022.86,-131.64 1135.7,-113.01 1205.47,-101.49"/>
<polygon fill="grey" stroke="grey" stroke-width="2" points="1206.14,-104.93 1215.44,-99.84 1205,-98.02 1206.14,-104.93"/>
</g>
<!-- 80 -->
<g id="node81" class="node">
<title>80</title>
<path fill="none" stroke="#56d863" stroke-width="2" d="M506,-180C506,-180 336,-180 336,-180 330,-180 324,-174 324,-168 324,-168 324,-156 324,-156 324,-150 330,-144 336,-144 336,-144 506,-144 506,-144 512,-144 518,-150 518,-156 518,-156 518,-168 518,-168 518,-174 512,-180 506,-180"/>
<text text-anchor="middle" x="421" y="-159.5" font-family="sans" font-size="10.00">post_model_solution4_wtd_subRun4</text>
</g>
<!-- 80&#45;&gt;70 -->
<g id="edge128" class="edge">
<title>80&#45;&gt;70</title>
<path fill="none" stroke="grey" stroke-width="2" d="M518.28,-145.06C521.22,-144.69 524.13,-144.33 527,-144 777.13,-115.07 1076.65,-99.46 1205.24,-93.67"/>
<polygon fill="grey" stroke="grey" stroke-width="2" points="1205.48,-97.16 1215.31,-93.22 1205.16,-90.17 1205.48,-97.16"/>
</g>
<!-- 81&#45;&gt;80 -->
<g id="edge139" class="edge">
<title>81&#45;&gt;80</title>
<path fill="none" stroke="grey" stroke-width="2" d="M581.41,-215.97C551.53,-206.1 513.74,-193.62 482.34,-183.25"/>
<polygon fill="grey" stroke="grey" stroke-width="2" points="483.41,-179.92 472.82,-180.11 481.22,-186.57 483.41,-179.92"/>
</g>
<!-- 82 -->
<g id="node83" class="node">
<title>82</title>
<path fill="none" stroke="#61d856" stroke-width="2" d="M718,-180C718,-180 548,-180 548,-180 542,-180 536,-174 536,-168 536,-168 536,-156 536,-156 536,-150 542,-144 548,-144 548,-144 718,-144 718,-144 724,-144 730,-150 730,-156 730,-156 730,-168 730,-168 730,-174 724,-180 718,-180"/>
<text text-anchor="middle" x="633" y="-159.5" font-family="sans" font-size="10.00">post_model_solution4_hds_subRun4</text>
</g>
<!-- 81&#45;&gt;82 -->
<g id="edge141" class="edge">
<title>81&#45;&gt;82</title>
<path fill="none" stroke="grey" stroke-width="2" d="M633,-215.7C633,-207.98 633,-198.71 633,-190.11"/>
<polygon fill="grey" stroke="grey" stroke-width="2" points="636.5,-190.1 633,-180.1 629.5,-190.1 636.5,-190.1"/>
</g>
<!-- 82&#45;&gt;70 -->
<g id="edge129" class="edge">
<title>82&#45;&gt;70</title>
<path fill="none" stroke="grey" stroke-width="2" d="M730.01,-145.21C733.04,-144.79 736.04,-144.38 739,-144 906.83,-122.17 1105.59,-104.46 1205.26,-96.14"/>
<polygon fill="grey" stroke="grey" stroke-width="2" points="1205.79,-99.61 1215.47,-95.3 1205.21,-92.64 1205.79,-99.61"/>
</g>
</g>
</svg>
