<?xml version="1.0" encoding="UTF-8" standalone="no"?>
<!DOCTYPE svg PUBLIC "-//W3C//DTD SVG 1.1//EN"
 "http://www.w3.org/Graphics/SVG/1.1/DTD/svg11.dtd">
<!-- Generated by graphviz version 2.44.0 (0)
 -->
<!-- Title: snakemake_dag Pages: 1 -->
<svg width="1626pt" height="908pt"
 viewBox="0.00 0.00 1625.50 908.00" xmlns="http://www.w3.org/2000/svg" xmlns:xlink="http://www.w3.org/1999/xlink">
<g id="graph0" class="graph" transform="scale(1 1) rotate(0) translate(4 904)">
<title>snakemake_dag</title>
<polygon fill="white" stroke="transparent" points="-4,4 -4,-904 1621.5,-904 1621.5,4 -4,4"/>
<!-- 0 -->
<g id="node1" class="node">
<title>0</title>
<path fill="none" stroke="#5663d8" stroke-width="2" d="M784,-36C784,-36 754,-36 754,-36 748,-36 742,-30 742,-24 742,-24 742,-12 742,-12 742,-6 748,0 754,0 754,0 784,0 784,0 790,0 796,-6 796,-12 796,-12 796,-24 796,-24 796,-30 790,-36 784,-36"/>
<text text-anchor="middle" x="769" y="-15.5" font-family="sans" font-size="10.00">all</text>
</g>
<!-- 1 -->
<g id="node2" class="node">
<title>1</title>
<path fill="none" stroke="#d89556" stroke-width="2" d="M786,-108C786,-108 752,-108 752,-108 746,-108 740,-102 740,-96 740,-96 740,-84 740,-84 740,-78 746,-72 752,-72 752,-72 786,-72 786,-72 792,-72 798,-78 798,-84 798,-84 798,-96 798,-96 798,-102 792,-108 786,-108"/>
<text text-anchor="middle" x="769" y="-87.5" font-family="sans" font-size="10.00">wrap_up</text>
</g>
<!-- 1&#45;&gt;0 -->
<g id="edge1" class="edge">
<title>1&#45;&gt;0</title>
<path fill="none" stroke="grey" stroke-width="2" d="M769,-71.7C769,-63.98 769,-54.71 769,-46.11"/>
<polygon fill="grey" stroke="grey" stroke-width="2" points="772.5,-46.1 769,-36.1 765.5,-46.1 772.5,-46.1"/>
</g>
<!-- 2 -->
<g id="node3" class="node">
<title>2</title>
<path fill="none" stroke="#97d856" stroke-width="2" stroke-dasharray="5,2" d="M138,-396C138,-396 38,-396 38,-396 32,-396 26,-390 26,-384 26,-384 26,-372 26,-372 26,-366 32,-360 38,-360 38,-360 138,-360 138,-360 144,-360 150,-366 150,-372 150,-372 150,-384 150,-384 150,-390 144,-396 138,-396"/>
<text text-anchor="middle" x="88" y="-375.5" font-family="sans" font-size="10.00">post_model_solution3</text>
</g>
<!-- 2&#45;&gt;1 -->
<g id="edge2" class="edge">
<title>2&#45;&gt;1</title>
<path fill="none" stroke="grey" stroke-width="2" d="M83.57,-359.8C73.14,-314.8 52.77,-193.62 121,-144 170.22,-108.21 596.38,-95.11 729.47,-91.87"/>
<polygon fill="grey" stroke="grey" stroke-width="2" points="729.71,-95.36 739.62,-91.63 729.54,-88.36 729.71,-95.36"/>
</g>
<!-- 15 -->
<g id="node16" class="node">
<title>15</title>
<path fill="none" stroke="#c6d856" stroke-width="2" stroke-dasharray="5,2" d="M261.5,-324C261.5,-324 100.5,-324 100.5,-324 94.5,-324 88.5,-318 88.5,-312 88.5,-312 88.5,-300 88.5,-300 88.5,-294 94.5,-288 100.5,-288 100.5,-288 261.5,-288 261.5,-288 267.5,-288 273.5,-294 273.5,-300 273.5,-300 273.5,-312 273.5,-312 273.5,-318 267.5,-324 261.5,-324"/>
<text text-anchor="middle" x="181" y="-303.5" font-family="sans" font-size="10.00">write_model_input_solution3_run3</text>
</g>
<!-- 2&#45;&gt;15 -->
<g id="edge29" class="edge">
<title>2&#45;&gt;15</title>
<path fill="none" stroke="grey" stroke-width="2" d="M110.99,-359.7C122.81,-350.8 137.39,-339.82 150.18,-330.2"/>
<polygon fill="grey" stroke="grey" stroke-width="2" points="152.39,-332.91 158.28,-324.1 148.18,-327.32 152.39,-332.91"/>
</g>
<!-- 3 -->
<g id="node4" class="node">
<title>3</title>
<path fill="none" stroke="#d6d856" stroke-width="2" stroke-dasharray="5,2" d="M135.5,-468C135.5,-468 40.5,-468 40.5,-468 34.5,-468 28.5,-462 28.5,-456 28.5,-456 28.5,-444 28.5,-444 28.5,-438 34.5,-432 40.5,-432 40.5,-432 135.5,-432 135.5,-432 141.5,-432 147.5,-438 147.5,-444 147.5,-444 147.5,-456 147.5,-456 147.5,-462 141.5,-468 135.5,-468"/>
<text text-anchor="middle" x="88" y="-447.5" font-family="sans" font-size="10.00">run_model_solution3</text>
</g>
<!-- 3&#45;&gt;2 -->
<g id="edge14" class="edge">
<title>3&#45;&gt;2</title>
<path fill="none" stroke="grey" stroke-width="2" d="M88,-431.7C88,-423.98 88,-414.71 88,-406.11"/>
<polygon fill="grey" stroke="grey" stroke-width="2" points="91.5,-406.1 88,-396.1 84.5,-406.1 91.5,-406.1"/>
</g>
<!-- 11 -->
<g id="node12" class="node">
<title>11</title>
<path fill="none" stroke="#d88556" stroke-width="2" stroke-dasharray="5,2" d="M365,-396C365,-396 243,-396 243,-396 237,-396 231,-390 231,-384 231,-384 231,-372 231,-372 231,-366 237,-360 243,-360 243,-360 365,-360 365,-360 371,-360 377,-366 377,-372 377,-372 377,-384 377,-384 377,-390 371,-396 365,-396"/>
<text text-anchor="middle" x="304" y="-375.5" font-family="sans" font-size="10.00">run_model_solution3_run2</text>
</g>
<!-- 3&#45;&gt;11 -->
<g id="edge22" class="edge">
<title>3&#45;&gt;11</title>
<path fill="none" stroke="grey" stroke-width="2" d="M140.56,-431.97C171.01,-422.1 209.51,-409.62 241.5,-399.25"/>
<polygon fill="grey" stroke="grey" stroke-width="2" points="242.77,-402.52 251.2,-396.11 240.61,-395.86 242.77,-402.52"/>
</g>
<!-- 4 -->
<g id="node5" class="node">
<title>4</title>
<path fill="none" stroke="#56d89a" stroke-width="2" stroke-dasharray="5,2" d="M146,-540C146,-540 12,-540 12,-540 6,-540 0,-534 0,-528 0,-528 0,-516 0,-516 0,-510 6,-504 12,-504 12,-504 146,-504 146,-504 152,-504 158,-510 158,-516 158,-516 158,-528 158,-528 158,-534 152,-540 146,-540"/>
<text text-anchor="middle" x="79" y="-519.5" font-family="sans" font-size="10.00">write_model_input_solution3</text>
</g>
<!-- 4&#45;&gt;3 -->
<g id="edge15" class="edge">
<title>4&#45;&gt;3</title>
<path fill="none" stroke="grey" stroke-width="2" d="M81.22,-503.7C82.22,-495.98 83.41,-486.71 84.51,-478.11"/>
<polygon fill="grey" stroke="grey" stroke-width="2" points="88,-478.47 85.8,-468.1 81.05,-477.58 88,-478.47"/>
</g>
<!-- 5 -->
<g id="node6" class="node">
<title>5</title>
<path fill="none" stroke="#56d8d8" stroke-width="2" stroke-dasharray="5,2" d="M797,-612C797,-612 681,-612 681,-612 675,-612 669,-606 669,-600 669,-600 669,-588 669,-588 669,-582 675,-576 681,-576 681,-576 797,-576 797,-576 803,-576 809,-582 809,-588 809,-588 809,-600 809,-600 809,-606 803,-612 797,-612"/>
<text text-anchor="middle" x="739" y="-591.5" font-family="sans" font-size="10.00">write_model_input_setup</text>
</g>
<!-- 5&#45;&gt;4 -->
<g id="edge16" class="edge">
<title>5&#45;&gt;4</title>
<path fill="none" stroke="grey" stroke-width="2" d="M668.94,-588.43C561.63,-581 350.25,-564.57 172,-540 170.72,-539.82 169.43,-539.64 168.13,-539.46"/>
<polygon fill="grey" stroke="grey" stroke-width="2" points="168.48,-535.97 158.07,-537.94 167.44,-542.89 168.48,-535.97"/>
</g>
<!-- 12 -->
<g id="node13" class="node">
<title>12</title>
<path fill="none" stroke="#d8ac56" stroke-width="2" stroke-dasharray="5,2" d="M387.5,-468C387.5,-468 226.5,-468 226.5,-468 220.5,-468 214.5,-462 214.5,-456 214.5,-456 214.5,-444 214.5,-444 214.5,-438 220.5,-432 226.5,-432 226.5,-432 387.5,-432 387.5,-432 393.5,-432 399.5,-438 399.5,-444 399.5,-444 399.5,-456 399.5,-456 399.5,-462 393.5,-468 387.5,-468"/>
<text text-anchor="middle" x="307" y="-447.5" font-family="sans" font-size="10.00">write_model_input_solution3_run2</text>
</g>
<!-- 5&#45;&gt;12 -->
<g id="edge24" class="edge">
<title>5&#45;&gt;12</title>
<path fill="none" stroke="grey" stroke-width="2" d="M668.84,-589.48C576.11,-583.74 418.8,-569.83 370,-540 346.16,-525.42 328.86,-498.06 318.49,-477.51"/>
<polygon fill="grey" stroke="grey" stroke-width="2" points="321.57,-475.84 314.09,-468.34 315.26,-478.86 321.57,-475.84"/>
</g>
<!-- 5&#45;&gt;15 -->
<g id="edge28" class="edge">
<title>5&#45;&gt;15</title>
<path fill="none" stroke="grey" stroke-width="2" d="M668.94,-592.11C586.17,-589.2 445.26,-578.39 331,-540 269.86,-519.46 241.41,-521.24 205,-468 177.51,-427.8 176.15,-368.75 178.21,-334.46"/>
<polygon fill="grey" stroke="grey" stroke-width="2" points="181.71,-334.48 178.96,-324.25 174.73,-333.96 181.71,-334.48"/>
</g>
<!-- 18 -->
<g id="node19" class="node">
<title>18</title>
<path fill="none" stroke="#78d856" stroke-width="2" stroke-dasharray="5,2" d="M525,-540C525,-540 391,-540 391,-540 385,-540 379,-534 379,-528 379,-528 379,-516 379,-516 379,-510 385,-504 391,-504 391,-504 525,-504 525,-504 531,-504 537,-510 537,-516 537,-516 537,-528 537,-528 537,-534 531,-540 525,-540"/>
<text text-anchor="middle" x="458" y="-519.5" font-family="sans" font-size="10.00">write_model_input_solution4</text>
</g>
<!-- 5&#45;&gt;18 -->
<g id="edge32" class="edge">
<title>5&#45;&gt;18</title>
<path fill="none" stroke="grey" stroke-width="2" d="M670.62,-575.97C630.16,-565.89 578.76,-553.08 536.63,-542.59"/>
<polygon fill="grey" stroke="grey" stroke-width="2" points="537.24,-539.13 526.69,-540.11 535.55,-545.92 537.24,-539.13"/>
</g>
<!-- 21 -->
<g id="node22" class="node">
<title>21</title>
<path fill="none" stroke="#56d8c9" stroke-width="2" stroke-dasharray="5,2" d="M766.5,-468C766.5,-468 605.5,-468 605.5,-468 599.5,-468 593.5,-462 593.5,-456 593.5,-456 593.5,-444 593.5,-444 593.5,-438 599.5,-432 605.5,-432 605.5,-432 766.5,-432 766.5,-432 772.5,-432 778.5,-438 778.5,-444 778.5,-444 778.5,-456 778.5,-456 778.5,-462 772.5,-468 766.5,-468"/>
<text text-anchor="middle" x="686" y="-447.5" font-family="sans" font-size="10.00">write_model_input_solution4_run2</text>
</g>
<!-- 5&#45;&gt;21 -->
<g id="edge36" class="edge">
<title>5&#45;&gt;21</title>
<path fill="none" stroke="grey" stroke-width="2" d="M725.66,-575.73C718.56,-565.78 710.24,-552.74 705,-540 696.85,-520.18 692,-496.39 689.24,-478.39"/>
<polygon fill="grey" stroke="grey" stroke-width="2" points="692.68,-477.69 687.82,-468.27 685.75,-478.66 692.68,-477.69"/>
</g>
<!-- 24 -->
<g id="node25" class="node">
<title>24</title>
<path fill="none" stroke="#68d856" stroke-width="2" stroke-dasharray="5,2" d="M645.5,-324C645.5,-324 484.5,-324 484.5,-324 478.5,-324 472.5,-318 472.5,-312 472.5,-312 472.5,-300 472.5,-300 472.5,-294 478.5,-288 484.5,-288 484.5,-288 645.5,-288 645.5,-288 651.5,-288 657.5,-294 657.5,-300 657.5,-300 657.5,-312 657.5,-312 657.5,-318 651.5,-324 645.5,-324"/>
<text text-anchor="middle" x="565" y="-303.5" font-family="sans" font-size="10.00">write_model_input_solution4_run3</text>
</g>
<!-- 5&#45;&gt;24 -->
<g id="edge40" class="edge">
<title>5&#45;&gt;24</title>
<path fill="none" stroke="grey" stroke-width="2" d="M704.96,-575.95C668.34,-555.65 611.67,-518.08 584,-468 560.66,-425.76 560.06,-367.89 562.21,-334.27"/>
<polygon fill="grey" stroke="grey" stroke-width="2" points="565.7,-334.49 562.98,-324.25 558.72,-333.96 565.7,-334.49"/>
</g>
<!-- 27 -->
<g id="node28" class="node">
<title>27</title>
<path fill="none" stroke="#56b9d8" stroke-width="2" stroke-dasharray="5,2" d="M860,-540C860,-540 726,-540 726,-540 720,-540 714,-534 714,-528 714,-528 714,-516 714,-516 714,-510 720,-504 726,-504 726,-504 860,-504 860,-504 866,-504 872,-510 872,-516 872,-516 872,-528 872,-528 872,-534 866,-540 860,-540"/>
<text text-anchor="middle" x="793" y="-519.5" font-family="sans" font-size="10.00">write_model_input_solution2</text>
</g>
<!-- 5&#45;&gt;27 -->
<g id="edge44" class="edge">
<title>5&#45;&gt;27</title>
<path fill="none" stroke="grey" stroke-width="2" d="M752.35,-575.7C758.76,-567.39 766.56,-557.28 773.61,-548.14"/>
<polygon fill="grey" stroke="grey" stroke-width="2" points="776.47,-550.16 779.81,-540.1 770.93,-545.88 776.47,-550.16"/>
</g>
<!-- 30 -->
<g id="node31" class="node">
<title>30</title>
<path fill="none" stroke="#d8c356" stroke-width="2" stroke-dasharray="5,2" d="M1101.5,-540C1101.5,-540 940.5,-540 940.5,-540 934.5,-540 928.5,-534 928.5,-528 928.5,-528 928.5,-516 928.5,-516 928.5,-510 934.5,-504 940.5,-504 940.5,-504 1101.5,-504 1101.5,-504 1107.5,-504 1113.5,-510 1113.5,-516 1113.5,-516 1113.5,-528 1113.5,-528 1113.5,-534 1107.5,-540 1101.5,-540"/>
<text text-anchor="middle" x="1021" y="-519.5" font-family="sans" font-size="10.00">write_model_input_solution2_run2</text>
</g>
<!-- 5&#45;&gt;30 -->
<g id="edge48" class="edge">
<title>5&#45;&gt;30</title>
<path fill="none" stroke="grey" stroke-width="2" d="M807.62,-575.97C848.31,-565.87 900.03,-553.03 942.36,-542.52"/>
<polygon fill="grey" stroke="grey" stroke-width="2" points="943.21,-545.92 952.07,-540.11 941.52,-539.12 943.21,-545.92"/>
</g>
<!-- 33 -->
<g id="node34" class="node">
<title>33</title>
<path fill="none" stroke="#d86656" stroke-width="2" d="M1017.5,-324C1017.5,-324 856.5,-324 856.5,-324 850.5,-324 844.5,-318 844.5,-312 844.5,-312 844.5,-300 844.5,-300 844.5,-294 850.5,-288 856.5,-288 856.5,-288 1017.5,-288 1017.5,-288 1023.5,-288 1029.5,-294 1029.5,-300 1029.5,-300 1029.5,-312 1029.5,-312 1029.5,-318 1023.5,-324 1017.5,-324"/>
<text text-anchor="middle" x="937" y="-303.5" font-family="sans" font-size="10.00">write_model_input_solution2_run3</text>
</g>
<!-- 5&#45;&gt;33 -->
<g id="edge52" class="edge">
<title>5&#45;&gt;33</title>
<path fill="none" stroke="grey" stroke-width="2" d="M809.32,-577.07C833.91,-568.97 860.48,-557.1 881,-540 942.18,-489 943.17,-383.97 939.78,-334.24"/>
<polygon fill="grey" stroke="grey" stroke-width="2" points="943.27,-333.92 938.99,-324.23 936.29,-334.48 943.27,-333.92"/>
</g>
<!-- 36 -->
<g id="node37" class="node">
<title>36</title>
<path fill="none" stroke="#56d8c1" stroke-width="2" d="M1278,-540C1278,-540 1144,-540 1144,-540 1138,-540 1132,-534 1132,-528 1132,-528 1132,-516 1132,-516 1132,-510 1138,-504 1144,-504 1144,-504 1278,-504 1278,-504 1284,-504 1290,-510 1290,-516 1290,-516 1290,-528 1290,-528 1290,-534 1284,-540 1278,-540"/>
<text text-anchor="middle" x="1211" y="-519.5" font-family="sans" font-size="10.00">write_model_input_solution1</text>
</g>
<!-- 5&#45;&gt;36 -->
<g id="edge56" class="edge">
<title>5&#45;&gt;36</title>
<path fill="none" stroke="grey" stroke-width="2" d="M809.05,-584.4C885.97,-574.7 1013.04,-557.93 1122,-540 1122.1,-539.98 1122.2,-539.97 1122.31,-539.95"/>
<polygon fill="grey" stroke="grey" stroke-width="2" points="1122.66,-543.44 1131.94,-538.32 1121.49,-536.54 1122.66,-543.44"/>
</g>
<!-- 39 -->
<g id="node40" class="node">
<title>39</title>
<path fill="none" stroke="#56d0d8" stroke-width="2" d="M1519.5,-540C1519.5,-540 1358.5,-540 1358.5,-540 1352.5,-540 1346.5,-534 1346.5,-528 1346.5,-528 1346.5,-516 1346.5,-516 1346.5,-510 1352.5,-504 1358.5,-504 1358.5,-504 1519.5,-504 1519.5,-504 1525.5,-504 1531.5,-510 1531.5,-516 1531.5,-516 1531.5,-528 1531.5,-528 1531.5,-534 1525.5,-540 1519.5,-540"/>
<text text-anchor="middle" x="1439" y="-519.5" font-family="sans" font-size="10.00">write_model_input_solution1_run2</text>
</g>
<!-- 5&#45;&gt;39 -->
<g id="edge60" class="edge">
<title>5&#45;&gt;39</title>
<path fill="none" stroke="grey" stroke-width="2" d="M809,-588.3C920.1,-580.5 1143.52,-563.37 1332,-540 1333.31,-539.84 1334.63,-539.67 1335.96,-539.5"/>
<polygon fill="grey" stroke="grey" stroke-width="2" points="1336.81,-542.92 1346.26,-538.13 1335.89,-535.98 1336.81,-542.92"/>
</g>
<!-- 42 -->
<g id="node43" class="node">
<title>42</title>
<path fill="none" stroke="#d8b456" stroke-width="2" d="M1397.5,-324C1397.5,-324 1236.5,-324 1236.5,-324 1230.5,-324 1224.5,-318 1224.5,-312 1224.5,-312 1224.5,-300 1224.5,-300 1224.5,-294 1230.5,-288 1236.5,-288 1236.5,-288 1397.5,-288 1397.5,-288 1403.5,-288 1409.5,-294 1409.5,-300 1409.5,-300 1409.5,-312 1409.5,-312 1409.5,-318 1403.5,-324 1397.5,-324"/>
<text text-anchor="middle" x="1317" y="-303.5" font-family="sans" font-size="10.00">write_model_input_solution1_run3</text>
</g>
<!-- 5&#45;&gt;42 -->
<g id="edge64" class="edge">
<title>5&#45;&gt;42</title>
<path fill="none" stroke="grey" stroke-width="2" d="M809.15,-591.32C951.84,-587.2 1265.29,-574.3 1299,-540 1353.18,-484.87 1336.69,-382.75 1324.7,-334.11"/>
<polygon fill="grey" stroke="grey" stroke-width="2" points="1328.06,-333.12 1322.17,-324.31 1321.28,-334.87 1328.06,-333.12"/>
</g>
<!-- 6 -->
<g id="node7" class="node">
<title>6</title>
<path fill="none" stroke="#56d88a" stroke-width="2" stroke-dasharray="5,2" d="M785,-684C785,-684 693,-684 693,-684 687,-684 681,-678 681,-672 681,-672 681,-660 681,-660 681,-654 687,-648 693,-648 693,-648 785,-648 785,-648 791,-648 797,-654 797,-660 797,-660 797,-672 797,-672 797,-678 791,-684 785,-684"/>
<text text-anchor="middle" x="739" y="-663.5" font-family="sans" font-size="10.00">write_model_forcing</text>
</g>
<!-- 6&#45;&gt;5 -->
<g id="edge17" class="edge">
<title>6&#45;&gt;5</title>
<path fill="none" stroke="grey" stroke-width="2" d="M739,-647.7C739,-639.98 739,-630.71 739,-622.11"/>
<polygon fill="grey" stroke="grey" stroke-width="2" points="742.5,-622.1 739,-612.1 735.5,-622.1 742.5,-622.1"/>
</g>
<!-- 7 -->
<g id="node8" class="node">
<title>7</title>
<path fill="none" stroke="#d89c56" stroke-width="2" stroke-dasharray="5,2" d="M801.5,-756C801.5,-756 676.5,-756 676.5,-756 670.5,-756 664.5,-750 664.5,-744 664.5,-744 664.5,-732 664.5,-732 664.5,-726 670.5,-720 676.5,-720 676.5,-720 801.5,-720 801.5,-720 807.5,-720 813.5,-726 813.5,-732 813.5,-732 813.5,-744 813.5,-744 813.5,-750 807.5,-756 801.5,-756"/>
<text text-anchor="middle" x="739" y="-735.5" font-family="sans" font-size="10.00">write_model_forcing_setup</text>
</g>
<!-- 7&#45;&gt;6 -->
<g id="edge18" class="edge">
<title>7&#45;&gt;6</title>
<path fill="none" stroke="grey" stroke-width="2" d="M739,-719.7C739,-711.98 739,-702.71 739,-694.11"/>
<polygon fill="grey" stroke="grey" stroke-width="2" points="742.5,-694.1 739,-684.1 735.5,-694.1 742.5,-694.1"/>
</g>
<!-- 8 -->
<g id="node9" class="node">
<title>8</title>
<path fill="none" stroke="#d85656" stroke-width="2" stroke-dasharray="5,2" d="M803,-828C803,-828 675,-828 675,-828 669,-828 663,-822 663,-816 663,-816 663,-804 663,-804 663,-798 669,-792 675,-792 675,-792 803,-792 803,-792 809,-792 815,-798 815,-804 815,-804 815,-816 815,-816 815,-822 809,-828 803,-828"/>
<text text-anchor="middle" x="739" y="-807.5" font-family="sans" font-size="10.00">prepare_model_partitioning</text>
</g>
<!-- 8&#45;&gt;7 -->
<g id="edge19" class="edge">
<title>8&#45;&gt;7</title>
<path fill="none" stroke="grey" stroke-width="2" d="M739,-791.7C739,-783.98 739,-774.71 739,-766.11"/>
<polygon fill="grey" stroke="grey" stroke-width="2" points="742.5,-766.1 739,-756.1 735.5,-766.1 742.5,-766.1"/>
</g>
<!-- 9 -->
<g id="node10" class="node">
<title>9</title>
<path fill="none" stroke="#56d873" stroke-width="2" stroke-dasharray="5,2" d="M777.5,-900C777.5,-900 700.5,-900 700.5,-900 694.5,-900 688.5,-894 688.5,-888 688.5,-888 688.5,-876 688.5,-876 688.5,-870 694.5,-864 700.5,-864 700.5,-864 777.5,-864 777.5,-864 783.5,-864 789.5,-870 789.5,-876 789.5,-876 789.5,-888 789.5,-888 789.5,-894 783.5,-900 777.5,-900"/>
<text text-anchor="middle" x="739" y="-879.5" font-family="sans" font-size="10.00">setup_simulation</text>
</g>
<!-- 9&#45;&gt;8 -->
<g id="edge20" class="edge">
<title>9&#45;&gt;8</title>
<path fill="none" stroke="grey" stroke-width="2" d="M739,-863.7C739,-855.98 739,-846.71 739,-838.11"/>
<polygon fill="grey" stroke="grey" stroke-width="2" points="742.5,-838.1 739,-828.1 735.5,-838.1 742.5,-838.1"/>
</g>
<!-- 10 -->
<g id="node11" class="node">
<title>10</title>
<path fill="none" stroke="#a7d856" stroke-width="2" stroke-dasharray="5,2" d="M403.5,-252C403.5,-252 276.5,-252 276.5,-252 270.5,-252 264.5,-246 264.5,-240 264.5,-240 264.5,-228 264.5,-228 264.5,-222 270.5,-216 276.5,-216 276.5,-216 403.5,-216 403.5,-216 409.5,-216 415.5,-222 415.5,-228 415.5,-228 415.5,-240 415.5,-240 415.5,-246 409.5,-252 403.5,-252"/>
<text text-anchor="middle" x="340" y="-231.5" font-family="sans" font-size="10.00">post_model_solution3_run2</text>
</g>
<!-- 10&#45;&gt;1 -->
<g id="edge3" class="edge">
<title>10&#45;&gt;1</title>
<path fill="none" stroke="grey" stroke-width="2" d="M352.08,-215.68C367.57,-194.95 396.45,-160.93 430,-144 481.93,-117.79 651.95,-100.72 729.64,-94.1"/>
<polygon fill="grey" stroke="grey" stroke-width="2" points="730.29,-97.56 739.96,-93.24 729.71,-90.59 730.29,-97.56"/>
</g>
<!-- 11&#45;&gt;10 -->
<g id="edge21" class="edge">
<title>11&#45;&gt;10</title>
<path fill="none" stroke="grey" stroke-width="2" d="M308.34,-359.87C314.5,-335.56 325.85,-290.82 333.15,-262.01"/>
<polygon fill="grey" stroke="grey" stroke-width="2" points="336.58,-262.74 335.64,-252.19 329.79,-261.02 336.58,-262.74"/>
</g>
<!-- 14 -->
<g id="node15" class="node">
<title>14</title>
<path fill="none" stroke="#56d8a2" stroke-width="2" stroke-dasharray="5,2" d="M234,-252C234,-252 112,-252 112,-252 106,-252 100,-246 100,-240 100,-240 100,-228 100,-228 100,-222 106,-216 112,-216 112,-216 234,-216 234,-216 240,-216 246,-222 246,-228 246,-228 246,-240 246,-240 246,-246 240,-252 234,-252"/>
<text text-anchor="middle" x="173" y="-231.5" font-family="sans" font-size="10.00">run_model_solution3_run3</text>
</g>
<!-- 11&#45;&gt;14 -->
<g id="edge27" class="edge">
<title>11&#45;&gt;14</title>
<path fill="none" stroke="grey" stroke-width="2" d="M303.93,-359.7C302.99,-340.24 298.72,-308.66 282,-288 271.05,-274.46 255.78,-264.14 240.14,-256.37"/>
<polygon fill="grey" stroke="grey" stroke-width="2" points="241.46,-253.12 230.92,-252.08 238.51,-259.47 241.46,-253.12"/>
</g>
<!-- 12&#45;&gt;11 -->
<g id="edge23" class="edge">
<title>12&#45;&gt;11</title>
<path fill="none" stroke="grey" stroke-width="2" d="M306.26,-431.7C305.93,-423.98 305.53,-414.71 305.16,-406.11"/>
<polygon fill="grey" stroke="grey" stroke-width="2" points="308.66,-405.95 304.73,-396.1 301.66,-406.25 308.66,-405.95"/>
</g>
<!-- 13 -->
<g id="node14" class="node">
<title>13</title>
<path fill="none" stroke="#56d86b" stroke-width="2" stroke-dasharray="5,2" d="M269.5,-180C269.5,-180 142.5,-180 142.5,-180 136.5,-180 130.5,-174 130.5,-168 130.5,-168 130.5,-156 130.5,-156 130.5,-150 136.5,-144 142.5,-144 142.5,-144 269.5,-144 269.5,-144 275.5,-144 281.5,-150 281.5,-156 281.5,-156 281.5,-168 281.5,-168 281.5,-174 275.5,-180 269.5,-180"/>
<text text-anchor="middle" x="206" y="-159.5" font-family="sans" font-size="10.00">post_model_solution3_run3</text>
</g>
<!-- 13&#45;&gt;1 -->
<g id="edge4" class="edge">
<title>13&#45;&gt;1</title>
<path fill="none" stroke="grey" stroke-width="2" d="M281.64,-151.6C403.06,-136.5 637.23,-107.38 729.88,-95.86"/>
<polygon fill="grey" stroke="grey" stroke-width="2" points="730.46,-99.32 739.95,-94.61 729.59,-92.37 730.46,-99.32"/>
</g>
<!-- 14&#45;&gt;13 -->
<g id="edge25" class="edge">
<title>14&#45;&gt;13</title>
<path fill="none" stroke="grey" stroke-width="2" d="M181.16,-215.7C184.91,-207.73 189.45,-198.1 193.62,-189.26"/>
<polygon fill="grey" stroke="grey" stroke-width="2" points="196.84,-190.64 197.94,-180.1 190.51,-187.66 196.84,-190.64"/>
</g>
<!-- 15&#45;&gt;14 -->
<g id="edge26" class="edge">
<title>15&#45;&gt;14</title>
<path fill="none" stroke="grey" stroke-width="2" d="M179.02,-287.7C178.14,-279.98 177.08,-270.71 176.1,-262.11"/>
<polygon fill="grey" stroke="grey" stroke-width="2" points="179.57,-261.64 174.95,-252.1 172.61,-262.44 179.57,-261.64"/>
</g>
<!-- 16 -->
<g id="node17" class="node">
<title>16</title>
<path fill="none" stroke="#568ad8" stroke-width="2" stroke-dasharray="5,2" d="M525,-396C525,-396 425,-396 425,-396 419,-396 413,-390 413,-384 413,-384 413,-372 413,-372 413,-366 419,-360 425,-360 425,-360 525,-360 525,-360 531,-360 537,-366 537,-372 537,-372 537,-384 537,-384 537,-390 531,-396 525,-396"/>
<text text-anchor="middle" x="475" y="-375.5" font-family="sans" font-size="10.00">post_model_solution4</text>
</g>
<!-- 16&#45;&gt;1 -->
<g id="edge5" class="edge">
<title>16&#45;&gt;1</title>
<path fill="none" stroke="grey" stroke-width="2" d="M467.13,-359.89C449,-317.64 409.79,-207.22 463,-144 496.63,-104.05 654.59,-94.21 729.45,-91.79"/>
<polygon fill="grey" stroke="grey" stroke-width="2" points="729.98,-95.28 739.87,-91.48 729.77,-88.28 729.98,-95.28"/>
</g>
<!-- 16&#45;&gt;24 -->
<g id="edge41" class="edge">
<title>16&#45;&gt;24</title>
<path fill="none" stroke="grey" stroke-width="2" d="M497.25,-359.7C508.58,-350.88 522.53,-340.03 534.82,-330.47"/>
<polygon fill="grey" stroke="grey" stroke-width="2" points="537.26,-333.01 543.01,-324.1 532.97,-327.48 537.26,-333.01"/>
</g>
<!-- 17 -->
<g id="node18" class="node">
<title>17</title>
<path fill="none" stroke="#80d856" stroke-width="2" stroke-dasharray="5,2" d="M524.5,-468C524.5,-468 429.5,-468 429.5,-468 423.5,-468 417.5,-462 417.5,-456 417.5,-456 417.5,-444 417.5,-444 417.5,-438 423.5,-432 429.5,-432 429.5,-432 524.5,-432 524.5,-432 530.5,-432 536.5,-438 536.5,-444 536.5,-444 536.5,-456 536.5,-456 536.5,-462 530.5,-468 524.5,-468"/>
<text text-anchor="middle" x="477" y="-447.5" font-family="sans" font-size="10.00">run_model_solution4</text>
</g>
<!-- 17&#45;&gt;16 -->
<g id="edge30" class="edge">
<title>17&#45;&gt;16</title>
<path fill="none" stroke="grey" stroke-width="2" d="M476.51,-431.7C476.29,-423.98 476.02,-414.71 475.77,-406.11"/>
<polygon fill="grey" stroke="grey" stroke-width="2" points="479.27,-406 475.49,-396.1 472.28,-406.2 479.27,-406"/>
</g>
<!-- 20 -->
<g id="node21" class="node">
<title>20</title>
<path fill="none" stroke="#59d856" stroke-width="2" stroke-dasharray="5,2" d="M747,-396C747,-396 625,-396 625,-396 619,-396 613,-390 613,-384 613,-384 613,-372 613,-372 613,-366 619,-360 625,-360 625,-360 747,-360 747,-360 753,-360 759,-366 759,-372 759,-372 759,-384 759,-384 759,-390 753,-396 747,-396"/>
<text text-anchor="middle" x="686" y="-375.5" font-family="sans" font-size="10.00">run_model_solution4_run2</text>
</g>
<!-- 17&#45;&gt;20 -->
<g id="edge34" class="edge">
<title>17&#45;&gt;20</title>
<path fill="none" stroke="grey" stroke-width="2" d="M527.86,-431.97C557.19,-422.14 594.25,-409.73 625.12,-399.39"/>
<polygon fill="grey" stroke="grey" stroke-width="2" points="626.54,-402.61 634.91,-396.11 624.32,-395.97 626.54,-402.61"/>
</g>
<!-- 18&#45;&gt;17 -->
<g id="edge31" class="edge">
<title>18&#45;&gt;17</title>
<path fill="none" stroke="grey" stroke-width="2" d="M462.7,-503.7C464.81,-495.9 467.36,-486.51 469.72,-477.83"/>
<polygon fill="grey" stroke="grey" stroke-width="2" points="473.12,-478.67 472.36,-468.1 466.36,-476.84 473.12,-478.67"/>
</g>
<!-- 19 -->
<g id="node20" class="node">
<title>19</title>
<path fill="none" stroke="#5692d8" stroke-width="2" stroke-dasharray="5,2" d="M780.5,-180C780.5,-180 653.5,-180 653.5,-180 647.5,-180 641.5,-174 641.5,-168 641.5,-168 641.5,-156 641.5,-156 641.5,-150 647.5,-144 653.5,-144 653.5,-144 780.5,-144 780.5,-144 786.5,-144 792.5,-150 792.5,-156 792.5,-156 792.5,-168 792.5,-168 792.5,-174 786.5,-180 780.5,-180"/>
<text text-anchor="middle" x="717" y="-159.5" font-family="sans" font-size="10.00">post_model_solution4_run2</text>
</g>
<!-- 19&#45;&gt;1 -->
<g id="edge6" class="edge">
<title>19&#45;&gt;1</title>
<path fill="none" stroke="grey" stroke-width="2" d="M729.85,-143.7C736.03,-135.39 743.54,-125.28 750.32,-116.14"/>
<polygon fill="grey" stroke="grey" stroke-width="2" points="753.14,-118.22 756.29,-108.1 747.52,-114.04 753.14,-118.22"/>
</g>
<!-- 20&#45;&gt;19 -->
<g id="edge33" class="edge">
<title>20&#45;&gt;19</title>
<path fill="none" stroke="grey" stroke-width="2" d="M688.48,-359.85C693.85,-322.83 706.54,-235.18 713.03,-190.39"/>
<polygon fill="grey" stroke="grey" stroke-width="2" points="716.53,-190.63 714.5,-180.23 709.61,-189.63 716.53,-190.63"/>
</g>
<!-- 23 -->
<g id="node24" class="node">
<title>23</title>
<path fill="none" stroke="#bed856" stroke-width="2" stroke-dasharray="5,2" d="M626,-252C626,-252 504,-252 504,-252 498,-252 492,-246 492,-240 492,-240 492,-228 492,-228 492,-222 498,-216 504,-216 504,-216 626,-216 626,-216 632,-216 638,-222 638,-228 638,-228 638,-240 638,-240 638,-246 632,-252 626,-252"/>
<text text-anchor="middle" x="565" y="-231.5" font-family="sans" font-size="10.00">run_model_solution4_run3</text>
</g>
<!-- 20&#45;&gt;23 -->
<g id="edge39" class="edge">
<title>20&#45;&gt;23</title>
<path fill="none" stroke="grey" stroke-width="2" d="M686.27,-359.82C685.7,-340.47 682.1,-308.99 666,-288 655.82,-274.73 641.36,-264.44 626.56,-256.62"/>
<polygon fill="grey" stroke="grey" stroke-width="2" points="627.85,-253.35 617.33,-252.06 624.75,-259.63 627.85,-253.35"/>
</g>
<!-- 21&#45;&gt;20 -->
<g id="edge35" class="edge">
<title>21&#45;&gt;20</title>
<path fill="none" stroke="grey" stroke-width="2" d="M686,-431.7C686,-423.98 686,-414.71 686,-406.11"/>
<polygon fill="grey" stroke="grey" stroke-width="2" points="689.5,-406.1 686,-396.1 682.5,-406.1 689.5,-406.1"/>
</g>
<!-- 22 -->
<g id="node23" class="node">
<title>22</title>
<path fill="none" stroke="#56a2d8" stroke-width="2" stroke-dasharray="5,2" d="M611.5,-180C611.5,-180 484.5,-180 484.5,-180 478.5,-180 472.5,-174 472.5,-168 472.5,-168 472.5,-156 472.5,-156 472.5,-150 478.5,-144 484.5,-144 484.5,-144 611.5,-144 611.5,-144 617.5,-144 623.5,-150 623.5,-156 623.5,-156 623.5,-168 623.5,-168 623.5,-174 617.5,-180 611.5,-180"/>
<text text-anchor="middle" x="548" y="-159.5" font-family="sans" font-size="10.00">post_model_solution4_run3</text>
</g>
<!-- 22&#45;&gt;1 -->
<g id="edge7" class="edge">
<title>22&#45;&gt;1</title>
<path fill="none" stroke="grey" stroke-width="2" d="M601.78,-143.97C641.49,-131.39 694.6,-114.57 730.22,-103.28"/>
<polygon fill="grey" stroke="grey" stroke-width="2" points="731.3,-106.61 739.77,-100.26 729.18,-99.94 731.3,-106.61"/>
</g>
<!-- 23&#45;&gt;22 -->
<g id="edge37" class="edge">
<title>23&#45;&gt;22</title>
<path fill="none" stroke="grey" stroke-width="2" d="M560.8,-215.7C558.9,-207.9 556.62,-198.51 554.52,-189.83"/>
<polygon fill="grey" stroke="grey" stroke-width="2" points="557.92,-189 552.15,-180.1 551.11,-190.65 557.92,-189"/>
</g>
<!-- 24&#45;&gt;23 -->
<g id="edge38" class="edge">
<title>24&#45;&gt;23</title>
<path fill="none" stroke="grey" stroke-width="2" d="M565,-287.7C565,-279.98 565,-270.71 565,-262.11"/>
<polygon fill="grey" stroke="grey" stroke-width="2" points="568.5,-262.1 565,-252.1 561.5,-262.1 568.5,-262.1"/>
</g>
<!-- 25 -->
<g id="node26" class="node">
<title>25</title>
<path fill="none" stroke="#566bd8" stroke-width="2" d="M904,-396C904,-396 804,-396 804,-396 798,-396 792,-390 792,-384 792,-384 792,-372 792,-372 792,-366 798,-360 804,-360 804,-360 904,-360 904,-360 910,-360 916,-366 916,-372 916,-372 916,-384 916,-384 916,-390 910,-396 904,-396"/>
<text text-anchor="middle" x="854" y="-375.5" font-family="sans" font-size="10.00">post_model_solution2</text>
</g>
<!-- 25&#45;&gt;1 -->
<g id="edge8" class="edge">
<title>25&#45;&gt;1</title>
<path fill="none" stroke="grey" stroke-width="2" d="M846.96,-359.56C843.03,-349.32 838.28,-336.07 835,-324 813.64,-245.44 830.06,-220.05 801,-144 797.45,-134.71 792.29,-125.21 787.14,-116.87"/>
<polygon fill="grey" stroke="grey" stroke-width="2" points="790,-114.84 781.64,-108.33 784.11,-118.63 790,-114.84"/>
</g>
<!-- 25&#45;&gt;33 -->
<g id="edge53" class="edge">
<title>25&#45;&gt;33</title>
<path fill="none" stroke="grey" stroke-width="2" d="M874.52,-359.7C884.87,-350.97 897.59,-340.24 908.84,-330.75"/>
<polygon fill="grey" stroke="grey" stroke-width="2" points="911.33,-333.23 916.72,-324.1 906.82,-327.88 911.33,-333.23"/>
</g>
<!-- 26 -->
<g id="node27" class="node">
<title>26</title>
<path fill="none" stroke="#56d85b" stroke-width="2" stroke-dasharray="5,2" d="M903.5,-468C903.5,-468 808.5,-468 808.5,-468 802.5,-468 796.5,-462 796.5,-456 796.5,-456 796.5,-444 796.5,-444 796.5,-438 802.5,-432 808.5,-432 808.5,-432 903.5,-432 903.5,-432 909.5,-432 915.5,-438 915.5,-444 915.5,-444 915.5,-456 915.5,-456 915.5,-462 909.5,-468 903.5,-468"/>
<text text-anchor="middle" x="856" y="-447.5" font-family="sans" font-size="10.00">run_model_solution2</text>
</g>
<!-- 26&#45;&gt;25 -->
<g id="edge42" class="edge">
<title>26&#45;&gt;25</title>
<path fill="none" stroke="grey" stroke-width="2" d="M855.51,-431.7C855.29,-423.98 855.02,-414.71 854.77,-406.11"/>
<polygon fill="grey" stroke="grey" stroke-width="2" points="858.27,-406 854.49,-396.1 851.28,-406.2 858.27,-406"/>
</g>
<!-- 29 -->
<g id="node30" class="node">
<title>29</title>
<path fill="none" stroke="#567bd8" stroke-width="2" stroke-dasharray="5,2" d="M1110,-396C1110,-396 988,-396 988,-396 982,-396 976,-390 976,-384 976,-384 976,-372 976,-372 976,-366 982,-360 988,-360 988,-360 1110,-360 1110,-360 1116,-360 1122,-366 1122,-372 1122,-372 1122,-384 1122,-384 1122,-390 1116,-396 1110,-396"/>
<text text-anchor="middle" x="1049" y="-375.5" font-family="sans" font-size="10.00">run_model_solution2_run2</text>
</g>
<!-- 26&#45;&gt;29 -->
<g id="edge46" class="edge">
<title>26&#45;&gt;29</title>
<path fill="none" stroke="grey" stroke-width="2" d="M903.21,-431.88C930.07,-422.14 963.88,-409.87 992.18,-399.61"/>
<polygon fill="grey" stroke="grey" stroke-width="2" points="993.73,-402.77 1001.94,-396.07 991.35,-396.19 993.73,-402.77"/>
</g>
<!-- 27&#45;&gt;26 -->
<g id="edge43" class="edge">
<title>27&#45;&gt;26</title>
<path fill="none" stroke="grey" stroke-width="2" d="M808.57,-503.7C816.2,-495.22 825.52,-484.86 833.88,-475.58"/>
<polygon fill="grey" stroke="grey" stroke-width="2" points="836.52,-477.88 840.61,-468.1 831.31,-473.2 836.52,-477.88"/>
</g>
<!-- 28 -->
<g id="node29" class="node">
<title>28</title>
<path fill="none" stroke="#d86e56" stroke-width="2" d="M1155.5,-252C1155.5,-252 1028.5,-252 1028.5,-252 1022.5,-252 1016.5,-246 1016.5,-240 1016.5,-240 1016.5,-228 1016.5,-228 1016.5,-222 1022.5,-216 1028.5,-216 1028.5,-216 1155.5,-216 1155.5,-216 1161.5,-216 1167.5,-222 1167.5,-228 1167.5,-228 1167.5,-240 1167.5,-240 1167.5,-246 1161.5,-252 1155.5,-252"/>
<text text-anchor="middle" x="1092" y="-231.5" font-family="sans" font-size="10.00">post_model_solution2_run2</text>
</g>
<!-- 28&#45;&gt;1 -->
<g id="edge9" class="edge">
<title>28&#45;&gt;1</title>
<path fill="none" stroke="grey" stroke-width="2" d="M1080.75,-215.65C1066.56,-195.21 1040.19,-161.81 1009,-144 945,-107.46 858.11,-96.1 808.36,-92.58"/>
<polygon fill="grey" stroke="grey" stroke-width="2" points="808.53,-89.08 798.32,-91.94 808.08,-96.07 808.53,-89.08"/>
</g>
<!-- 29&#45;&gt;28 -->
<g id="edge45" class="edge">
<title>29&#45;&gt;28</title>
<path fill="none" stroke="grey" stroke-width="2" d="M1057.51,-359.65C1062.27,-349.46 1068.02,-336.21 1072,-324 1078.62,-303.71 1083.81,-280.11 1087.25,-262.31"/>
<polygon fill="grey" stroke="grey" stroke-width="2" points="1090.72,-262.79 1089.11,-252.32 1083.84,-261.51 1090.72,-262.79"/>
</g>
<!-- 32 -->
<g id="node33" class="node">
<title>32</title>
<path fill="none" stroke="#56c1d8" stroke-width="2" d="M986,-252C986,-252 864,-252 864,-252 858,-252 852,-246 852,-240 852,-240 852,-228 852,-228 852,-222 858,-216 864,-216 864,-216 986,-216 986,-216 992,-216 998,-222 998,-228 998,-228 998,-240 998,-240 998,-246 992,-252 986,-252"/>
<text text-anchor="middle" x="925" y="-231.5" font-family="sans" font-size="10.00">run_model_solution2_run3</text>
</g>
<!-- 29&#45;&gt;32 -->
<g id="edge51" class="edge">
<title>29&#45;&gt;32</title>
<path fill="none" stroke="grey" stroke-width="2" d="M1051.47,-359.84C1053.3,-340.51 1053.27,-309.05 1038,-288 1028,-274.22 1013.49,-263.9 998.19,-256.23"/>
<polygon fill="grey" stroke="grey" stroke-width="2" points="999.66,-253.05 989.11,-252 996.7,-259.39 999.66,-253.05"/>
</g>
<!-- 30&#45;&gt;29 -->
<g id="edge47" class="edge">
<title>30&#45;&gt;29</title>
<path fill="none" stroke="grey" stroke-width="2" d="M1024.38,-503.87C1029.17,-479.56 1037.99,-434.82 1043.67,-406.01"/>
<polygon fill="grey" stroke="grey" stroke-width="2" points="1047.11,-406.68 1045.61,-396.19 1040.24,-405.32 1047.11,-406.68"/>
</g>
<!-- 31 -->
<g id="node32" class="node">
<title>31</title>
<path fill="none" stroke="#56a9d8" stroke-width="2" d="M988.5,-180C988.5,-180 861.5,-180 861.5,-180 855.5,-180 849.5,-174 849.5,-168 849.5,-168 849.5,-156 849.5,-156 849.5,-150 855.5,-144 861.5,-144 861.5,-144 988.5,-144 988.5,-144 994.5,-144 1000.5,-150 1000.5,-156 1000.5,-156 1000.5,-168 1000.5,-168 1000.5,-174 994.5,-180 988.5,-180"/>
<text text-anchor="middle" x="925" y="-159.5" font-family="sans" font-size="10.00">post_model_solution2_run3</text>
</g>
<!-- 31&#45;&gt;1 -->
<g id="edge10" class="edge">
<title>31&#45;&gt;1</title>
<path fill="none" stroke="grey" stroke-width="2" d="M886.84,-143.88C862.79,-133.08 831.83,-119.19 807.69,-108.36"/>
<polygon fill="grey" stroke="grey" stroke-width="2" points="809.02,-105.12 798.46,-104.22 806.15,-111.51 809.02,-105.12"/>
</g>
<!-- 32&#45;&gt;31 -->
<g id="edge49" class="edge">
<title>32&#45;&gt;31</title>
<path fill="none" stroke="grey" stroke-width="2" d="M925,-215.7C925,-207.98 925,-198.71 925,-190.11"/>
<polygon fill="grey" stroke="grey" stroke-width="2" points="928.5,-190.1 925,-180.1 921.5,-190.1 928.5,-190.1"/>
</g>
<!-- 33&#45;&gt;32 -->
<g id="edge50" class="edge">
<title>33&#45;&gt;32</title>
<path fill="none" stroke="grey" stroke-width="2" d="M934.03,-287.7C932.71,-279.98 931.12,-270.71 929.65,-262.11"/>
<polygon fill="grey" stroke="grey" stroke-width="2" points="933.07,-261.37 927.93,-252.1 926.17,-262.55 933.07,-261.37"/>
</g>
<!-- 34 -->
<g id="node35" class="node">
<title>34</title>
<path fill="none" stroke="#8fd856" stroke-width="2" d="M1270,-396C1270,-396 1170,-396 1170,-396 1164,-396 1158,-390 1158,-384 1158,-384 1158,-372 1158,-372 1158,-366 1164,-360 1170,-360 1170,-360 1270,-360 1270,-360 1276,-360 1282,-366 1282,-372 1282,-372 1282,-384 1282,-384 1282,-390 1276,-396 1270,-396"/>
<text text-anchor="middle" x="1220" y="-375.5" font-family="sans" font-size="10.00">post_model_solution1</text>
</g>
<!-- 34&#45;&gt;1 -->
<g id="edge11" class="edge">
<title>34&#45;&gt;1</title>
<path fill="none" stroke="grey" stroke-width="2" d="M1217.08,-359.98C1210.54,-323.37 1193.85,-238.64 1176,-216 1134.87,-163.82 1107.5,-166.54 1045,-144 963.89,-114.75 863.24,-100.63 808.68,-94.68"/>
<polygon fill="grey" stroke="grey" stroke-width="2" points="808.71,-91.17 798.4,-93.6 807.98,-98.13 808.71,-91.17"/>
</g>
<!-- 34&#45;&gt;42 -->
<g id="edge65" class="edge">
<title>34&#45;&gt;42</title>
<path fill="none" stroke="grey" stroke-width="2" d="M1243.98,-359.7C1256.31,-350.8 1271.52,-339.82 1284.85,-330.2"/>
<polygon fill="grey" stroke="grey" stroke-width="2" points="1287.24,-332.79 1293.3,-324.1 1283.14,-327.12 1287.24,-332.79"/>
</g>
<!-- 35 -->
<g id="node36" class="node">
<title>35</title>
<path fill="none" stroke="#afd856" stroke-width="2" d="M1267.5,-468C1267.5,-468 1172.5,-468 1172.5,-468 1166.5,-468 1160.5,-462 1160.5,-456 1160.5,-456 1160.5,-444 1160.5,-444 1160.5,-438 1166.5,-432 1172.5,-432 1172.5,-432 1267.5,-432 1267.5,-432 1273.5,-432 1279.5,-438 1279.5,-444 1279.5,-444 1279.5,-456 1279.5,-456 1279.5,-462 1273.5,-468 1267.5,-468"/>
<text text-anchor="middle" x="1220" y="-447.5" font-family="sans" font-size="10.00">run_model_solution1</text>
</g>
<!-- 35&#45;&gt;34 -->
<g id="edge54" class="edge">
<title>35&#45;&gt;34</title>
<path fill="none" stroke="grey" stroke-width="2" d="M1220,-431.7C1220,-423.98 1220,-414.71 1220,-406.11"/>
<polygon fill="grey" stroke="grey" stroke-width="2" points="1223.5,-406.1 1220,-396.1 1216.5,-406.1 1223.5,-406.1"/>
</g>
<!-- 38 -->
<g id="node39" class="node">
<title>38</title>
<path fill="none" stroke="#56d882" stroke-width="2" d="M1499,-396C1499,-396 1377,-396 1377,-396 1371,-396 1365,-390 1365,-384 1365,-384 1365,-372 1365,-372 1365,-366 1371,-360 1377,-360 1377,-360 1499,-360 1499,-360 1505,-360 1511,-366 1511,-372 1511,-372 1511,-384 1511,-384 1511,-390 1505,-396 1499,-396"/>
<text text-anchor="middle" x="1438" y="-375.5" font-family="sans" font-size="10.00">run_model_solution1_run2</text>
</g>
<!-- 35&#45;&gt;38 -->
<g id="edge58" class="edge">
<title>35&#45;&gt;38</title>
<path fill="none" stroke="grey" stroke-width="2" d="M1273.05,-431.97C1303.77,-422.1 1342.64,-409.62 1374.92,-399.25"/>
<polygon fill="grey" stroke="grey" stroke-width="2" points="1376.26,-402.5 1384.71,-396.11 1374.12,-395.84 1376.26,-402.5"/>
</g>
<!-- 36&#45;&gt;35 -->
<g id="edge55" class="edge">
<title>36&#45;&gt;35</title>
<path fill="none" stroke="grey" stroke-width="2" d="M1213.22,-503.7C1214.22,-495.98 1215.41,-486.71 1216.51,-478.11"/>
<polygon fill="grey" stroke="grey" stroke-width="2" points="1220,-478.47 1217.8,-468.1 1213.05,-477.58 1220,-478.47"/>
</g>
<!-- 37 -->
<g id="node38" class="node">
<title>37</title>
<path fill="none" stroke="#56d8b1" stroke-width="2" d="M1605.5,-324C1605.5,-324 1478.5,-324 1478.5,-324 1472.5,-324 1466.5,-318 1466.5,-312 1466.5,-312 1466.5,-300 1466.5,-300 1466.5,-294 1472.5,-288 1478.5,-288 1478.5,-288 1605.5,-288 1605.5,-288 1611.5,-288 1617.5,-294 1617.5,-300 1617.5,-300 1617.5,-312 1617.5,-312 1617.5,-318 1611.5,-324 1605.5,-324"/>
<text text-anchor="middle" x="1542" y="-303.5" font-family="sans" font-size="10.00">post_model_solution1_run2</text>
</g>
<!-- 37&#45;&gt;1 -->
<g id="edge12" class="edge">
<title>37&#45;&gt;1</title>
<path fill="none" stroke="grey" stroke-width="2" d="M1532.47,-287.75C1512.4,-253.35 1462.12,-176.7 1396,-144 1292.04,-92.58 929.16,-90 808.42,-90.61"/>
<polygon fill="grey" stroke="grey" stroke-width="2" points="808.14,-87.11 798.16,-90.68 808.18,-94.11 808.14,-87.11"/>
</g>
<!-- 38&#45;&gt;37 -->
<g id="edge57" class="edge">
<title>38&#45;&gt;37</title>
<path fill="none" stroke="grey" stroke-width="2" d="M1463.44,-359.88C1476.79,-350.89 1493.32,-339.76 1507.78,-330.03"/>
<polygon fill="grey" stroke="grey" stroke-width="2" points="1510.12,-332.68 1516.46,-324.19 1506.21,-326.87 1510.12,-332.68"/>
</g>
<!-- 41 -->
<g id="node42" class="node">
<title>41</title>
<path fill="none" stroke="#d8d356" stroke-width="2" d="M1378,-252C1378,-252 1256,-252 1256,-252 1250,-252 1244,-246 1244,-240 1244,-240 1244,-228 1244,-228 1244,-222 1250,-216 1256,-216 1256,-216 1378,-216 1378,-216 1384,-216 1390,-222 1390,-228 1390,-228 1390,-240 1390,-240 1390,-246 1384,-252 1378,-252"/>
<text text-anchor="middle" x="1317" y="-231.5" font-family="sans" font-size="10.00">run_model_solution1_run3</text>
</g>
<!-- 38&#45;&gt;41 -->
<g id="edge63" class="edge">
<title>38&#45;&gt;41</title>
<path fill="none" stroke="grey" stroke-width="2" d="M1438.27,-359.82C1437.7,-340.47 1434.1,-308.99 1418,-288 1407.82,-274.73 1393.36,-264.44 1378.56,-256.62"/>
<polygon fill="grey" stroke="grey" stroke-width="2" points="1379.85,-253.35 1369.33,-252.06 1376.75,-259.63 1379.85,-253.35"/>
</g>
<!-- 39&#45;&gt;38 -->
<g id="edge59" class="edge">
<title>39&#45;&gt;38</title>
<path fill="none" stroke="grey" stroke-width="2" d="M1438.88,-503.87C1438.71,-479.67 1438.4,-435.21 1438.19,-406.39"/>
<polygon fill="grey" stroke="grey" stroke-width="2" points="1441.69,-406.16 1438.12,-396.19 1434.69,-406.21 1441.69,-406.16"/>
</g>
<!-- 40 -->
<g id="node41" class="node">
<title>40</title>
<path fill="none" stroke="#d87d56" stroke-width="2" d="M1375.5,-180C1375.5,-180 1248.5,-180 1248.5,-180 1242.5,-180 1236.5,-174 1236.5,-168 1236.5,-168 1236.5,-156 1236.5,-156 1236.5,-150 1242.5,-144 1248.5,-144 1248.5,-144 1375.5,-144 1375.5,-144 1381.5,-144 1387.5,-150 1387.5,-156 1387.5,-156 1387.5,-168 1387.5,-168 1387.5,-174 1381.5,-180 1375.5,-180"/>
<text text-anchor="middle" x="1312" y="-159.5" font-family="sans" font-size="10.00">post_model_solution1_run3</text>
</g>
<!-- 40&#45;&gt;1 -->
<g id="edge13" class="edge">
<title>40&#45;&gt;1</title>
<path fill="none" stroke="grey" stroke-width="2" d="M1236.31,-147.99C1227.45,-146.58 1218.53,-145.22 1210,-144 1062.19,-122.81 885.67,-103.35 808.44,-95.13"/>
<polygon fill="grey" stroke="grey" stroke-width="2" points="808.53,-91.62 798.22,-94.05 807.79,-98.58 808.53,-91.62"/>
</g>
<!-- 41&#45;&gt;40 -->
<g id="edge61" class="edge">
<title>41&#45;&gt;40</title>
<path fill="none" stroke="grey" stroke-width="2" d="M1315.76,-215.7C1315.21,-207.98 1314.55,-198.71 1313.94,-190.11"/>
<polygon fill="grey" stroke="grey" stroke-width="2" points="1317.43,-189.83 1313.22,-180.1 1310.44,-190.33 1317.43,-189.83"/>
</g>
<!-- 42&#45;&gt;41 -->
<g id="edge62" class="edge">
<title>42&#45;&gt;41</title>
<path fill="none" stroke="grey" stroke-width="2" d="M1317,-287.7C1317,-279.98 1317,-270.71 1317,-262.11"/>
<polygon fill="grey" stroke="grey" stroke-width="2" points="1320.5,-262.1 1317,-252.1 1313.5,-262.1 1320.5,-262.1"/>
</g>
</g>
</svg>
