<?xml version="1.0" encoding="UTF-8" standalone="no"?>
<!DOCTYPE svg PUBLIC "-//W3C//DTD SVG 1.1//EN"
 "http://www.w3.org/Graphics/SVG/1.1/DTD/svg11.dtd">
<!-- Generated by graphviz version 2.44.0 (0)
 -->
<!-- Title: snakemake_dag Pages: 1 -->
<svg width="694pt" height="1052pt"
 viewBox="0.00 0.00 694.00 1052.00" xmlns="http://www.w3.org/2000/svg" xmlns:xlink="http://www.w3.org/1999/xlink">
<g id="graph0" class="graph" transform="scale(1 1) rotate(0) translate(4 1048)">
<title>snakemake_dag</title>
<polygon fill="white" stroke="transparent" points="-4,4 -4,-1048 690,-1048 690,4 -4,4"/>
<!-- 0 -->
<g id="node1" class="node">
<title>0</title>
<path fill="none" stroke="#d88556" stroke-width="2" d="M360,-36C360,-36 326,-36 326,-36 320,-36 314,-30 314,-24 314,-24 314,-12 314,-12 314,-6 320,0 326,0 326,0 360,0 360,0 366,0 372,-6 372,-12 372,-12 372,-24 372,-24 372,-30 366,-36 360,-36"/>
<text text-anchor="middle" x="343" y="-15.5" font-family="sans" font-size="10.00">wrap_up</text>
</g>
<!-- 1 -->
<g id="node2" class="node">
<title>1</title>
<path fill="none" stroke="#d86656" stroke-width="2" d="M159.5,-180C159.5,-180 38.5,-180 38.5,-180 32.5,-180 26.5,-174 26.5,-168 26.5,-168 26.5,-156 26.5,-156 26.5,-150 32.5,-144 38.5,-144 38.5,-144 159.5,-144 159.5,-144 165.5,-144 171.5,-150 171.5,-156 171.5,-156 171.5,-168 171.5,-168 171.5,-174 165.5,-180 159.5,-180"/>
<text text-anchor="middle" x="99" y="-159.5" font-family="sans" font-size="10.00">post_model_solution3_rep</text>
</g>
<!-- 1&#45;&gt;0 -->
<g id="edge1" class="edge">
<title>1&#45;&gt;0</title>
<path fill="none" stroke="grey" stroke-width="2" d="M128.43,-143.87C172.7,-118.11 256.42,-69.39 305.17,-41.02"/>
<polygon fill="grey" stroke="grey" stroke-width="2" points="306.96,-44.02 313.84,-35.97 303.44,-37.97 306.96,-44.02"/>
</g>
<!-- 29 -->
<g id="node30" class="node">
<title>29</title>
<path fill="none" stroke="#d89c56" stroke-width="2" d="M386,-108C386,-108 300,-108 300,-108 294,-108 288,-102 288,-96 288,-96 288,-84 288,-84 288,-78 294,-72 300,-72 300,-72 386,-72 386,-72 392,-72 398,-78 398,-84 398,-84 398,-96 398,-96 398,-102 392,-108 386,-108"/>
<text text-anchor="middle" x="343" y="-87.5" font-family="sans" font-size="10.00">analyse_heads_rep</text>
</g>
<!-- 1&#45;&gt;29 -->
<g id="edge41" class="edge">
<title>1&#45;&gt;29</title>
<path fill="none" stroke="grey" stroke-width="2" d="M158.38,-143.97C194.63,-133.56 241.02,-120.26 278.22,-109.58"/>
<polygon fill="grey" stroke="grey" stroke-width="2" points="279.31,-112.91 287.96,-106.79 277.38,-106.18 279.31,-112.91"/>
</g>
<!-- 2 -->
<g id="node3" class="node">
<title>2</title>
<path fill="none" stroke="#56b9d8" stroke-width="2" d="M162,-252C162,-252 46,-252 46,-252 40,-252 34,-246 34,-240 34,-240 34,-228 34,-228 34,-222 40,-216 46,-216 46,-216 162,-216 162,-216 168,-216 174,-222 174,-228 174,-228 174,-240 174,-240 174,-246 168,-252 162,-252"/>
<text text-anchor="middle" x="104" y="-231.5" font-family="sans" font-size="10.00">run_model_solution3_rep</text>
</g>
<!-- 2&#45;&gt;1 -->
<g id="edge6" class="edge">
<title>2&#45;&gt;1</title>
<path fill="none" stroke="grey" stroke-width="2" d="M102.76,-215.7C102.21,-207.98 101.55,-198.71 100.94,-190.11"/>
<polygon fill="grey" stroke="grey" stroke-width="2" points="104.43,-189.83 100.22,-180.1 97.44,-190.33 104.43,-189.83"/>
</g>
<!-- 3 -->
<g id="node4" class="node">
<title>3</title>
<path fill="none" stroke="#56d882" stroke-width="2" stroke-dasharray="5,2" d="M375.5,-324C375.5,-324 310.5,-324 310.5,-324 304.5,-324 298.5,-318 298.5,-312 298.5,-312 298.5,-300 298.5,-300 298.5,-294 304.5,-288 310.5,-288 310.5,-288 375.5,-288 375.5,-288 381.5,-288 387.5,-294 387.5,-300 387.5,-300 387.5,-312 387.5,-312 387.5,-318 381.5,-324 375.5,-324"/>
<text text-anchor="middle" x="343" y="-303.5" font-family="sans" font-size="10.00">analyse_heads</text>
</g>
<!-- 3&#45;&gt;2 -->
<g id="edge7" class="edge">
<title>3&#45;&gt;2</title>
<path fill="none" stroke="grey" stroke-width="2" d="M298.33,-291.92C262.88,-281.53 212.73,-266.85 172.26,-254.99"/>
<polygon fill="grey" stroke="grey" stroke-width="2" points="173.04,-251.57 162.46,-252.12 171.07,-258.29 173.04,-251.57"/>
</g>
<!-- 24 -->
<g id="node25" class="node">
<title>24</title>
<path fill="none" stroke="#56d873" stroke-width="2" d="M322,-252C322,-252 206,-252 206,-252 200,-252 194,-246 194,-240 194,-240 194,-228 194,-228 194,-222 200,-216 206,-216 206,-216 322,-216 322,-216 328,-216 334,-222 334,-228 334,-228 334,-240 334,-240 334,-246 328,-252 322,-252"/>
<text text-anchor="middle" x="264" y="-231.5" font-family="sans" font-size="10.00">run_model_solution4_rep</text>
</g>
<!-- 3&#45;&gt;24 -->
<g id="edge34" class="edge">
<title>3&#45;&gt;24</title>
<path fill="none" stroke="grey" stroke-width="2" d="M323.47,-287.7C313.62,-278.97 301.51,-268.24 290.8,-258.75"/>
<polygon fill="grey" stroke="grey" stroke-width="2" points="293.11,-256.12 283.3,-252.1 288.47,-261.36 293.11,-256.12"/>
</g>
<!-- 26 -->
<g id="node27" class="node">
<title>26</title>
<path fill="none" stroke="#5663d8" stroke-width="2" d="M481,-252C481,-252 365,-252 365,-252 359,-252 353,-246 353,-240 353,-240 353,-228 353,-228 353,-222 359,-216 365,-216 365,-216 481,-216 481,-216 487,-216 493,-222 493,-228 493,-228 493,-240 493,-240 493,-246 487,-252 481,-252"/>
<text text-anchor="middle" x="423" y="-231.5" font-family="sans" font-size="10.00">run_model_solution2_rep</text>
</g>
<!-- 3&#45;&gt;26 -->
<g id="edge36" class="edge">
<title>3&#45;&gt;26</title>
<path fill="none" stroke="grey" stroke-width="2" d="M362.78,-287.7C372.75,-278.97 385.01,-268.24 395.86,-258.75"/>
<polygon fill="grey" stroke="grey" stroke-width="2" points="398.23,-261.32 403.45,-252.1 393.62,-256.06 398.23,-261.32"/>
</g>
<!-- 28 -->
<g id="node29" class="node">
<title>28</title>
<path fill="none" stroke="#569ad8" stroke-width="2" d="M642,-252C642,-252 526,-252 526,-252 520,-252 514,-246 514,-240 514,-240 514,-228 514,-228 514,-222 520,-216 526,-216 526,-216 642,-216 642,-216 648,-216 654,-222 654,-228 654,-228 654,-240 654,-240 654,-246 648,-252 642,-252"/>
<text text-anchor="middle" x="584" y="-231.5" font-family="sans" font-size="10.00">run_model_solution1_rep</text>
</g>
<!-- 3&#45;&gt;28 -->
<g id="edge38" class="edge">
<title>3&#45;&gt;28</title>
<path fill="none" stroke="grey" stroke-width="2" d="M387.77,-292C423.68,-281.57 474.69,-266.75 515.7,-254.84"/>
<polygon fill="grey" stroke="grey" stroke-width="2" points="516.73,-258.18 525.36,-252.03 514.78,-251.46 516.73,-258.18"/>
</g>
<!-- 4 -->
<g id="node5" class="node">
<title>4</title>
<path fill="none" stroke="#d85656" stroke-width="2" stroke-dasharray="5,2" d="M180,-396C180,-396 80,-396 80,-396 74,-396 68,-390 68,-384 68,-384 68,-372 68,-372 68,-366 74,-360 80,-360 80,-360 180,-360 180,-360 186,-360 192,-366 192,-372 192,-372 192,-384 192,-384 192,-390 186,-396 180,-396"/>
<text text-anchor="middle" x="130" y="-375.5" font-family="sans" font-size="10.00">post_model_solution1</text>
</g>
<!-- 4&#45;&gt;3 -->
<g id="edge8" class="edge">
<title>4&#45;&gt;3</title>
<path fill="none" stroke="grey" stroke-width="2" d="M181.83,-359.97C214.08,-349.37 255.51,-335.75 288.29,-324.98"/>
<polygon fill="grey" stroke="grey" stroke-width="2" points="289.76,-328.18 298.17,-321.73 287.57,-321.53 289.76,-328.18"/>
</g>
<!-- 5 -->
<g id="node6" class="node">
<title>5</title>
<path fill="none" stroke="#70d856" stroke-width="2" stroke-dasharray="5,2" d="M182.5,-468C182.5,-468 87.5,-468 87.5,-468 81.5,-468 75.5,-462 75.5,-456 75.5,-456 75.5,-444 75.5,-444 75.5,-438 81.5,-432 87.5,-432 87.5,-432 182.5,-432 182.5,-432 188.5,-432 194.5,-438 194.5,-444 194.5,-444 194.5,-456 194.5,-456 194.5,-462 188.5,-468 182.5,-468"/>
<text text-anchor="middle" x="135" y="-447.5" font-family="sans" font-size="10.00">run_model_solution1</text>
</g>
<!-- 5&#45;&gt;4 -->
<g id="edge12" class="edge">
<title>5&#45;&gt;4</title>
<path fill="none" stroke="grey" stroke-width="2" d="M133.76,-431.7C133.21,-423.98 132.55,-414.71 131.94,-406.11"/>
<polygon fill="grey" stroke="grey" stroke-width="2" points="135.43,-405.83 131.22,-396.1 128.44,-406.33 135.43,-405.83"/>
</g>
<!-- 6 -->
<g id="node7" class="node">
<title>6</title>
<path fill="none" stroke="#56d85b" stroke-width="2" stroke-dasharray="5,2" d="M392.5,-540C392.5,-540 293.5,-540 293.5,-540 287.5,-540 281.5,-534 281.5,-528 281.5,-528 281.5,-516 281.5,-516 281.5,-510 287.5,-504 293.5,-504 293.5,-504 392.5,-504 392.5,-504 398.5,-504 404.5,-510 404.5,-516 404.5,-516 404.5,-528 404.5,-528 404.5,-534 398.5,-540 392.5,-540"/>
<text text-anchor="middle" x="343" y="-519.5" font-family="sans" font-size="10.00">modify_ini_conditions</text>
</g>
<!-- 6&#45;&gt;5 -->
<g id="edge13" class="edge">
<title>6&#45;&gt;5</title>
<path fill="none" stroke="grey" stroke-width="2" d="M292.38,-503.97C263.19,-494.14 226.31,-481.73 195.58,-471.39"/>
<polygon fill="grey" stroke="grey" stroke-width="2" points="196.44,-467.98 185.84,-468.11 194.2,-474.62 196.44,-467.98"/>
</g>
<!-- 18 -->
<g id="node19" class="node">
<title>18</title>
<path fill="none" stroke="#80d856" stroke-width="2" stroke-dasharray="5,2" d="M321.5,-468C321.5,-468 226.5,-468 226.5,-468 220.5,-468 214.5,-462 214.5,-456 214.5,-456 214.5,-444 214.5,-444 214.5,-438 220.5,-432 226.5,-432 226.5,-432 321.5,-432 321.5,-432 327.5,-432 333.5,-438 333.5,-444 333.5,-444 333.5,-456 333.5,-456 333.5,-462 327.5,-468 321.5,-468"/>
<text text-anchor="middle" x="274" y="-447.5" font-family="sans" font-size="10.00">run_model_solution2</text>
</g>
<!-- 6&#45;&gt;18 -->
<g id="edge28" class="edge">
<title>6&#45;&gt;18</title>
<path fill="none" stroke="grey" stroke-width="2" d="M325.94,-503.7C317.5,-495.14 307.18,-484.66 297.96,-475.3"/>
<polygon fill="grey" stroke="grey" stroke-width="2" points="300.37,-472.77 290.86,-468.1 295.39,-477.68 300.37,-472.77"/>
</g>
<!-- 20 -->
<g id="node21" class="node">
<title>20</title>
<path fill="none" stroke="#56d8a2" stroke-width="2" stroke-dasharray="5,2" d="M459.5,-468C459.5,-468 364.5,-468 364.5,-468 358.5,-468 352.5,-462 352.5,-456 352.5,-456 352.5,-444 352.5,-444 352.5,-438 358.5,-432 364.5,-432 364.5,-432 459.5,-432 459.5,-432 465.5,-432 471.5,-438 471.5,-444 471.5,-444 471.5,-456 471.5,-456 471.5,-462 465.5,-468 459.5,-468"/>
<text text-anchor="middle" x="412" y="-447.5" font-family="sans" font-size="10.00">run_model_solution3</text>
</g>
<!-- 6&#45;&gt;20 -->
<g id="edge30" class="edge">
<title>6&#45;&gt;20</title>
<path fill="none" stroke="grey" stroke-width="2" d="M360.06,-503.7C368.5,-495.14 378.82,-484.66 388.04,-475.3"/>
<polygon fill="grey" stroke="grey" stroke-width="2" points="390.61,-477.68 395.14,-468.1 385.63,-472.77 390.61,-477.68"/>
</g>
<!-- 22 -->
<g id="node23" class="node">
<title>22</title>
<path fill="none" stroke="#56d8b1" stroke-width="2" stroke-dasharray="5,2" d="M599.5,-468C599.5,-468 504.5,-468 504.5,-468 498.5,-468 492.5,-462 492.5,-456 492.5,-456 492.5,-444 492.5,-444 492.5,-438 498.5,-432 504.5,-432 504.5,-432 599.5,-432 599.5,-432 605.5,-432 611.5,-438 611.5,-444 611.5,-444 611.5,-456 611.5,-456 611.5,-462 605.5,-468 599.5,-468"/>
<text text-anchor="middle" x="552" y="-447.5" font-family="sans" font-size="10.00">run_model_solution4</text>
</g>
<!-- 6&#45;&gt;22 -->
<g id="edge32" class="edge">
<title>6&#45;&gt;22</title>
<path fill="none" stroke="grey" stroke-width="2" d="M393.86,-503.97C423.19,-494.14 460.25,-481.73 491.12,-471.39"/>
<polygon fill="grey" stroke="grey" stroke-width="2" points="492.54,-474.61 500.91,-468.11 490.32,-467.97 492.54,-474.61"/>
</g>
<!-- 7 -->
<g id="node8" class="node">
<title>7</title>
<path fill="none" stroke="#56d892" stroke-width="2" stroke-dasharray="5,2" d="M146,-612C146,-612 12,-612 12,-612 6,-612 0,-606 0,-600 0,-600 0,-588 0,-588 0,-582 6,-576 12,-576 12,-576 146,-576 146,-576 152,-576 158,-582 158,-588 158,-588 158,-600 158,-600 158,-606 152,-612 146,-612"/>
<text text-anchor="middle" x="79" y="-591.5" font-family="sans" font-size="10.00">write_model_input_solution1</text>
</g>
<!-- 7&#45;&gt;6 -->
<g id="edge14" class="edge">
<title>7&#45;&gt;6</title>
<path fill="none" stroke="grey" stroke-width="2" d="M143.24,-575.97C182.02,-565.68 231.5,-552.57 271.51,-541.96"/>
<polygon fill="grey" stroke="grey" stroke-width="2" points="272.43,-545.33 281.2,-539.39 270.64,-538.57 272.43,-545.33"/>
</g>
<!-- 8 -->
<g id="node9" class="node">
<title>8</title>
<path fill="none" stroke="#56c9d8" stroke-width="2" stroke-dasharray="5,2" d="M401,-684C401,-684 285,-684 285,-684 279,-684 273,-678 273,-672 273,-672 273,-660 273,-660 273,-654 279,-648 285,-648 285,-648 401,-648 401,-648 407,-648 413,-654 413,-660 413,-660 413,-672 413,-672 413,-678 407,-684 401,-684"/>
<text text-anchor="middle" x="343" y="-663.5" font-family="sans" font-size="10.00">write_model_input_maps</text>
</g>
<!-- 8&#45;&gt;7 -->
<g id="edge18" class="edge">
<title>8&#45;&gt;7</title>
<path fill="none" stroke="grey" stroke-width="2" d="M278.76,-647.97C240.91,-637.93 192.86,-625.19 153.38,-614.72"/>
<polygon fill="grey" stroke="grey" stroke-width="2" points="154.1,-611.29 143.53,-612.11 152.3,-618.06 154.1,-611.29"/>
</g>
<!-- 14 -->
<g id="node15" class="node">
<title>14</title>
<path fill="none" stroke="#afd856" stroke-width="2" stroke-dasharray="5,2" d="M322,-612C322,-612 188,-612 188,-612 182,-612 176,-606 176,-600 176,-600 176,-588 176,-588 176,-582 182,-576 188,-576 188,-576 322,-576 322,-576 328,-576 334,-582 334,-588 334,-588 334,-600 334,-600 334,-606 328,-612 322,-612"/>
<text text-anchor="middle" x="255" y="-591.5" font-family="sans" font-size="10.00">write_model_input_solution2</text>
</g>
<!-- 8&#45;&gt;14 -->
<g id="edge24" class="edge">
<title>8&#45;&gt;14</title>
<path fill="none" stroke="grey" stroke-width="2" d="M321.25,-647.7C310.16,-638.88 296.53,-628.03 284.51,-618.47"/>
<polygon fill="grey" stroke="grey" stroke-width="2" points="286.51,-615.59 276.5,-612.1 282.15,-621.07 286.51,-615.59"/>
</g>
<!-- 15 -->
<g id="node16" class="node">
<title>15</title>
<path fill="none" stroke="#d87556" stroke-width="2" stroke-dasharray="5,2" d="M498,-612C498,-612 364,-612 364,-612 358,-612 352,-606 352,-600 352,-600 352,-588 352,-588 352,-582 358,-576 364,-576 364,-576 498,-576 498,-576 504,-576 510,-582 510,-588 510,-588 510,-600 510,-600 510,-606 504,-612 498,-612"/>
<text text-anchor="middle" x="431" y="-591.5" font-family="sans" font-size="10.00">write_model_input_solution3</text>
</g>
<!-- 8&#45;&gt;15 -->
<g id="edge25" class="edge">
<title>8&#45;&gt;15</title>
<path fill="none" stroke="grey" stroke-width="2" d="M364.75,-647.7C375.84,-638.88 389.47,-628.03 401.49,-618.47"/>
<polygon fill="grey" stroke="grey" stroke-width="2" points="403.85,-621.07 409.5,-612.1 399.49,-615.59 403.85,-621.07"/>
</g>
<!-- 16 -->
<g id="node17" class="node">
<title>16</title>
<path fill="none" stroke="#568ad8" stroke-width="2" stroke-dasharray="5,2" d="M674,-612C674,-612 540,-612 540,-612 534,-612 528,-606 528,-600 528,-600 528,-588 528,-588 528,-582 534,-576 540,-576 540,-576 674,-576 674,-576 680,-576 686,-582 686,-588 686,-588 686,-600 686,-600 686,-606 680,-612 674,-612"/>
<text text-anchor="middle" x="607" y="-591.5" font-family="sans" font-size="10.00">write_model_input_solution4</text>
</g>
<!-- 8&#45;&gt;16 -->
<g id="edge26" class="edge">
<title>8&#45;&gt;16</title>
<path fill="none" stroke="grey" stroke-width="2" d="M407.24,-647.97C445.09,-637.93 493.14,-625.19 532.62,-614.72"/>
<polygon fill="grey" stroke="grey" stroke-width="2" points="533.7,-618.06 542.47,-612.11 531.9,-611.29 533.7,-618.06"/>
</g>
<!-- 9 -->
<g id="node10" class="node">
<title>9</title>
<path fill="none" stroke="#56d8d0" stroke-width="2" stroke-dasharray="5,2" d="M401,-756C401,-756 285,-756 285,-756 279,-756 273,-750 273,-744 273,-744 273,-732 273,-732 273,-726 279,-720 285,-720 285,-720 401,-720 401,-720 407,-720 413,-726 413,-732 413,-732 413,-744 413,-744 413,-750 407,-756 401,-756"/>
<text text-anchor="middle" x="343" y="-735.5" font-family="sans" font-size="10.00">write_model_input_setup</text>
</g>
<!-- 9&#45;&gt;8 -->
<g id="edge19" class="edge">
<title>9&#45;&gt;8</title>
<path fill="none" stroke="grey" stroke-width="2" d="M343,-719.7C343,-711.98 343,-702.71 343,-694.11"/>
<polygon fill="grey" stroke="grey" stroke-width="2" points="346.5,-694.1 343,-684.1 339.5,-694.1 346.5,-694.1"/>
</g>
<!-- 10 -->
<g id="node11" class="node">
<title>10</title>
<path fill="none" stroke="#d8ac56" stroke-width="2" stroke-dasharray="5,2" d="M389,-828C389,-828 297,-828 297,-828 291,-828 285,-822 285,-816 285,-816 285,-804 285,-804 285,-798 291,-792 297,-792 297,-792 389,-792 389,-792 395,-792 401,-798 401,-804 401,-804 401,-816 401,-816 401,-822 395,-828 389,-828"/>
<text text-anchor="middle" x="343" y="-807.5" font-family="sans" font-size="10.00">write_model_forcing</text>
</g>
<!-- 10&#45;&gt;9 -->
<g id="edge20" class="edge">
<title>10&#45;&gt;9</title>
<path fill="none" stroke="grey" stroke-width="2" d="M343,-791.7C343,-783.98 343,-774.71 343,-766.11"/>
<polygon fill="grey" stroke="grey" stroke-width="2" points="346.5,-766.1 343,-756.1 339.5,-766.1 346.5,-766.1"/>
</g>
<!-- 11 -->
<g id="node12" class="node">
<title>11</title>
<path fill="none" stroke="#567bd8" stroke-width="2" stroke-dasharray="5,2" d="M405.5,-900C405.5,-900 280.5,-900 280.5,-900 274.5,-900 268.5,-894 268.5,-888 268.5,-888 268.5,-876 268.5,-876 268.5,-870 274.5,-864 280.5,-864 280.5,-864 405.5,-864 405.5,-864 411.5,-864 417.5,-870 417.5,-876 417.5,-876 417.5,-888 417.5,-888 417.5,-894 411.5,-900 405.5,-900"/>
<text text-anchor="middle" x="343" y="-879.5" font-family="sans" font-size="10.00">write_model_forcing_setup</text>
</g>
<!-- 11&#45;&gt;10 -->
<g id="edge21" class="edge">
<title>11&#45;&gt;10</title>
<path fill="none" stroke="grey" stroke-width="2" d="M343,-863.7C343,-855.98 343,-846.71 343,-838.11"/>
<polygon fill="grey" stroke="grey" stroke-width="2" points="346.5,-838.1 343,-828.1 339.5,-838.1 346.5,-838.1"/>
</g>
<!-- 12 -->
<g id="node13" class="node">
<title>12</title>
<path fill="none" stroke="#d6d856" stroke-width="2" stroke-dasharray="5,2" d="M407,-972C407,-972 279,-972 279,-972 273,-972 267,-966 267,-960 267,-960 267,-948 267,-948 267,-942 273,-936 279,-936 279,-936 407,-936 407,-936 413,-936 419,-942 419,-948 419,-948 419,-960 419,-960 419,-966 413,-972 407,-972"/>
<text text-anchor="middle" x="343" y="-951.5" font-family="sans" font-size="10.00">prepare_model_partitioning</text>
</g>
<!-- 12&#45;&gt;11 -->
<g id="edge22" class="edge">
<title>12&#45;&gt;11</title>
<path fill="none" stroke="grey" stroke-width="2" d="M343,-935.7C343,-927.98 343,-918.71 343,-910.11"/>
<polygon fill="grey" stroke="grey" stroke-width="2" points="346.5,-910.1 343,-900.1 339.5,-910.1 346.5,-910.1"/>
</g>
<!-- 13 -->
<g id="node14" class="node">
<title>13</title>
<path fill="none" stroke="#9fd856" stroke-width="2" stroke-dasharray="5,2" d="M381.5,-1044C381.5,-1044 304.5,-1044 304.5,-1044 298.5,-1044 292.5,-1038 292.5,-1032 292.5,-1032 292.5,-1020 292.5,-1020 292.5,-1014 298.5,-1008 304.5,-1008 304.5,-1008 381.5,-1008 381.5,-1008 387.5,-1008 393.5,-1014 393.5,-1020 393.5,-1020 393.5,-1032 393.5,-1032 393.5,-1038 387.5,-1044 381.5,-1044"/>
<text text-anchor="middle" x="343" y="-1023.5" font-family="sans" font-size="10.00">setup_simulation</text>
</g>
<!-- 13&#45;&gt;12 -->
<g id="edge23" class="edge">
<title>13&#45;&gt;12</title>
<path fill="none" stroke="grey" stroke-width="2" d="M343,-1007.7C343,-999.98 343,-990.71 343,-982.11"/>
<polygon fill="grey" stroke="grey" stroke-width="2" points="346.5,-982.1 343,-972.1 339.5,-982.1 346.5,-982.1"/>
</g>
<!-- 14&#45;&gt;6 -->
<g id="edge15" class="edge">
<title>14&#45;&gt;6</title>
<path fill="none" stroke="grey" stroke-width="2" d="M276.75,-575.7C287.84,-566.88 301.47,-556.03 313.49,-546.47"/>
<polygon fill="grey" stroke="grey" stroke-width="2" points="315.85,-549.07 321.5,-540.1 311.49,-543.59 315.85,-549.07"/>
</g>
<!-- 15&#45;&gt;6 -->
<g id="edge16" class="edge">
<title>15&#45;&gt;6</title>
<path fill="none" stroke="grey" stroke-width="2" d="M409.25,-575.7C398.16,-566.88 384.53,-556.03 372.51,-546.47"/>
<polygon fill="grey" stroke="grey" stroke-width="2" points="374.51,-543.59 364.5,-540.1 370.15,-549.07 374.51,-543.59"/>
</g>
<!-- 16&#45;&gt;6 -->
<g id="edge17" class="edge">
<title>16&#45;&gt;6</title>
<path fill="none" stroke="grey" stroke-width="2" d="M542.76,-575.97C503.98,-565.68 454.5,-552.57 414.49,-541.96"/>
<polygon fill="grey" stroke="grey" stroke-width="2" points="415.36,-538.57 404.8,-539.39 413.57,-545.33 415.36,-538.57"/>
</g>
<!-- 17 -->
<g id="node18" class="node">
<title>17</title>
<path fill="none" stroke="#d8cb56" stroke-width="2" stroke-dasharray="5,2" d="M322,-396C322,-396 222,-396 222,-396 216,-396 210,-390 210,-384 210,-384 210,-372 210,-372 210,-366 216,-360 222,-360 222,-360 322,-360 322,-360 328,-360 334,-366 334,-372 334,-372 334,-384 334,-384 334,-390 328,-396 322,-396"/>
<text text-anchor="middle" x="272" y="-375.5" font-family="sans" font-size="10.00">post_model_solution2</text>
</g>
<!-- 17&#45;&gt;3 -->
<g id="edge9" class="edge">
<title>17&#45;&gt;3</title>
<path fill="none" stroke="grey" stroke-width="2" d="M289.55,-359.7C298.23,-351.14 308.86,-340.66 318.35,-331.3"/>
<polygon fill="grey" stroke="grey" stroke-width="2" points="320.99,-333.62 325.65,-324.1 316.07,-328.63 320.99,-333.62"/>
</g>
<!-- 18&#45;&gt;17 -->
<g id="edge27" class="edge">
<title>18&#45;&gt;17</title>
<path fill="none" stroke="grey" stroke-width="2" d="M273.51,-431.7C273.29,-423.98 273.02,-414.71 272.77,-406.11"/>
<polygon fill="grey" stroke="grey" stroke-width="2" points="276.27,-406 272.49,-396.1 269.28,-406.2 276.27,-406"/>
</g>
<!-- 19 -->
<g id="node20" class="node">
<title>19</title>
<path fill="none" stroke="#56a9d8" stroke-width="2" stroke-dasharray="5,2" d="M464,-396C464,-396 364,-396 364,-396 358,-396 352,-390 352,-384 352,-384 352,-372 352,-372 352,-366 358,-360 364,-360 364,-360 464,-360 464,-360 470,-360 476,-366 476,-372 476,-372 476,-384 476,-384 476,-390 470,-396 464,-396"/>
<text text-anchor="middle" x="414" y="-375.5" font-family="sans" font-size="10.00">post_model_solution3</text>
</g>
<!-- 19&#45;&gt;3 -->
<g id="edge10" class="edge">
<title>19&#45;&gt;3</title>
<path fill="none" stroke="grey" stroke-width="2" d="M396.45,-359.7C387.77,-351.14 377.14,-340.66 367.65,-331.3"/>
<polygon fill="grey" stroke="grey" stroke-width="2" points="369.93,-328.63 360.35,-324.1 365.01,-333.62 369.93,-328.63"/>
</g>
<!-- 20&#45;&gt;19 -->
<g id="edge29" class="edge">
<title>20&#45;&gt;19</title>
<path fill="none" stroke="grey" stroke-width="2" d="M412.49,-431.7C412.71,-423.98 412.98,-414.71 413.23,-406.11"/>
<polygon fill="grey" stroke="grey" stroke-width="2" points="416.72,-406.2 413.51,-396.1 409.73,-406 416.72,-406.2"/>
</g>
<!-- 21 -->
<g id="node22" class="node">
<title>21</title>
<path fill="none" stroke="#61d856" stroke-width="2" stroke-dasharray="5,2" d="M606,-396C606,-396 506,-396 506,-396 500,-396 494,-390 494,-384 494,-384 494,-372 494,-372 494,-366 500,-360 506,-360 506,-360 606,-360 606,-360 612,-360 618,-366 618,-372 618,-372 618,-384 618,-384 618,-390 612,-396 606,-396"/>
<text text-anchor="middle" x="556" y="-375.5" font-family="sans" font-size="10.00">post_model_solution4</text>
</g>
<!-- 21&#45;&gt;3 -->
<g id="edge11" class="edge">
<title>21&#45;&gt;3</title>
<path fill="none" stroke="grey" stroke-width="2" d="M504.17,-359.97C471.92,-349.37 430.49,-335.75 397.71,-324.98"/>
<polygon fill="grey" stroke="grey" stroke-width="2" points="398.43,-321.53 387.83,-321.73 396.24,-328.18 398.43,-321.53"/>
</g>
<!-- 22&#45;&gt;21 -->
<g id="edge31" class="edge">
<title>22&#45;&gt;21</title>
<path fill="none" stroke="grey" stroke-width="2" d="M552.99,-431.7C553.43,-423.98 553.96,-414.71 554.45,-406.11"/>
<polygon fill="grey" stroke="grey" stroke-width="2" points="557.95,-406.29 555.02,-396.1 550.96,-405.89 557.95,-406.29"/>
</g>
<!-- 23 -->
<g id="node24" class="node">
<title>23</title>
<path fill="none" stroke="#8fd856" stroke-width="2" d="M322.5,-180C322.5,-180 201.5,-180 201.5,-180 195.5,-180 189.5,-174 189.5,-168 189.5,-168 189.5,-156 189.5,-156 189.5,-150 195.5,-144 201.5,-144 201.5,-144 322.5,-144 322.5,-144 328.5,-144 334.5,-150 334.5,-156 334.5,-156 334.5,-168 334.5,-168 334.5,-174 328.5,-180 322.5,-180"/>
<text text-anchor="middle" x="262" y="-159.5" font-family="sans" font-size="10.00">post_model_solution4_rep</text>
</g>
<!-- 23&#45;&gt;0 -->
<g id="edge2" class="edge">
<title>23&#45;&gt;0</title>
<path fill="none" stroke="grey" stroke-width="2" d="M261.91,-143.73C262.55,-124.86 265.79,-94.34 279,-72 285.78,-60.54 295.99,-50.45 306.28,-42.23"/>
<polygon fill="grey" stroke="grey" stroke-width="2" points="308.6,-44.87 314.48,-36.06 304.39,-39.28 308.6,-44.87"/>
</g>
<!-- 23&#45;&gt;29 -->
<g id="edge42" class="edge">
<title>23&#45;&gt;29</title>
<path fill="none" stroke="grey" stroke-width="2" d="M282.02,-143.7C292.13,-134.97 304.54,-124.24 315.52,-114.75"/>
<polygon fill="grey" stroke="grey" stroke-width="2" points="317.93,-117.29 323.21,-108.1 313.35,-111.99 317.93,-117.29"/>
</g>
<!-- 24&#45;&gt;23 -->
<g id="edge33" class="edge">
<title>24&#45;&gt;23</title>
<path fill="none" stroke="grey" stroke-width="2" d="M263.51,-215.7C263.29,-207.98 263.02,-198.71 262.77,-190.11"/>
<polygon fill="grey" stroke="grey" stroke-width="2" points="266.27,-190 262.49,-180.1 259.28,-190.2 266.27,-190"/>
</g>
<!-- 25 -->
<g id="node26" class="node">
<title>25</title>
<path fill="none" stroke="#d8bc56" stroke-width="2" d="M485.5,-180C485.5,-180 364.5,-180 364.5,-180 358.5,-180 352.5,-174 352.5,-168 352.5,-168 352.5,-156 352.5,-156 352.5,-150 358.5,-144 364.5,-144 364.5,-144 485.5,-144 485.5,-144 491.5,-144 497.5,-150 497.5,-156 497.5,-156 497.5,-168 497.5,-168 497.5,-174 491.5,-180 485.5,-180"/>
<text text-anchor="middle" x="425" y="-159.5" font-family="sans" font-size="10.00">post_model_solution2_rep</text>
</g>
<!-- 25&#45;&gt;0 -->
<g id="edge3" class="edge">
<title>25&#45;&gt;0</title>
<path fill="none" stroke="grey" stroke-width="2" d="M424.86,-143.72C423.97,-124.84 420.36,-94.32 407,-72 400.16,-60.57 389.93,-50.49 379.64,-42.28"/>
<polygon fill="grey" stroke="grey" stroke-width="2" points="381.54,-39.32 371.45,-36.1 377.33,-44.91 381.54,-39.32"/>
</g>
<!-- 25&#45;&gt;29 -->
<g id="edge40" class="edge">
<title>25&#45;&gt;29</title>
<path fill="none" stroke="grey" stroke-width="2" d="M404.73,-143.7C394.5,-134.97 381.94,-124.24 370.82,-114.75"/>
<polygon fill="grey" stroke="grey" stroke-width="2" points="372.91,-111.94 363.04,-108.1 368.37,-117.26 372.91,-111.94"/>
</g>
<!-- 26&#45;&gt;25 -->
<g id="edge35" class="edge">
<title>26&#45;&gt;25</title>
<path fill="none" stroke="grey" stroke-width="2" d="M423.49,-215.7C423.71,-207.98 423.98,-198.71 424.23,-190.11"/>
<polygon fill="grey" stroke="grey" stroke-width="2" points="427.72,-190.2 424.51,-180.1 420.73,-190 427.72,-190.2"/>
</g>
<!-- 27 -->
<g id="node28" class="node">
<title>27</title>
<path fill="none" stroke="#c6d856" stroke-width="2" d="M648.5,-180C648.5,-180 527.5,-180 527.5,-180 521.5,-180 515.5,-174 515.5,-168 515.5,-168 515.5,-156 515.5,-156 515.5,-150 521.5,-144 527.5,-144 527.5,-144 648.5,-144 648.5,-144 654.5,-144 660.5,-150 660.5,-156 660.5,-156 660.5,-168 660.5,-168 660.5,-174 654.5,-180 648.5,-180"/>
<text text-anchor="middle" x="588" y="-159.5" font-family="sans" font-size="10.00">post_model_solution1_rep</text>
</g>
<!-- 27&#45;&gt;0 -->
<g id="edge4" class="edge">
<title>27&#45;&gt;0</title>
<path fill="none" stroke="grey" stroke-width="2" d="M558.45,-143.87C514,-118.11 429.94,-69.39 380.99,-41.02"/>
<polygon fill="grey" stroke="grey" stroke-width="2" points="382.68,-37.95 372.28,-35.97 379.17,-44.01 382.68,-37.95"/>
</g>
<!-- 27&#45;&gt;29 -->
<g id="edge39" class="edge">
<title>27&#45;&gt;29</title>
<path fill="none" stroke="grey" stroke-width="2" d="M528.38,-143.97C491.97,-133.56 445.4,-120.26 408.04,-109.58"/>
<polygon fill="grey" stroke="grey" stroke-width="2" points="408.84,-106.17 398.26,-106.79 406.92,-112.9 408.84,-106.17"/>
</g>
<!-- 28&#45;&gt;27 -->
<g id="edge37" class="edge">
<title>28&#45;&gt;27</title>
<path fill="none" stroke="grey" stroke-width="2" d="M584.99,-215.7C585.43,-207.98 585.96,-198.71 586.45,-190.11"/>
<polygon fill="grey" stroke="grey" stroke-width="2" points="589.95,-190.29 587.02,-180.1 582.96,-189.89 589.95,-190.29"/>
</g>
<!-- 29&#45;&gt;0 -->
<g id="edge5" class="edge">
<title>29&#45;&gt;0</title>
<path fill="none" stroke="grey" stroke-width="2" d="M343,-71.7C343,-63.98 343,-54.71 343,-46.11"/>
<polygon fill="grey" stroke="grey" stroke-width="2" points="346.5,-46.1 343,-36.1 339.5,-46.1 346.5,-46.1"/>
</g>
</g>
</svg>
