<?xml version="1.0" encoding="UTF-8" standalone="no"?>
<!DOCTYPE svg PUBLIC "-//W3C//DTD SVG 1.1//EN"
 "http://www.w3.org/Graphics/SVG/1.1/DTD/svg11.dtd">
<!-- Generated by graphviz version 2.44.0 (0)
 -->
<!-- Title: snakemake_dag Pages: 1 -->
<svg width="1478pt" height="980pt"
 viewBox="0.00 0.00 1477.50 980.00" xmlns="http://www.w3.org/2000/svg" xmlns:xlink="http://www.w3.org/1999/xlink">
<g id="graph0" class="graph" transform="scale(1 1) rotate(0) translate(4 976)">
<title>snakemake_dag</title>
<polygon fill="white" stroke="transparent" points="-4,4 -4,-976 1473.5,-976 1473.5,4 -4,4"/>
<!-- 0 -->
<g id="node1" class="node">
<title>0</title>
<path fill="none" stroke="#d85656" stroke-width="2" d="M750,-36C750,-36 720,-36 720,-36 714,-36 708,-30 708,-24 708,-24 708,-12 708,-12 708,-6 714,0 720,0 720,0 750,0 750,0 756,0 762,-6 762,-12 762,-12 762,-24 762,-24 762,-30 756,-36 750,-36"/>
<text text-anchor="middle" x="735" y="-15.5" font-family="sans" font-size="10.00">all</text>
</g>
<!-- 1 -->
<g id="node2" class="node">
<title>1</title>
<path fill="none" stroke="#56d8d0" stroke-width="2" d="M766,-108C766,-108 704,-108 704,-108 698,-108 692,-102 692,-96 692,-96 692,-84 692,-84 692,-78 698,-72 704,-72 704,-72 766,-72 766,-72 772,-72 778,-78 778,-84 778,-84 778,-96 778,-96 778,-102 772,-108 766,-108"/>
<text text-anchor="middle" x="735" y="-87.5" font-family="sans" font-size="10.00">validation_rep</text>
</g>
<!-- 1&#45;&gt;0 -->
<g id="edge1" class="edge">
<title>1&#45;&gt;0</title>
<path fill="none" stroke="grey" stroke-width="2" d="M735,-71.7C735,-63.98 735,-54.71 735,-46.11"/>
<polygon fill="grey" stroke="grey" stroke-width="2" points="738.5,-46.1 735,-36.1 731.5,-46.1 738.5,-46.1"/>
</g>
<!-- 2 -->
<g id="node3" class="node">
<title>2</title>
<path fill="none" stroke="#d88d56" stroke-width="2" d="M156,-180C156,-180 12,-180 12,-180 6,-180 0,-174 0,-168 0,-168 0,-156 0,-156 0,-150 6,-144 12,-144 12,-144 156,-144 156,-144 162,-144 168,-150 168,-156 168,-156 168,-168 168,-168 168,-174 162,-180 156,-180"/>
<text text-anchor="middle" x="84" y="-159.5" font-family="sans" font-size="10.00">post_model_solution1_wtd_rep</text>
</g>
<!-- 2&#45;&gt;1 -->
<g id="edge2" class="edge">
<title>2&#45;&gt;1</title>
<path fill="none" stroke="grey" stroke-width="2" d="M168.1,-145.29C171.1,-144.84 174.07,-144.41 177,-144 361.56,-118.42 582.2,-101.45 681.7,-94.53"/>
<polygon fill="grey" stroke="grey" stroke-width="2" points="682.06,-98.01 691.8,-93.83 681.58,-91.03 682.06,-98.01"/>
</g>
<!-- 3 -->
<g id="node4" class="node">
<title>3</title>
<path fill="none" stroke="#59d856" stroke-width="2" d="M328,-252C328,-252 212,-252 212,-252 206,-252 200,-246 200,-240 200,-240 200,-228 200,-228 200,-222 206,-216 212,-216 212,-216 328,-216 328,-216 334,-216 340,-222 340,-228 340,-228 340,-240 340,-240 340,-246 334,-252 328,-252"/>
<text text-anchor="middle" x="270" y="-231.5" font-family="sans" font-size="10.00">run_model_solution1_rep</text>
</g>
<!-- 3&#45;&gt;2 -->
<g id="edge10" class="edge">
<title>3&#45;&gt;2</title>
<path fill="none" stroke="grey" stroke-width="2" d="M224.5,-215.88C198.62,-206.14 166.03,-193.87 138.76,-183.61"/>
<polygon fill="grey" stroke="grey" stroke-width="2" points="139.94,-180.31 129.35,-180.07 137.48,-186.87 139.94,-180.31"/>
</g>
<!-- 28 -->
<g id="node29" class="node">
<title>28</title>
<path fill="none" stroke="#d87556" stroke-width="2" d="M341.5,-180C341.5,-180 198.5,-180 198.5,-180 192.5,-180 186.5,-174 186.5,-168 186.5,-168 186.5,-156 186.5,-156 186.5,-150 192.5,-144 198.5,-144 198.5,-144 341.5,-144 341.5,-144 347.5,-144 353.5,-150 353.5,-156 353.5,-156 353.5,-168 353.5,-168 353.5,-174 347.5,-180 341.5,-180"/>
<text text-anchor="middle" x="270" y="-159.5" font-family="sans" font-size="10.00">post_model_solution1_hds_rep</text>
</g>
<!-- 3&#45;&gt;28 -->
<g id="edge55" class="edge">
<title>3&#45;&gt;28</title>
<path fill="none" stroke="grey" stroke-width="2" d="M270,-215.7C270,-207.98 270,-198.71 270,-190.11"/>
<polygon fill="grey" stroke="grey" stroke-width="2" points="273.5,-190.1 270,-180.1 266.5,-190.1 273.5,-190.1"/>
</g>
<!-- 4 -->
<g id="node5" class="node">
<title>4</title>
<path fill="none" stroke="#56d8c1" stroke-width="2" d="M755.5,-324C755.5,-324 714.5,-324 714.5,-324 708.5,-324 702.5,-318 702.5,-312 702.5,-312 702.5,-300 702.5,-300 702.5,-294 708.5,-288 714.5,-288 714.5,-288 755.5,-288 755.5,-288 761.5,-288 767.5,-294 767.5,-300 767.5,-300 767.5,-312 767.5,-312 767.5,-318 761.5,-324 755.5,-324"/>
<text text-anchor="middle" x="735" y="-303.5" font-family="sans" font-size="10.00">validation</text>
</g>
<!-- 4&#45;&gt;3 -->
<g id="edge11" class="edge">
<title>4&#45;&gt;3</title>
<path fill="none" stroke="grey" stroke-width="2" d="M702.3,-300.08C629.88,-289.18 454.17,-262.72 350.42,-247.11"/>
<polygon fill="grey" stroke="grey" stroke-width="2" points="350.71,-243.61 340.3,-245.58 349.67,-250.53 350.71,-243.61"/>
</g>
<!-- 30 -->
<g id="node31" class="node">
<title>30</title>
<path fill="none" stroke="#56d873" stroke-width="2" d="M700,-252C700,-252 584,-252 584,-252 578,-252 572,-246 572,-240 572,-240 572,-228 572,-228 572,-222 578,-216 584,-216 584,-216 700,-216 700,-216 706,-216 712,-222 712,-228 712,-228 712,-240 712,-240 712,-246 706,-252 700,-252"/>
<text text-anchor="middle" x="642" y="-231.5" font-family="sans" font-size="10.00">run_model_solution2_rep</text>
</g>
<!-- 4&#45;&gt;30 -->
<g id="edge57" class="edge">
<title>4&#45;&gt;30</title>
<path fill="none" stroke="grey" stroke-width="2" d="M712.01,-287.7C700.19,-278.8 685.61,-267.82 672.82,-258.2"/>
<polygon fill="grey" stroke="grey" stroke-width="2" points="674.82,-255.32 664.72,-252.1 670.61,-260.91 674.82,-255.32"/>
</g>
<!-- 33 -->
<g id="node34" class="node">
<title>33</title>
<path fill="none" stroke="#56d88a" stroke-width="2" d="M886,-252C886,-252 770,-252 770,-252 764,-252 758,-246 758,-240 758,-240 758,-228 758,-228 758,-222 764,-216 770,-216 770,-216 886,-216 886,-216 892,-216 898,-222 898,-228 898,-228 898,-240 898,-240 898,-246 892,-252 886,-252"/>
<text text-anchor="middle" x="828" y="-231.5" font-family="sans" font-size="10.00">run_model_solution3_rep</text>
</g>
<!-- 4&#45;&gt;33 -->
<g id="edge60" class="edge">
<title>4&#45;&gt;33</title>
<path fill="none" stroke="grey" stroke-width="2" d="M757.99,-287.7C769.81,-278.8 784.39,-267.82 797.18,-258.2"/>
<polygon fill="grey" stroke="grey" stroke-width="2" points="799.39,-260.91 805.28,-252.1 795.18,-255.32 799.39,-260.91"/>
</g>
<!-- 36 -->
<g id="node37" class="node">
<title>36</title>
<path fill="none" stroke="#56d8a9" stroke-width="2" d="M1258,-252C1258,-252 1142,-252 1142,-252 1136,-252 1130,-246 1130,-240 1130,-240 1130,-228 1130,-228 1130,-222 1136,-216 1142,-216 1142,-216 1258,-216 1258,-216 1264,-216 1270,-222 1270,-228 1270,-228 1270,-240 1270,-240 1270,-246 1264,-252 1258,-252"/>
<text text-anchor="middle" x="1200" y="-231.5" font-family="sans" font-size="10.00">run_model_solution4_rep</text>
</g>
<!-- 4&#45;&gt;36 -->
<g id="edge63" class="edge">
<title>4&#45;&gt;36</title>
<path fill="none" stroke="grey" stroke-width="2" d="M767.7,-300.08C840.12,-289.18 1015.83,-262.72 1119.58,-247.11"/>
<polygon fill="grey" stroke="grey" stroke-width="2" points="1120.33,-250.53 1129.7,-245.58 1119.29,-243.61 1120.33,-250.53"/>
</g>
<!-- 5 -->
<g id="node6" class="node">
<title>5</title>
<path fill="none" stroke="#d87d56" stroke-width="2" d="M219.5,-396C219.5,-396 96.5,-396 96.5,-396 90.5,-396 84.5,-390 84.5,-384 84.5,-384 84.5,-372 84.5,-372 84.5,-366 90.5,-360 96.5,-360 96.5,-360 219.5,-360 219.5,-360 225.5,-360 231.5,-366 231.5,-372 231.5,-372 231.5,-384 231.5,-384 231.5,-390 225.5,-396 219.5,-396"/>
<text text-anchor="middle" x="158" y="-375.5" font-family="sans" font-size="10.00">post_model_solution1_wtd</text>
</g>
<!-- 5&#45;&gt;4 -->
<g id="edge12" class="edge">
<title>5&#45;&gt;4</title>
<path fill="none" stroke="grey" stroke-width="2" d="M231.7,-361.53C234.84,-360.99 237.95,-360.48 241,-360 407.09,-334.14 606.57,-316.94 692.36,-310.2"/>
<polygon fill="grey" stroke="grey" stroke-width="2" points="692.8,-313.68 702.49,-309.41 692.25,-306.7 692.8,-313.68"/>
</g>
<!-- 6 -->
<g id="node7" class="node">
<title>6</title>
<path fill="none" stroke="#61d856" stroke-width="2" d="M535.5,-468C535.5,-468 440.5,-468 440.5,-468 434.5,-468 428.5,-462 428.5,-456 428.5,-456 428.5,-444 428.5,-444 428.5,-438 434.5,-432 440.5,-432 440.5,-432 535.5,-432 535.5,-432 541.5,-432 547.5,-438 547.5,-444 547.5,-444 547.5,-456 547.5,-456 547.5,-462 541.5,-468 535.5,-468"/>
<text text-anchor="middle" x="488" y="-447.5" font-family="sans" font-size="10.00">run_model_solution1</text>
</g>
<!-- 6&#45;&gt;5 -->
<g id="edge20" class="edge">
<title>6&#45;&gt;5</title>
<path fill="none" stroke="grey" stroke-width="2" d="M428.24,-436.32C376.09,-425.26 299.88,-409.1 241.67,-396.75"/>
<polygon fill="grey" stroke="grey" stroke-width="2" points="242.26,-393.3 231.76,-394.65 240.81,-400.14 242.26,-393.3"/>
</g>
<!-- 18 -->
<g id="node19" class="node">
<title>18</title>
<path fill="none" stroke="#d86656" stroke-width="2" d="M384,-396C384,-396 262,-396 262,-396 256,-396 250,-390 250,-384 250,-384 250,-372 250,-372 250,-366 256,-360 262,-360 262,-360 384,-360 384,-360 390,-360 396,-366 396,-372 396,-372 396,-384 396,-384 396,-390 390,-396 384,-396"/>
<text text-anchor="middle" x="323" y="-375.5" font-family="sans" font-size="10.00">post_model_solution1_hds</text>
</g>
<!-- 6&#45;&gt;18 -->
<g id="edge36" class="edge">
<title>6&#45;&gt;18</title>
<path fill="none" stroke="grey" stroke-width="2" d="M447.64,-431.88C424.98,-422.26 396.53,-410.19 372.53,-400.01"/>
<polygon fill="grey" stroke="grey" stroke-width="2" points="373.81,-396.75 363.23,-396.07 371.07,-403.2 373.81,-396.75"/>
</g>
<!-- 7 -->
<g id="node8" class="node">
<title>7</title>
<path fill="none" stroke="#568ad8" stroke-width="2" stroke-dasharray="5,2" d="M888,-540C888,-540 754,-540 754,-540 748,-540 742,-534 742,-528 742,-528 742,-516 742,-516 742,-510 748,-504 754,-504 754,-504 888,-504 888,-504 894,-504 900,-510 900,-516 900,-516 900,-528 900,-528 900,-534 894,-540 888,-540"/>
<text text-anchor="middle" x="821" y="-519.5" font-family="sans" font-size="10.00">write_model_input_solution1</text>
</g>
<!-- 7&#45;&gt;6 -->
<g id="edge21" class="edge">
<title>7&#45;&gt;6</title>
<path fill="none" stroke="grey" stroke-width="2" d="M741.66,-504.32C685.73,-492.56 611.52,-476.96 557.83,-465.68"/>
<polygon fill="grey" stroke="grey" stroke-width="2" points="558.22,-462.18 547.71,-463.55 556.78,-469.03 558.22,-462.18"/>
</g>
<!-- 20 -->
<g id="node21" class="node">
<title>20</title>
<path fill="none" stroke="#56d863" stroke-width="2" d="M695.5,-468C695.5,-468 600.5,-468 600.5,-468 594.5,-468 588.5,-462 588.5,-456 588.5,-456 588.5,-444 588.5,-444 588.5,-438 594.5,-432 600.5,-432 600.5,-432 695.5,-432 695.5,-432 701.5,-432 707.5,-438 707.5,-444 707.5,-444 707.5,-456 707.5,-456 707.5,-462 701.5,-468 695.5,-468"/>
<text text-anchor="middle" x="648" y="-447.5" font-family="sans" font-size="10.00">run_model_solution2</text>
</g>
<!-- 7&#45;&gt;20 -->
<g id="edge38" class="edge">
<title>7&#45;&gt;20</title>
<path fill="none" stroke="grey" stroke-width="2" d="M778.68,-503.88C754.82,-494.22 724.83,-482.09 699.6,-471.88"/>
<polygon fill="grey" stroke="grey" stroke-width="2" points="700.77,-468.57 690.18,-468.07 698.14,-475.06 700.77,-468.57"/>
</g>
<!-- 23 -->
<g id="node24" class="node">
<title>23</title>
<path fill="none" stroke="#56d882" stroke-width="2" d="M866.5,-468C866.5,-468 771.5,-468 771.5,-468 765.5,-468 759.5,-462 759.5,-456 759.5,-456 759.5,-444 759.5,-444 759.5,-438 765.5,-432 771.5,-432 771.5,-432 866.5,-432 866.5,-432 872.5,-432 878.5,-438 878.5,-444 878.5,-444 878.5,-456 878.5,-456 878.5,-462 872.5,-468 866.5,-468"/>
<text text-anchor="middle" x="819" y="-447.5" font-family="sans" font-size="10.00">run_model_solution3</text>
</g>
<!-- 7&#45;&gt;23 -->
<g id="edge44" class="edge">
<title>7&#45;&gt;23</title>
<path fill="none" stroke="grey" stroke-width="2" d="M820.51,-503.7C820.29,-495.98 820.02,-486.71 819.77,-478.11"/>
<polygon fill="grey" stroke="grey" stroke-width="2" points="823.27,-478 819.49,-468.1 816.28,-478.2 823.27,-478"/>
</g>
<!-- 26 -->
<g id="node27" class="node">
<title>26</title>
<path fill="none" stroke="#56d89a" stroke-width="2" d="M1025.5,-468C1025.5,-468 930.5,-468 930.5,-468 924.5,-468 918.5,-462 918.5,-456 918.5,-456 918.5,-444 918.5,-444 918.5,-438 924.5,-432 930.5,-432 930.5,-432 1025.5,-432 1025.5,-432 1031.5,-432 1037.5,-438 1037.5,-444 1037.5,-444 1037.5,-456 1037.5,-456 1037.5,-462 1031.5,-468 1025.5,-468"/>
<text text-anchor="middle" x="978" y="-447.5" font-family="sans" font-size="10.00">run_model_solution4</text>
</g>
<!-- 7&#45;&gt;26 -->
<g id="edge50" class="edge">
<title>7&#45;&gt;26</title>
<path fill="none" stroke="grey" stroke-width="2" d="M859.41,-503.88C880.87,-494.31 907.8,-482.3 930.57,-472.15"/>
<polygon fill="grey" stroke="grey" stroke-width="2" points="932.01,-475.34 939.72,-468.07 929.16,-468.94 932.01,-475.34"/>
</g>
<!-- 8 -->
<g id="node9" class="node">
<title>8</title>
<path fill="none" stroke="#56a9d8" stroke-width="2" stroke-dasharray="5,2" d="M791,-612C791,-612 675,-612 675,-612 669,-612 663,-606 663,-600 663,-600 663,-588 663,-588 663,-582 669,-576 675,-576 675,-576 791,-576 791,-576 797,-576 803,-582 803,-588 803,-588 803,-600 803,-600 803,-606 797,-612 791,-612"/>
<text text-anchor="middle" x="733" y="-591.5" font-family="sans" font-size="10.00">write_model_input_maps</text>
</g>
<!-- 8&#45;&gt;7 -->
<g id="edge25" class="edge">
<title>8&#45;&gt;7</title>
<path fill="none" stroke="grey" stroke-width="2" d="M754.75,-575.7C765.84,-566.88 779.47,-556.03 791.49,-546.47"/>
<polygon fill="grey" stroke="grey" stroke-width="2" points="793.85,-549.07 799.5,-540.1 789.49,-543.59 793.85,-549.07"/>
</g>
<!-- 15 -->
<g id="node16" class="node">
<title>15</title>
<path fill="none" stroke="#5682d8" stroke-width="2" stroke-dasharray="5,2" d="M1064,-540C1064,-540 930,-540 930,-540 924,-540 918,-534 918,-528 918,-528 918,-516 918,-516 918,-510 924,-504 930,-504 930,-504 1064,-504 1064,-504 1070,-504 1076,-510 1076,-516 1076,-516 1076,-528 1076,-528 1076,-534 1070,-540 1064,-540"/>
<text text-anchor="middle" x="997" y="-519.5" font-family="sans" font-size="10.00">write_model_input_solution2</text>
</g>
<!-- 8&#45;&gt;15 -->
<g id="edge33" class="edge">
<title>8&#45;&gt;15</title>
<path fill="none" stroke="grey" stroke-width="2" d="M797.24,-575.97C835.09,-565.93 883.14,-553.19 922.62,-542.72"/>
<polygon fill="grey" stroke="grey" stroke-width="2" points="923.7,-546.06 932.47,-540.11 921.9,-539.29 923.7,-546.06"/>
</g>
<!-- 16 -->
<g id="node17" class="node">
<title>16</title>
<path fill="none" stroke="#5673d8" stroke-width="2" stroke-dasharray="5,2" d="M536,-540C536,-540 402,-540 402,-540 396,-540 390,-534 390,-528 390,-528 390,-516 390,-516 390,-510 396,-504 402,-504 402,-504 536,-504 536,-504 542,-504 548,-510 548,-516 548,-516 548,-528 548,-528 548,-534 542,-540 536,-540"/>
<text text-anchor="middle" x="469" y="-519.5" font-family="sans" font-size="10.00">write_model_input_solution3</text>
</g>
<!-- 8&#45;&gt;16 -->
<g id="edge34" class="edge">
<title>8&#45;&gt;16</title>
<path fill="none" stroke="grey" stroke-width="2" d="M668.76,-575.97C630.91,-565.93 582.86,-553.19 543.38,-542.72"/>
<polygon fill="grey" stroke="grey" stroke-width="2" points="544.1,-539.29 533.53,-540.11 542.3,-546.06 544.1,-539.29"/>
</g>
<!-- 17 -->
<g id="node18" class="node">
<title>17</title>
<path fill="none" stroke="#5663d8" stroke-width="2" stroke-dasharray="5,2" d="M712,-540C712,-540 578,-540 578,-540 572,-540 566,-534 566,-528 566,-528 566,-516 566,-516 566,-510 572,-504 578,-504 578,-504 712,-504 712,-504 718,-504 724,-510 724,-516 724,-516 724,-528 724,-528 724,-534 718,-540 712,-540"/>
<text text-anchor="middle" x="645" y="-519.5" font-family="sans" font-size="10.00">write_model_input_solution4</text>
</g>
<!-- 8&#45;&gt;17 -->
<g id="edge35" class="edge">
<title>8&#45;&gt;17</title>
<path fill="none" stroke="grey" stroke-width="2" d="M711.25,-575.7C700.16,-566.88 686.53,-556.03 674.51,-546.47"/>
<polygon fill="grey" stroke="grey" stroke-width="2" points="676.51,-543.59 666.5,-540.1 672.15,-549.07 676.51,-543.59"/>
</g>
<!-- 9 -->
<g id="node10" class="node">
<title>9</title>
<path fill="none" stroke="#569ad8" stroke-width="2" stroke-dasharray="5,2" d="M791,-684C791,-684 675,-684 675,-684 669,-684 663,-678 663,-672 663,-672 663,-660 663,-660 663,-654 669,-648 675,-648 675,-648 791,-648 791,-648 797,-648 803,-654 803,-660 803,-660 803,-672 803,-672 803,-678 797,-684 791,-684"/>
<text text-anchor="middle" x="733" y="-663.5" font-family="sans" font-size="10.00">write_model_input_setup</text>
</g>
<!-- 9&#45;&gt;8 -->
<g id="edge26" class="edge">
<title>9&#45;&gt;8</title>
<path fill="none" stroke="grey" stroke-width="2" d="M733,-647.7C733,-639.98 733,-630.71 733,-622.11"/>
<polygon fill="grey" stroke="grey" stroke-width="2" points="736.5,-622.1 733,-612.1 729.5,-622.1 736.5,-622.1"/>
</g>
<!-- 10 -->
<g id="node11" class="node">
<title>10</title>
<path fill="none" stroke="#56c1d8" stroke-width="2" stroke-dasharray="5,2" d="M712.5,-756C712.5,-756 591.5,-756 591.5,-756 585.5,-756 579.5,-750 579.5,-744 579.5,-744 579.5,-732 579.5,-732 579.5,-726 585.5,-720 591.5,-720 591.5,-720 712.5,-720 712.5,-720 718.5,-720 724.5,-726 724.5,-732 724.5,-732 724.5,-744 724.5,-744 724.5,-750 718.5,-756 712.5,-756"/>
<text text-anchor="middle" x="652" y="-735.5" font-family="sans" font-size="10.00">write_model_forcing_sub1</text>
</g>
<!-- 10&#45;&gt;9 -->
<g id="edge27" class="edge">
<title>10&#45;&gt;9</title>
<path fill="none" stroke="grey" stroke-width="2" d="M672.02,-719.7C682.13,-710.97 694.54,-700.24 705.52,-690.75"/>
<polygon fill="grey" stroke="grey" stroke-width="2" points="707.93,-693.29 713.21,-684.1 703.35,-687.99 707.93,-693.29"/>
</g>
<!-- 11 -->
<g id="node12" class="node">
<title>11</title>
<path fill="none" stroke="#56d0d8" stroke-width="2" stroke-dasharray="5,2" d="M795.5,-828C795.5,-828 670.5,-828 670.5,-828 664.5,-828 658.5,-822 658.5,-816 658.5,-816 658.5,-804 658.5,-804 658.5,-798 664.5,-792 670.5,-792 670.5,-792 795.5,-792 795.5,-792 801.5,-792 807.5,-798 807.5,-804 807.5,-804 807.5,-816 807.5,-816 807.5,-822 801.5,-828 795.5,-828"/>
<text text-anchor="middle" x="733" y="-807.5" font-family="sans" font-size="10.00">write_model_forcing_setup</text>
</g>
<!-- 11&#45;&gt;10 -->
<g id="edge29" class="edge">
<title>11&#45;&gt;10</title>
<path fill="none" stroke="grey" stroke-width="2" d="M712.98,-791.7C702.87,-782.97 690.46,-772.24 679.48,-762.75"/>
<polygon fill="grey" stroke="grey" stroke-width="2" points="681.65,-759.99 671.79,-756.1 677.07,-765.29 681.65,-759.99"/>
</g>
<!-- 14 -->
<g id="node15" class="node">
<title>14</title>
<path fill="none" stroke="#56b9d8" stroke-width="2" stroke-dasharray="5,2" d="M875.5,-756C875.5,-756 754.5,-756 754.5,-756 748.5,-756 742.5,-750 742.5,-744 742.5,-744 742.5,-732 742.5,-732 742.5,-726 748.5,-720 754.5,-720 754.5,-720 875.5,-720 875.5,-720 881.5,-720 887.5,-726 887.5,-732 887.5,-732 887.5,-744 887.5,-744 887.5,-750 881.5,-756 875.5,-756"/>
<text text-anchor="middle" x="815" y="-735.5" font-family="sans" font-size="10.00">write_model_forcing_sub2</text>
</g>
<!-- 11&#45;&gt;14 -->
<g id="edge32" class="edge">
<title>11&#45;&gt;14</title>
<path fill="none" stroke="grey" stroke-width="2" d="M753.27,-791.7C763.5,-782.97 776.06,-772.24 787.18,-762.75"/>
<polygon fill="grey" stroke="grey" stroke-width="2" points="789.63,-765.26 794.96,-756.1 785.09,-759.94 789.63,-765.26"/>
</g>
<!-- 12 -->
<g id="node13" class="node">
<title>12</title>
<path fill="none" stroke="#70d856" stroke-width="2" stroke-dasharray="5,2" d="M797,-900C797,-900 669,-900 669,-900 663,-900 657,-894 657,-888 657,-888 657,-876 657,-876 657,-870 663,-864 669,-864 669,-864 797,-864 797,-864 803,-864 809,-870 809,-876 809,-876 809,-888 809,-888 809,-894 803,-900 797,-900"/>
<text text-anchor="middle" x="733" y="-879.5" font-family="sans" font-size="10.00">prepare_model_partitioning</text>
</g>
<!-- 12&#45;&gt;11 -->
<g id="edge30" class="edge">
<title>12&#45;&gt;11</title>
<path fill="none" stroke="grey" stroke-width="2" d="M733,-863.7C733,-855.98 733,-846.71 733,-838.11"/>
<polygon fill="grey" stroke="grey" stroke-width="2" points="736.5,-838.1 733,-828.1 729.5,-838.1 736.5,-838.1"/>
</g>
<!-- 13 -->
<g id="node14" class="node">
<title>13</title>
<path fill="none" stroke="#56d8b9" stroke-width="2" stroke-dasharray="5,2" d="M771.5,-972C771.5,-972 694.5,-972 694.5,-972 688.5,-972 682.5,-966 682.5,-960 682.5,-960 682.5,-948 682.5,-948 682.5,-942 688.5,-936 694.5,-936 694.5,-936 771.5,-936 771.5,-936 777.5,-936 783.5,-942 783.5,-948 783.5,-948 783.5,-960 783.5,-960 783.5,-966 777.5,-972 771.5,-972"/>
<text text-anchor="middle" x="733" y="-951.5" font-family="sans" font-size="10.00">setup_simulation</text>
</g>
<!-- 13&#45;&gt;12 -->
<g id="edge31" class="edge">
<title>13&#45;&gt;12</title>
<path fill="none" stroke="grey" stroke-width="2" d="M733,-935.7C733,-927.98 733,-918.71 733,-910.11"/>
<polygon fill="grey" stroke="grey" stroke-width="2" points="736.5,-910.1 733,-900.1 729.5,-910.1 736.5,-910.1"/>
</g>
<!-- 14&#45;&gt;9 -->
<g id="edge28" class="edge">
<title>14&#45;&gt;9</title>
<path fill="none" stroke="grey" stroke-width="2" d="M794.73,-719.7C784.5,-710.97 771.94,-700.24 760.82,-690.75"/>
<polygon fill="grey" stroke="grey" stroke-width="2" points="762.91,-687.94 753.04,-684.1 758.37,-693.26 762.91,-687.94"/>
</g>
<!-- 15&#45;&gt;6 -->
<g id="edge22" class="edge">
<title>15&#45;&gt;6</title>
<path fill="none" stroke="grey" stroke-width="2" d="M917.9,-505.4C914.9,-504.91 911.92,-504.44 909,-504 763.11,-481.99 724.95,-489.56 579,-468 572,-466.97 564.73,-465.79 557.47,-464.54"/>
<polygon fill="grey" stroke="grey" stroke-width="2" points="558.06,-461.09 547.61,-462.81 556.85,-467.99 558.06,-461.09"/>
</g>
<!-- 15&#45;&gt;20 -->
<g id="edge39" class="edge">
<title>15&#45;&gt;20</title>
<path fill="none" stroke="grey" stroke-width="2" d="M917.81,-505.12C857.57,-493.03 775.48,-476.57 717.71,-464.98"/>
<polygon fill="grey" stroke="grey" stroke-width="2" points="718.07,-461.49 707.58,-462.95 716.7,-468.35 718.07,-461.49"/>
</g>
<!-- 15&#45;&gt;23 -->
<g id="edge45" class="edge">
<title>15&#45;&gt;23</title>
<path fill="none" stroke="grey" stroke-width="2" d="M953.46,-503.88C928.8,-494.18 897.78,-481.98 871.75,-471.74"/>
<polygon fill="grey" stroke="grey" stroke-width="2" points="872.99,-468.47 862.4,-468.07 870.43,-474.99 872.99,-468.47"/>
</g>
<!-- 15&#45;&gt;26 -->
<g id="edge51" class="edge">
<title>15&#45;&gt;26</title>
<path fill="none" stroke="grey" stroke-width="2" d="M992.3,-503.7C990.19,-495.9 987.64,-486.51 985.28,-477.83"/>
<polygon fill="grey" stroke="grey" stroke-width="2" points="988.64,-476.84 982.64,-468.1 981.88,-478.67 988.64,-476.84"/>
</g>
<!-- 16&#45;&gt;6 -->
<g id="edge23" class="edge">
<title>16&#45;&gt;6</title>
<path fill="none" stroke="grey" stroke-width="2" d="M473.7,-503.7C475.81,-495.9 478.36,-486.51 480.72,-477.83"/>
<polygon fill="grey" stroke="grey" stroke-width="2" points="484.12,-478.67 483.36,-468.1 477.36,-476.84 484.12,-478.67"/>
</g>
<!-- 16&#45;&gt;20 -->
<g id="edge40" class="edge">
<title>16&#45;&gt;20</title>
<path fill="none" stroke="grey" stroke-width="2" d="M512.79,-503.88C537.58,-494.18 568.78,-481.98 594.96,-471.74"/>
<polygon fill="grey" stroke="grey" stroke-width="2" points="596.32,-474.97 604.35,-468.07 593.77,-468.45 596.32,-474.97"/>
</g>
<!-- 16&#45;&gt;23 -->
<g id="edge46" class="edge">
<title>16&#45;&gt;23</title>
<path fill="none" stroke="grey" stroke-width="2" d="M548.42,-505.12C608.83,-493.03 691.16,-476.57 749.09,-464.98"/>
<polygon fill="grey" stroke="grey" stroke-width="2" points="750.13,-468.34 759.25,-462.95 748.76,-461.48 750.13,-468.34"/>
</g>
<!-- 16&#45;&gt;26 -->
<g id="edge52" class="edge">
<title>16&#45;&gt;26</title>
<path fill="none" stroke="grey" stroke-width="2" d="M548.1,-505.4C551.1,-504.91 554.08,-504.44 557,-504 702.89,-481.99 741.05,-489.56 887,-468 894,-466.97 901.27,-465.79 908.53,-464.54"/>
<polygon fill="grey" stroke="grey" stroke-width="2" points="909.15,-467.99 918.39,-462.81 907.94,-461.09 909.15,-467.99"/>
</g>
<!-- 17&#45;&gt;6 -->
<g id="edge24" class="edge">
<title>17&#45;&gt;6</title>
<path fill="none" stroke="grey" stroke-width="2" d="M606.59,-503.88C585.13,-494.31 558.2,-482.3 535.43,-472.15"/>
<polygon fill="grey" stroke="grey" stroke-width="2" points="536.84,-468.94 526.28,-468.07 533.99,-475.34 536.84,-468.94"/>
</g>
<!-- 17&#45;&gt;20 -->
<g id="edge41" class="edge">
<title>17&#45;&gt;20</title>
<path fill="none" stroke="grey" stroke-width="2" d="M645.74,-503.7C646.07,-495.98 646.47,-486.71 646.84,-478.11"/>
<polygon fill="grey" stroke="grey" stroke-width="2" points="650.34,-478.25 647.27,-468.1 643.34,-477.95 650.34,-478.25"/>
</g>
<!-- 17&#45;&gt;23 -->
<g id="edge47" class="edge">
<title>17&#45;&gt;23</title>
<path fill="none" stroke="grey" stroke-width="2" d="M687.57,-503.88C711.56,-494.22 741.73,-482.09 767.1,-471.88"/>
<polygon fill="grey" stroke="grey" stroke-width="2" points="768.6,-475.05 776.57,-468.07 765.99,-468.55 768.6,-475.05"/>
</g>
<!-- 17&#45;&gt;26 -->
<g id="edge53" class="edge">
<title>17&#45;&gt;26</title>
<path fill="none" stroke="grey" stroke-width="2" d="M724.34,-504.32C780.27,-492.56 854.48,-476.96 908.17,-465.68"/>
<polygon fill="grey" stroke="grey" stroke-width="2" points="909.22,-469.03 918.29,-463.55 907.78,-462.18 909.22,-469.03"/>
</g>
<!-- 18&#45;&gt;4 -->
<g id="edge13" class="edge">
<title>18&#45;&gt;4</title>
<path fill="none" stroke="grey" stroke-width="2" d="M396.29,-361.64C399.23,-361.07 402.14,-360.53 405,-360 507.71,-341.11 629.11,-322.59 692.16,-313.25"/>
<polygon fill="grey" stroke="grey" stroke-width="2" points="692.75,-316.7 702.13,-311.78 691.72,-309.77 692.75,-316.7"/>
</g>
<!-- 19 -->
<g id="node20" class="node">
<title>19</title>
<path fill="none" stroke="#d8b456" stroke-width="2" d="M549.5,-396C549.5,-396 426.5,-396 426.5,-396 420.5,-396 414.5,-390 414.5,-384 414.5,-384 414.5,-372 414.5,-372 414.5,-366 420.5,-360 426.5,-360 426.5,-360 549.5,-360 549.5,-360 555.5,-360 561.5,-366 561.5,-372 561.5,-372 561.5,-384 561.5,-384 561.5,-390 555.5,-396 549.5,-396"/>
<text text-anchor="middle" x="488" y="-375.5" font-family="sans" font-size="10.00">post_model_solution2_wtd</text>
</g>
<!-- 19&#45;&gt;4 -->
<g id="edge14" class="edge">
<title>19&#45;&gt;4</title>
<path fill="none" stroke="grey" stroke-width="2" d="M548.11,-359.97C592.87,-347.28 652.86,-330.28 692.67,-319"/>
<polygon fill="grey" stroke="grey" stroke-width="2" points="693.67,-322.35 702.33,-316.26 691.76,-315.62 693.67,-322.35"/>
</g>
<!-- 20&#45;&gt;19 -->
<g id="edge37" class="edge">
<title>20&#45;&gt;19</title>
<path fill="none" stroke="grey" stroke-width="2" d="M608.86,-431.88C586.99,-422.31 559.54,-410.3 536.34,-400.15"/>
<polygon fill="grey" stroke="grey" stroke-width="2" points="537.58,-396.87 527.01,-396.07 534.77,-403.28 537.58,-396.87"/>
</g>
<!-- 21 -->
<g id="node22" class="node">
<title>21</title>
<path fill="none" stroke="#d89c56" stroke-width="2" d="M714,-396C714,-396 592,-396 592,-396 586,-396 580,-390 580,-384 580,-384 580,-372 580,-372 580,-366 586,-360 592,-360 592,-360 714,-360 714,-360 720,-360 726,-366 726,-372 726,-372 726,-384 726,-384 726,-390 720,-396 714,-396"/>
<text text-anchor="middle" x="653" y="-375.5" font-family="sans" font-size="10.00">post_model_solution2_hds</text>
</g>
<!-- 20&#45;&gt;21 -->
<g id="edge42" class="edge">
<title>20&#45;&gt;21</title>
<path fill="none" stroke="grey" stroke-width="2" d="M649.24,-431.7C649.79,-423.98 650.45,-414.71 651.06,-406.11"/>
<polygon fill="grey" stroke="grey" stroke-width="2" points="654.56,-406.33 651.78,-396.1 647.57,-405.83 654.56,-406.33"/>
</g>
<!-- 21&#45;&gt;4 -->
<g id="edge15" class="edge">
<title>21&#45;&gt;4</title>
<path fill="none" stroke="grey" stroke-width="2" d="M673.27,-359.7C683.5,-350.97 696.06,-340.24 707.18,-330.75"/>
<polygon fill="grey" stroke="grey" stroke-width="2" points="709.63,-333.26 714.96,-324.1 705.09,-327.94 709.63,-333.26"/>
</g>
<!-- 22 -->
<g id="node23" class="node">
<title>22</title>
<path fill="none" stroke="#c6d856" stroke-width="2" d="M879.5,-396C879.5,-396 756.5,-396 756.5,-396 750.5,-396 744.5,-390 744.5,-384 744.5,-384 744.5,-372 744.5,-372 744.5,-366 750.5,-360 756.5,-360 756.5,-360 879.5,-360 879.5,-360 885.5,-360 891.5,-366 891.5,-372 891.5,-372 891.5,-384 891.5,-384 891.5,-390 885.5,-396 879.5,-396"/>
<text text-anchor="middle" x="818" y="-375.5" font-family="sans" font-size="10.00">post_model_solution3_wtd</text>
</g>
<!-- 22&#45;&gt;4 -->
<g id="edge16" class="edge">
<title>22&#45;&gt;4</title>
<path fill="none" stroke="grey" stroke-width="2" d="M797.48,-359.7C787.13,-350.97 774.41,-340.24 763.16,-330.75"/>
<polygon fill="grey" stroke="grey" stroke-width="2" points="765.18,-327.88 755.28,-324.1 760.67,-333.23 765.18,-327.88"/>
</g>
<!-- 23&#45;&gt;22 -->
<g id="edge43" class="edge">
<title>23&#45;&gt;22</title>
<path fill="none" stroke="grey" stroke-width="2" d="M818.75,-431.7C818.64,-423.98 818.51,-414.71 818.39,-406.11"/>
<polygon fill="grey" stroke="grey" stroke-width="2" points="821.89,-406.05 818.24,-396.1 814.89,-406.15 821.89,-406.05"/>
</g>
<!-- 24 -->
<g id="node25" class="node">
<title>24</title>
<path fill="none" stroke="#d8d356" stroke-width="2" d="M1044,-396C1044,-396 922,-396 922,-396 916,-396 910,-390 910,-384 910,-384 910,-372 910,-372 910,-366 916,-360 922,-360 922,-360 1044,-360 1044,-360 1050,-360 1056,-366 1056,-372 1056,-372 1056,-384 1056,-384 1056,-390 1050,-396 1044,-396"/>
<text text-anchor="middle" x="983" y="-375.5" font-family="sans" font-size="10.00">post_model_solution3_hds</text>
</g>
<!-- 23&#45;&gt;24 -->
<g id="edge48" class="edge">
<title>23&#45;&gt;24</title>
<path fill="none" stroke="grey" stroke-width="2" d="M859.12,-431.88C881.64,-422.26 909.92,-410.19 933.77,-400.01"/>
<polygon fill="grey" stroke="grey" stroke-width="2" points="935.19,-403.21 943.01,-396.07 932.44,-396.77 935.19,-403.21"/>
</g>
<!-- 24&#45;&gt;4 -->
<g id="edge17" class="edge">
<title>24&#45;&gt;4</title>
<path fill="none" stroke="grey" stroke-width="2" d="M922.65,-359.97C877.71,-347.28 817.47,-330.28 777.5,-319"/>
<polygon fill="grey" stroke="grey" stroke-width="2" points="778.37,-315.61 767.8,-316.26 776.47,-322.34 778.37,-315.61"/>
</g>
<!-- 25 -->
<g id="node26" class="node">
<title>25</title>
<path fill="none" stroke="#8fd856" stroke-width="2" d="M1209.5,-396C1209.5,-396 1086.5,-396 1086.5,-396 1080.5,-396 1074.5,-390 1074.5,-384 1074.5,-384 1074.5,-372 1074.5,-372 1074.5,-366 1080.5,-360 1086.5,-360 1086.5,-360 1209.5,-360 1209.5,-360 1215.5,-360 1221.5,-366 1221.5,-372 1221.5,-372 1221.5,-384 1221.5,-384 1221.5,-390 1215.5,-396 1209.5,-396"/>
<text text-anchor="middle" x="1148" y="-375.5" font-family="sans" font-size="10.00">post_model_solution4_wtd</text>
</g>
<!-- 25&#45;&gt;4 -->
<g id="edge18" class="edge">
<title>25&#45;&gt;4</title>
<path fill="none" stroke="grey" stroke-width="2" d="M1074.27,-361.73C1071.14,-361.13 1068.04,-360.55 1065,-360 962.26,-341.24 840.87,-322.66 777.84,-313.28"/>
<polygon fill="grey" stroke="grey" stroke-width="2" points="778.27,-309.81 767.87,-311.8 777.24,-316.73 778.27,-309.81"/>
</g>
<!-- 26&#45;&gt;25 -->
<g id="edge49" class="edge">
<title>26&#45;&gt;25</title>
<path fill="none" stroke="grey" stroke-width="2" d="M1019.59,-431.88C1043.03,-422.22 1072.5,-410.09 1097.3,-399.88"/>
<polygon fill="grey" stroke="grey" stroke-width="2" points="1098.63,-403.11 1106.55,-396.07 1095.97,-396.64 1098.63,-403.11"/>
</g>
<!-- 27 -->
<g id="node28" class="node">
<title>27</title>
<path fill="none" stroke="#a7d856" stroke-width="2" d="M1374,-396C1374,-396 1252,-396 1252,-396 1246,-396 1240,-390 1240,-384 1240,-384 1240,-372 1240,-372 1240,-366 1246,-360 1252,-360 1252,-360 1374,-360 1374,-360 1380,-360 1386,-366 1386,-372 1386,-372 1386,-384 1386,-384 1386,-390 1380,-396 1374,-396"/>
<text text-anchor="middle" x="1313" y="-375.5" font-family="sans" font-size="10.00">post_model_solution4_hds</text>
</g>
<!-- 26&#45;&gt;27 -->
<g id="edge54" class="edge">
<title>26&#45;&gt;27</title>
<path fill="none" stroke="grey" stroke-width="2" d="M1037.51,-436.57C1091.03,-425.38 1170.19,-408.84 1229.94,-396.36"/>
<polygon fill="grey" stroke="grey" stroke-width="2" points="1230.66,-399.78 1239.73,-394.31 1229.23,-392.93 1230.66,-399.78"/>
</g>
<!-- 27&#45;&gt;4 -->
<g id="edge19" class="edge">
<title>27&#45;&gt;4</title>
<path fill="none" stroke="grey" stroke-width="2" d="M1239.75,-361.44C1236.8,-360.93 1233.87,-360.45 1231,-360 1064.27,-333.87 863.97,-316.81 777.82,-310.15"/>
<polygon fill="grey" stroke="grey" stroke-width="2" points="777.88,-306.65 767.64,-309.37 777.35,-313.63 777.88,-306.65"/>
</g>
<!-- 28&#45;&gt;1 -->
<g id="edge3" class="edge">
<title>28&#45;&gt;1</title>
<path fill="none" stroke="grey" stroke-width="2" d="M353.62,-145.55C356.79,-145.02 359.92,-144.5 363,-144 476.23,-125.59 609.43,-107.47 681.74,-97.92"/>
<polygon fill="grey" stroke="grey" stroke-width="2" points="682.5,-101.35 691.96,-96.57 681.58,-94.41 682.5,-101.35"/>
</g>
<!-- 29 -->
<g id="node30" class="node">
<title>29</title>
<path fill="none" stroke="#d8c356" stroke-width="2" d="M528,-180C528,-180 384,-180 384,-180 378,-180 372,-174 372,-168 372,-168 372,-156 372,-156 372,-150 378,-144 384,-144 384,-144 528,-144 528,-144 534,-144 540,-150 540,-156 540,-156 540,-168 540,-168 540,-174 534,-180 528,-180"/>
<text text-anchor="middle" x="456" y="-159.5" font-family="sans" font-size="10.00">post_model_solution2_wtd_rep</text>
</g>
<!-- 29&#45;&gt;1 -->
<g id="edge4" class="edge">
<title>29&#45;&gt;1</title>
<path fill="none" stroke="grey" stroke-width="2" d="M523.89,-143.97C572.48,-131.78 636.97,-115.6 681.83,-104.34"/>
<polygon fill="grey" stroke="grey" stroke-width="2" points="682.81,-107.7 691.65,-101.88 681.1,-100.91 682.81,-107.7"/>
</g>
<!-- 30&#45;&gt;29 -->
<g id="edge56" class="edge">
<title>30&#45;&gt;29</title>
<path fill="none" stroke="grey" stroke-width="2" d="M596.5,-215.88C570.62,-206.14 538.03,-193.87 510.76,-183.61"/>
<polygon fill="grey" stroke="grey" stroke-width="2" points="511.94,-180.31 501.35,-180.07 509.48,-186.87 511.94,-180.31"/>
</g>
<!-- 31 -->
<g id="node32" class="node">
<title>31</title>
<path fill="none" stroke="#d8ac56" stroke-width="2" d="M713.5,-180C713.5,-180 570.5,-180 570.5,-180 564.5,-180 558.5,-174 558.5,-168 558.5,-168 558.5,-156 558.5,-156 558.5,-150 564.5,-144 570.5,-144 570.5,-144 713.5,-144 713.5,-144 719.5,-144 725.5,-150 725.5,-156 725.5,-156 725.5,-168 725.5,-168 725.5,-174 719.5,-180 713.5,-180"/>
<text text-anchor="middle" x="642" y="-159.5" font-family="sans" font-size="10.00">post_model_solution2_hds_rep</text>
</g>
<!-- 30&#45;&gt;31 -->
<g id="edge58" class="edge">
<title>30&#45;&gt;31</title>
<path fill="none" stroke="grey" stroke-width="2" d="M642,-215.7C642,-207.98 642,-198.71 642,-190.11"/>
<polygon fill="grey" stroke="grey" stroke-width="2" points="645.5,-190.1 642,-180.1 638.5,-190.1 645.5,-190.1"/>
</g>
<!-- 31&#45;&gt;1 -->
<g id="edge5" class="edge">
<title>31&#45;&gt;1</title>
<path fill="none" stroke="grey" stroke-width="2" d="M664.99,-143.7C676.81,-134.8 691.39,-123.82 704.18,-114.2"/>
<polygon fill="grey" stroke="grey" stroke-width="2" points="706.39,-116.91 712.28,-108.1 702.18,-111.32 706.39,-116.91"/>
</g>
<!-- 32 -->
<g id="node33" class="node">
<title>32</title>
<path fill="none" stroke="#b6d856" stroke-width="2" d="M900,-180C900,-180 756,-180 756,-180 750,-180 744,-174 744,-168 744,-168 744,-156 744,-156 744,-150 750,-144 756,-144 756,-144 900,-144 900,-144 906,-144 912,-150 912,-156 912,-156 912,-168 912,-168 912,-174 906,-180 900,-180"/>
<text text-anchor="middle" x="828" y="-159.5" font-family="sans" font-size="10.00">post_model_solution3_wtd_rep</text>
</g>
<!-- 32&#45;&gt;1 -->
<g id="edge6" class="edge">
<title>32&#45;&gt;1</title>
<path fill="none" stroke="grey" stroke-width="2" d="M805.01,-143.7C793.19,-134.8 778.61,-123.82 765.82,-114.2"/>
<polygon fill="grey" stroke="grey" stroke-width="2" points="767.82,-111.32 757.72,-108.1 763.61,-116.91 767.82,-111.32"/>
</g>
<!-- 33&#45;&gt;32 -->
<g id="edge59" class="edge">
<title>33&#45;&gt;32</title>
<path fill="none" stroke="grey" stroke-width="2" d="M828,-215.7C828,-207.98 828,-198.71 828,-190.11"/>
<polygon fill="grey" stroke="grey" stroke-width="2" points="831.5,-190.1 828,-180.1 824.5,-190.1 831.5,-190.1"/>
</g>
<!-- 34 -->
<g id="node35" class="node">
<title>34</title>
<path fill="none" stroke="#ced856" stroke-width="2" d="M1085.5,-180C1085.5,-180 942.5,-180 942.5,-180 936.5,-180 930.5,-174 930.5,-168 930.5,-168 930.5,-156 930.5,-156 930.5,-150 936.5,-144 942.5,-144 942.5,-144 1085.5,-144 1085.5,-144 1091.5,-144 1097.5,-150 1097.5,-156 1097.5,-156 1097.5,-168 1097.5,-168 1097.5,-174 1091.5,-180 1085.5,-180"/>
<text text-anchor="middle" x="1014" y="-159.5" font-family="sans" font-size="10.00">post_model_solution3_hds_rep</text>
</g>
<!-- 33&#45;&gt;34 -->
<g id="edge61" class="edge">
<title>33&#45;&gt;34</title>
<path fill="none" stroke="grey" stroke-width="2" d="M873.5,-215.88C899.38,-206.14 931.97,-193.87 959.24,-183.61"/>
<polygon fill="grey" stroke="grey" stroke-width="2" points="960.52,-186.87 968.65,-180.07 958.06,-180.31 960.52,-186.87"/>
</g>
<!-- 34&#45;&gt;1 -->
<g id="edge7" class="edge">
<title>34&#45;&gt;1</title>
<path fill="none" stroke="grey" stroke-width="2" d="M946.11,-143.97C897.52,-131.78 833.03,-115.6 788.17,-104.34"/>
<polygon fill="grey" stroke="grey" stroke-width="2" points="788.9,-100.91 778.35,-101.88 787.19,-107.7 788.9,-100.91"/>
</g>
<!-- 35 -->
<g id="node36" class="node">
<title>35</title>
<path fill="none" stroke="#80d856" stroke-width="2" d="M1272,-180C1272,-180 1128,-180 1128,-180 1122,-180 1116,-174 1116,-168 1116,-168 1116,-156 1116,-156 1116,-150 1122,-144 1128,-144 1128,-144 1272,-144 1272,-144 1278,-144 1284,-150 1284,-156 1284,-156 1284,-168 1284,-168 1284,-174 1278,-180 1272,-180"/>
<text text-anchor="middle" x="1200" y="-159.5" font-family="sans" font-size="10.00">post_model_solution4_wtd_rep</text>
</g>
<!-- 35&#45;&gt;1 -->
<g id="edge8" class="edge">
<title>35&#45;&gt;1</title>
<path fill="none" stroke="grey" stroke-width="2" d="M1115.88,-145.47C1112.88,-144.97 1109.92,-144.47 1107,-144 993.77,-125.59 860.57,-107.47 788.26,-97.92"/>
<polygon fill="grey" stroke="grey" stroke-width="2" points="788.42,-94.41 778.04,-96.57 787.5,-101.35 788.42,-94.41"/>
</g>
<!-- 36&#45;&gt;35 -->
<g id="edge62" class="edge">
<title>36&#45;&gt;35</title>
<path fill="none" stroke="grey" stroke-width="2" d="M1200,-215.7C1200,-207.98 1200,-198.71 1200,-190.11"/>
<polygon fill="grey" stroke="grey" stroke-width="2" points="1203.5,-190.1 1200,-180.1 1196.5,-190.1 1203.5,-190.1"/>
</g>
<!-- 37 -->
<g id="node38" class="node">
<title>37</title>
<path fill="none" stroke="#97d856" stroke-width="2" d="M1457.5,-180C1457.5,-180 1314.5,-180 1314.5,-180 1308.5,-180 1302.5,-174 1302.5,-168 1302.5,-168 1302.5,-156 1302.5,-156 1302.5,-150 1308.5,-144 1314.5,-144 1314.5,-144 1457.5,-144 1457.5,-144 1463.5,-144 1469.5,-150 1469.5,-156 1469.5,-156 1469.5,-168 1469.5,-168 1469.5,-174 1463.5,-180 1457.5,-180"/>
<text text-anchor="middle" x="1386" y="-159.5" font-family="sans" font-size="10.00">post_model_solution4_hds_rep</text>
</g>
<!-- 36&#45;&gt;37 -->
<g id="edge64" class="edge">
<title>36&#45;&gt;37</title>
<path fill="none" stroke="grey" stroke-width="2" d="M1245.5,-215.88C1271.38,-206.14 1303.97,-193.87 1331.24,-183.61"/>
<polygon fill="grey" stroke="grey" stroke-width="2" points="1332.52,-186.87 1340.65,-180.07 1330.06,-180.31 1332.52,-186.87"/>
</g>
<!-- 37&#45;&gt;1 -->
<g id="edge9" class="edge">
<title>37&#45;&gt;1</title>
<path fill="none" stroke="grey" stroke-width="2" d="M1302.4,-145.37C1299.23,-144.89 1296.09,-144.43 1293,-144 1108.44,-118.42 887.8,-101.45 788.3,-94.53"/>
<polygon fill="grey" stroke="grey" stroke-width="2" points="788.42,-91.03 778.2,-93.83 787.94,-98.01 788.42,-91.03"/>
</g>
</g>
</svg>
